<svg width="900" height="679" viewBox="0 0 900 679" fill="none" xmlns="http://www.w3.org/2000/svg">
<path d="M836.906 465.033C851.212 328.652 632.16 36.4952 485.345 181.068C408.065 257.169 220.029 345.672 81.9795 390.981C-52.2542 435.038 225.073 654.496 433.54 674.945C642.007 695.393 822.6 601.413 836.906 465.033Z" fill="#FFF4F2"/>
<path d="M146.499 566.753C154.542 566.753 154.556 554.665 146.499 554.665C138.456 554.665 138.443 566.753 146.499 566.753ZM72.2722 289.664C80.3154 289.664 80.3287 277.576 72.2722 277.576C64.2291 277.576 64.2157 289.664 72.2722 289.664ZM199.124 115.136C207.167 115.136 207.181 103.049 199.124 103.049C191.081 103.049 191.068 115.136 199.124 115.136Z" fill="#FFA574"/>
<path d="M199.124 115.136C207.167 115.136 207.181 103.049 199.124 103.049C191.081 103.049 191.068 115.136 199.124 115.136ZM38.9993 559.854C47.0424 559.854 47.0558 547.766 38.9993 547.766C30.9561 547.766 30.9428 559.854 38.9993 559.854ZM427.559 12.0878C435.602 12.0878 435.615 0 427.559 0C419.515 0 419.502 12.0878 427.559 12.0878ZM347.624 476.319C355.667 476.319 355.681 464.231 347.624 464.231C339.581 464.231 339.568 476.319 347.624 476.319ZM133.874 241.333C141.917 241.333 141.931 229.245 133.874 229.245C125.831 229.245 125.818 241.333 133.874 241.333ZM189.335 625.49C197.378 625.49 197.391 613.402 189.335 613.402C181.292 613.402 181.278 625.49 189.335 625.49ZM625.868 572.22C633.911 572.22 633.924 560.132 625.868 560.132C617.825 560.132 617.811 572.22 625.868 572.22ZM649.124 99.9058C657.168 99.9058 657.181 87.8181 649.124 87.8181C641.081 87.8181 641.068 99.9058 649.124 99.9058ZM813.852 476.319C821.895 476.319 821.908 464.231 813.852 464.231C805.809 464.231 805.795 476.319 813.852 476.319ZM169.862 480.325C170.672 480.298 171.44 479.968 172.003 479.404C172.566 478.84 172.881 478.087 172.881 477.303C172.881 476.52 172.566 475.766 172.003 475.203C171.44 474.639 170.672 474.309 169.862 474.281C169.052 474.309 168.285 474.639 167.722 475.203C167.159 475.766 166.844 476.52 166.844 477.303C166.844 478.087 167.159 478.84 167.722 479.404C168.285 479.968 169.052 480.298 169.862 480.325ZM568.112 38.6381C568.923 38.6109 569.69 38.2807 570.253 37.7169C570.816 37.1531 571.131 36.3999 571.131 35.6161C571.131 34.8323 570.816 34.0791 570.253 33.5153C569.69 32.9516 568.923 32.6213 568.112 32.5942C567.302 32.6213 566.535 32.9516 565.972 33.5153C565.409 34.0791 565.094 34.8323 565.094 35.6161C565.094 36.3999 565.409 37.1531 565.972 37.7169C566.535 38.2807 567.302 38.6109 568.112 38.6381ZM466.99 240.017C467.8 239.99 468.567 239.659 469.131 239.095C469.694 238.532 470.008 237.779 470.008 236.995C470.008 236.211 469.694 235.458 469.131 234.894C468.567 234.33 467.8 234 466.99 233.973C466.18 234 465.412 234.33 464.849 234.894C464.286 235.458 463.971 236.211 463.971 236.995C463.971 237.779 464.286 238.532 464.849 239.095C465.412 239.659 466.18 239.99 466.99 240.017ZM518.612 493.38C519.423 493.353 520.19 493.023 520.753 492.459C521.316 491.895 521.631 491.142 521.631 490.358C521.631 489.574 521.316 488.821 520.753 488.257C520.19 487.694 519.423 487.363 518.612 487.336C517.802 487.363 517.035 487.694 516.472 488.257C515.909 488.821 515.594 489.574 515.594 490.358C515.594 491.142 515.909 491.895 516.472 492.459C517.035 493.023 517.802 493.353 518.612 493.38ZM401.612 652.213C402.423 652.186 403.19 651.856 403.753 651.292C404.316 650.729 404.631 649.975 404.631 649.191C404.631 648.408 404.316 647.654 403.753 647.091C403.19 646.527 402.423 646.197 401.612 646.17C400.802 646.197 400.035 646.527 399.472 647.091C398.909 647.654 398.594 648.408 398.594 649.191C398.594 649.975 398.909 650.729 399.472 651.292C400.035 651.856 400.802 652.186 401.612 652.213ZM759.363 647.862C760.173 647.835 760.94 647.504 761.503 646.941C762.066 646.377 762.381 645.624 762.381 644.84C762.381 644.056 762.066 643.303 761.503 642.739C760.94 642.175 760.173 641.845 759.363 641.818C758.552 641.845 757.785 642.175 757.222 642.739C756.659 643.303 756.344 644.056 756.344 644.84C756.344 645.624 756.659 646.377 757.222 646.941C757.785 647.504 758.552 647.835 759.363 647.862ZM471.362 358.481C472.173 358.453 472.94 358.123 473.503 357.559C474.066 356.996 474.381 356.242 474.381 355.459C474.381 354.675 474.066 353.922 473.503 353.358C472.94 352.794 472.173 352.464 471.362 352.437C470.552 352.464 469.785 352.794 469.222 353.358C468.659 353.922 468.344 354.675 468.344 355.459C468.344 356.242 468.659 356.996 469.222 357.559C469.785 358.123 470.552 358.453 471.362 358.481Z" fill="#FFA574"/>
<path d="M289.884 26.5895C290.694 26.5624 291.461 26.2321 292.025 25.6683C292.588 25.1046 292.902 24.3514 292.902 23.5676C292.902 22.7837 292.588 22.0306 292.025 21.4668C291.461 20.903 290.694 20.5728 289.884 20.5456C289.074 20.5728 288.306 20.903 287.743 21.4668C287.18 22.0306 286.865 22.7837 286.865 23.5676C286.865 24.3514 287.18 25.1046 287.743 25.6683C288.306 26.2321 289.074 26.5624 289.884 26.5895ZM78.3091 426.727C79.1192 426.7 79.8867 426.37 80.4499 425.806C81.013 425.242 81.3277 424.489 81.3277 423.705C81.3277 422.922 81.013 422.168 80.4499 421.605C79.8867 421.041 79.1192 420.711 78.3091 420.684C77.4991 420.711 76.7316 421.041 76.1684 421.605C75.6053 422.168 75.2905 422.922 75.2905 423.705C75.2905 424.489 75.6053 425.242 76.1684 425.806C76.7316 426.37 77.4991 426.7 78.3091 426.727ZM462.097 95.4435C462.907 95.4164 463.674 95.0861 464.238 94.5224C464.801 93.9586 465.116 93.2054 465.116 92.4216C465.116 91.6378 464.801 90.8846 464.238 90.3208C463.674 89.7571 462.907 89.4268 462.097 89.3996C461.287 89.4268 460.519 89.7571 459.956 90.3208C459.393 90.8846 459.078 91.6378 459.078 92.4216C459.078 93.2054 459.393 93.9586 459.956 94.5224C460.519 95.0861 461.287 95.4164 462.097 95.4435ZM819.888 121.775C820.698 121.748 821.466 121.418 822.029 120.854C822.592 120.291 822.907 119.537 822.907 118.754C822.907 117.97 822.592 117.217 822.029 116.653C821.466 116.089 820.698 115.759 819.888 115.732C819.078 115.759 818.311 116.089 817.748 116.653C817.185 117.217 816.87 117.97 816.87 118.754C816.87 119.537 817.185 120.291 817.748 120.854C818.311 121.418 819.078 121.748 819.888 121.775ZM306.397 450.621C307.207 450.594 307.974 450.263 308.537 449.699C309.101 449.136 309.415 448.383 309.415 447.599C309.415 446.815 309.101 446.062 308.537 445.498C307.974 444.934 307.207 444.604 306.397 444.577C305.587 444.604 304.819 444.934 304.256 445.498C303.693 446.062 303.378 446.815 303.378 447.599C303.378 448.383 303.693 449.136 304.256 449.699C304.819 450.263 305.587 450.594 306.397 450.621ZM641.726 406.747C642.536 406.72 643.303 406.389 643.866 405.826C644.43 405.262 644.744 404.509 644.744 403.725C644.744 402.941 644.43 402.188 643.866 401.624C643.303 401.06 642.536 400.73 641.726 400.703C640.916 400.73 640.148 401.06 639.585 401.624C639.022 402.188 638.707 402.941 638.707 403.725C638.707 404.509 639.022 405.262 639.585 405.826C640.148 406.389 640.916 406.72 641.726 406.747ZM701.999 29.6844C702.809 29.6573 703.576 29.327 704.139 28.7633C704.703 28.1995 705.017 27.4463 705.017 26.6625C705.017 25.8787 704.703 25.1255 704.139 24.5617C703.576 23.9979 702.809 23.6677 701.999 23.6405C701.189 23.6677 700.421 23.9979 699.858 24.5617C699.295 25.1255 698.98 25.8787 698.98 26.6625C698.98 27.4463 699.295 28.1995 699.858 28.7633C700.421 29.327 701.189 29.6573 701.999 29.6844ZM815.507 588.538C816.317 588.511 817.084 588.18 817.648 587.617C818.211 587.053 818.525 586.3 818.525 585.516C818.525 584.732 818.211 583.979 817.648 583.415C817.084 582.851 816.317 582.521 815.507 582.494C814.697 582.521 813.929 582.851 813.366 583.415C812.803 583.979 812.488 584.732 812.488 585.516C812.488 586.3 812.803 587.053 813.366 587.617C813.929 588.18 814.697 588.511 815.507 588.538Z" fill="#FFD1CA"/>
<path d="M368.546 94.5294V111.272L359.717 114.933C359.717 114.933 362.565 157.286 383.565 146.165C404.565 135.044 410.217 116.383 405.717 114.933L399.424 111.272L398.662 95.3409L368.546 94.5294Z" fill="#FED4C0"/>
<path d="M604.684 177.66L533.372 188.276C530.145 188.759 526.847 188.533 523.723 187.615C520.598 186.697 517.728 185.11 515.325 182.972C480.981 152.332 458.302 137.012 444.516 129.364C444.505 129.359 444.496 129.349 444.484 129.345L444.472 129.34C432.12 122.492 405.984 113.857 405.984 113.857L406.249 115.146L405.716 114.933C381.216 164.251 359.717 114.933 359.717 114.933C359.717 114.933 333.582 123.567 321.229 130.415L321.217 130.42C321.206 130.424 321.196 130.435 321.185 130.44C307.4 138.087 284.72 153.407 250.376 184.047C247.973 186.185 245.103 187.772 241.979 188.69C238.854 189.609 235.556 189.834 232.329 189.351L161.017 178.735L146.776 213.789L229.075 235.064C234.943 236.581 241.08 236.857 247.069 235.872C253.057 234.888 258.755 232.667 263.775 229.36L316.777 194.448L317.005 193.703C318.095 232.775 321.217 275.458 321.217 275.458L322.217 294.798H443.216L443.272 293.723H443.484L444.484 274.383C444.484 274.383 447.606 231.7 448.696 192.628L448.925 193.373L501.926 228.285C506.946 231.592 512.644 233.813 518.632 234.797C524.621 235.782 530.758 235.506 536.626 233.989L618.925 212.714L604.684 177.66Z" fill="#FABB05"/>
<path d="M413.564 57.7631C413.564 33.8632 400.356 14.4886 384.064 14.4886C367.772 14.4886 354.564 33.8632 354.564 57.7631L354.565 57.7812C354.5 57.78 354.441 57.7631 354.376 57.7631C353.084 57.758 351.804 57.9996 350.609 58.4741C349.414 58.9487 348.327 59.6468 347.412 60.5284C346.496 61.4101 345.77 62.4579 345.274 63.6116C344.779 64.7654 344.523 66.0025 344.523 67.2519C344.523 68.5013 344.779 69.7384 345.274 70.8922C345.77 72.046 346.496 73.0938 347.412 73.9754C348.327 74.857 349.414 75.5552 350.609 76.0297C351.804 76.5043 353.084 76.7459 354.376 76.7407C355.411 76.7279 356.437 76.5553 357.415 76.2295C362.142 90.879 372.281 101.037 384.064 101.037C395.833 101.037 405.962 90.9027 410.696 76.2809C411.623 76.5725 412.589 76.7275 413.564 76.7407C416.159 76.7304 418.645 75.7261 420.476 73.9478C422.308 72.1694 423.336 69.7618 423.336 67.2519C423.336 64.7421 422.308 62.3345 420.476 60.5561C418.645 58.7777 416.159 57.7734 413.564 57.7631V57.7631Z" fill="#FED4C0"/>
<path d="M357.813 66.2244C357.813 66.2244 356.063 32.8621 368.313 25.6095C368.313 25.6095 372.813 20.0491 385.563 33.1039C398.313 46.1587 410.705 39.162 410.705 39.162C410.705 39.162 413.813 61.631 411.813 66.2244C411.813 66.2244 429.813 36.4885 410.063 21.2579C390.313 6.02726 379.563 11.3459 363.813 21.2579C363.813 21.2579 334.313 24.6424 357.813 66.2244Z" fill="#200100"/>
<path d="M382.199 60.03C382.162 61.5301 382.011 62.9614 381.872 64.376C381.714 65.7474 381.629 67.1257 381.617 68.5056C381.602 69.8385 381.854 71.0819 382.591 71.38C383.938 71.5645 385.312 71.402 386.574 70.9088C386.048 71.4755 385.434 71.9596 384.754 72.344C383.993 72.8175 383.083 73.0154 382.185 72.9028C381.676 72.788 381.205 72.5503 380.817 72.2119C380.429 71.8736 380.135 71.4455 379.964 70.9678C379.681 70.1843 379.536 69.3602 379.536 68.5301C379.554 67.0146 379.806 65.5103 380.285 64.067C380.718 62.6392 381.363 61.2795 382.199 60.03ZM361.353 53.5162C361.353 53.5162 368.309 46.3154 376.486 52.2352L361.353 53.5162ZM388.062 52.8931C388.062 52.8931 395.319 45.975 403.237 52.215L388.062 52.8931Z" fill="#200100"/>
<path d="M370.824 64.6232C371.998 64.6232 372.949 63.2432 372.949 61.5408C372.949 59.8385 371.998 58.4585 370.824 58.4585C369.651 58.4585 368.699 59.8385 368.699 61.5408C368.699 63.2432 369.651 64.6232 370.824 64.6232Z" fill="#200100"/>
<path d="M395.074 63.7771C396.247 63.7771 397.199 62.3971 397.199 60.6947C397.199 58.9924 396.247 57.6123 395.074 57.6123C393.9 57.6123 392.949 58.9924 392.949 60.6947C392.949 62.3971 393.9 63.7771 395.074 63.7771Z" fill="#200100"/>
<path d="M348.198 69.0555C348.137 68.1993 348.355 67.3461 348.821 66.6159C349.297 65.8178 350.024 65.1882 350.897 64.8197C351.358 64.6302 351.854 64.5358 352.355 64.5428C352.855 64.5497 353.349 64.6578 353.803 64.86C354.638 65.2091 355.312 65.8417 355.698 66.6385C354.793 66.547 354.068 66.3739 353.402 66.3826C352.815 66.3467 352.227 66.4493 351.69 66.6817C350.426 67.3267 349.253 68.1243 348.198 69.0555ZM420.281 69.0555C419.226 68.1244 418.053 67.3268 416.79 66.6818C416.253 66.4495 415.665 66.3468 415.077 66.3828C414.412 66.3739 413.687 66.547 412.781 66.6386C413.167 65.8419 413.841 65.2092 414.676 64.8601C415.131 64.6579 415.624 64.5499 416.125 64.5429C416.625 64.536 417.121 64.6303 417.582 64.8198C418.455 65.1883 419.183 65.8179 419.658 66.6161C420.124 67.3462 420.342 68.1993 420.281 69.0555ZM369.571 95.4376C373.695 98.0357 378.444 99.5583 383.356 99.8573C385.759 99.968 388.164 99.6866 390.47 99.0251C391.655 98.711 392.817 98.3243 393.95 97.8673C395.107 97.4256 396.187 96.8167 397.391 96.3534C396.465 97.2127 395.478 98.0091 394.438 98.7369C393.359 99.4402 392.208 100.034 391.003 100.511C388.564 101.521 385.921 101.986 383.27 101.869C380.626 101.765 378.034 101.127 375.66 99.9951C373.318 98.9125 371.242 97.3587 369.571 95.4376Z" fill="#200100"/>
<path d="M368.172 76.755C368.982 76.7279 369.749 76.3976 370.313 75.8339C370.876 75.2701 371.191 74.5169 371.191 73.7331C371.191 72.9493 370.876 72.1961 370.313 71.6323C369.749 71.0686 368.982 70.7383 368.172 70.7111C367.362 70.7383 366.594 71.0686 366.031 71.6323C365.468 72.1961 365.153 72.9493 365.153 73.7331C365.153 74.5169 365.468 75.2701 366.031 75.8339C366.594 76.3976 367.362 76.7279 368.172 76.755ZM399.422 74.821C400.232 74.7938 401 74.4636 401.563 73.8998C402.126 73.3361 402.441 72.5829 402.441 71.799C402.441 71.0152 402.126 70.262 401.563 69.6983C401 69.1345 400.232 68.8042 399.422 68.7771C398.612 68.8042 397.844 69.1345 397.281 69.6983C396.718 70.262 396.403 71.0152 396.403 71.799C396.403 72.5829 396.718 73.3361 397.281 73.8998C397.844 74.4636 398.612 74.7938 399.422 74.821Z" fill="#602922"/>
<path d="M374.681 82.8087C374.681 82.8087 384.991 94.353 393.921 79.6296L374.681 82.8087Z" fill="#200100"/>
<path d="M325.716 294.799V627.454H371.716L377.716 337.348H389.716L412.716 627.454H458.716L438.716 294.799H325.716Z" fill="#FA81A2"/>
<path d="M422.716 639.058C422.716 639.058 410.216 672.904 420.716 677.739H431.216C431.216 677.739 436.216 664.201 443.216 677.739H507.216C507.216 677.739 511.216 667.102 495.716 662.267C480.216 657.432 454.216 639.058 454.216 639.058H422.716Z" fill="#2C66BF"/>
<path d="M420.716 627.454L422.716 639.058H454.216V627.454H420.716Z" fill="#FED4C0"/>
<path d="M363.981 639.058C363.981 639.058 376.481 672.904 365.981 677.739H355.481C355.481 677.739 350.481 664.201 343.481 677.739H279.481C279.481 677.739 275.481 667.102 290.981 662.267C306.481 657.432 332.481 639.058 332.481 639.058H363.981Z" fill="#2C66BF"/>
<path d="M365.981 627.454L363.981 639.058H332.481V627.454H365.981Z" fill="#FED4C0"/>
<path d="M393.859 336.519C390.514 337.23 387.096 337.567 383.672 337.525C380.247 337.572 376.828 337.234 373.484 336.519C376.828 335.804 380.247 335.466 383.672 335.512C387.096 335.47 390.514 335.808 393.859 336.519Z" fill="#E06C96"/>
<path d="M324.68 236.995C325.139 240.076 325.848 243.118 326.802 246.092C327.221 247.587 327.797 249.037 328.285 250.507L330.108 254.79C332.691 260.415 336.166 265.617 340.406 270.208C344.599 274.83 349.563 278.74 355.092 281.777C357.836 283.361 360.704 284.736 363.67 285.889C366.605 287.142 369.738 287.892 372.772 289.016C371.193 288.7 369.613 288.363 368.033 288.006L365.657 287.476L364.466 287.212L363.319 286.816C360.222 285.822 357.212 284.59 354.317 283.133C348.438 280.267 343.186 276.332 338.848 271.542C334.463 266.798 331.004 261.325 328.637 255.388C326.217 249.528 324.878 243.302 324.68 236.995ZM339.064 242.391C340.175 245.314 341.522 248.147 343.093 250.864C343.825 252.242 344.7 253.545 345.492 254.884L348.195 258.708C351.931 263.692 356.447 268.082 361.58 271.721C366.675 275.4 372.37 278.228 378.43 280.089C381.455 281.088 384.556 281.857 387.704 282.389C390.845 283.024 394.07 283.128 397.279 283.62C395.667 283.628 394.05 283.616 392.427 283.583L389.989 283.543L388.767 283.523L387.56 283.367C384.317 283.016 381.108 282.416 377.964 281.571C371.598 279.949 365.614 277.154 360.342 273.341C355.035 269.58 350.475 264.921 346.885 259.588C343.259 254.342 340.612 248.521 339.064 242.391Z" fill="#EDA606"/>
<path d="M427.561 161.698H392.217V204.328H427.561V161.698Z" fill="#EDA606"/>
<path d="M732.747 94.4833V113.24L740.728 114.932C740.728 114.932 738.728 157.24 717.728 146.119C696.728 134.998 690.228 116.383 694.728 114.932L701.728 112.757L702.631 95.2948L732.747 94.4833Z" fill="#F6AE94"/>
<path d="M687.727 57.7169C687.727 33.8171 700.935 14.4425 717.227 14.4425C733.519 14.4425 746.727 33.8171 746.727 57.7169L746.726 57.7351C746.791 57.7338 746.85 57.7169 746.915 57.7169C748.206 57.7118 749.487 57.9534 750.682 58.428C751.877 58.9025 752.964 59.6007 753.879 60.4823C754.795 61.3639 755.521 62.4117 756.017 63.5655C756.512 64.7193 756.767 65.9564 756.767 67.2058C756.767 68.4552 756.512 69.6922 756.017 70.846C755.521 71.9998 754.795 73.0476 753.879 73.9292C752.964 74.8109 751.877 75.509 750.682 75.9835C749.487 76.4581 748.206 76.6997 746.915 76.6946C745.88 76.6818 744.854 76.5092 743.876 76.1833C739.149 90.8329 729.01 100.991 717.227 100.991C705.458 100.991 695.329 90.8565 690.595 76.2347C689.668 76.5263 688.701 76.6814 687.727 76.6946C686.435 76.6997 685.155 76.4581 683.959 75.9835C682.764 75.509 681.678 74.8109 680.762 73.9292C679.847 73.0476 679.12 71.9998 678.625 70.846C678.129 69.6922 677.874 68.4552 677.874 67.2058C677.874 65.9564 678.129 64.7193 678.625 63.5655C679.12 62.4117 679.847 61.3639 680.762 60.4823C681.678 59.6007 682.764 58.9025 683.959 58.428C685.155 57.9534 686.435 57.7118 687.727 57.7169Z" fill="#F7AE94"/>
<path d="M743.476 66.1782C743.476 66.1782 745.226 32.816 732.976 25.5633C732.976 25.5633 728.476 20.0029 715.726 33.0577C702.976 46.1125 690.584 39.1159 690.584 39.1159C690.584 39.1159 687.476 61.5849 689.476 66.1782C689.476 66.1782 671.476 36.4423 691.226 21.2117C710.976 5.98112 721.726 11.2997 737.476 21.2117C737.476 21.2117 766.976 24.5963 743.476 66.1782Z" fill="#200100"/>
<path d="M719.093 59.9838C719.929 61.2334 720.573 62.5932 721.007 64.0209C721.486 65.4642 721.738 66.9685 721.756 68.484C721.756 69.3141 721.611 70.1382 721.328 70.9217C721.157 71.3994 720.863 71.8275 720.475 72.1659C720.086 72.5042 719.616 72.7419 719.107 72.8567C718.209 72.9693 717.299 72.7714 716.538 72.2979C715.858 71.9136 715.244 71.4294 714.718 70.8627C715.98 71.3559 717.354 71.5184 718.701 71.3339C719.438 71.0357 719.69 69.7924 719.674 68.4595C719.663 67.0797 719.578 65.7013 719.42 64.3299C719.281 62.9153 719.13 61.484 719.093 59.9838ZM739.97 50.2776C739.97 50.2776 730.558 46.5015 725.643 55.1603L739.97 50.2776ZM712.098 55.5965C712.098 55.5965 708.149 46.5126 698.359 49.33L712.098 55.5965Z" fill="#200100"/>
<path d="M730.466 64.5769C731.64 64.5769 732.591 63.1969 732.591 61.4945C732.591 59.7922 731.64 58.4121 730.466 58.4121C729.293 58.4121 728.341 59.7922 728.341 61.4945C728.341 63.1969 729.293 64.5769 730.466 64.5769Z" fill="#200100"/>
<path d="M706.217 63.7308C707.39 63.7308 708.342 62.3508 708.342 60.6485C708.342 58.9461 707.39 57.5661 706.217 57.5661C705.043 57.5661 704.092 58.9461 704.092 60.6485C704.092 62.3508 705.043 63.7308 706.217 63.7308Z" fill="#200100"/>
<path d="M753.093 69.0093C752.038 68.0782 750.865 67.2806 749.602 66.6356C749.065 66.4033 748.477 66.3006 747.89 66.3366C747.224 66.3277 746.499 66.5008 745.593 66.5924C745.979 65.7957 746.653 65.163 747.488 64.8139C747.943 64.6117 748.436 64.5036 748.937 64.4967C749.437 64.4898 749.934 64.5841 750.394 64.7736C751.267 65.1421 751.995 65.7717 752.47 66.5698C752.937 67.3 753.154 68.1531 753.093 69.0093ZM681.01 69.0093C680.949 68.1531 681.167 67.2999 681.633 66.5697C682.109 65.7715 682.836 65.1419 683.709 64.7734C684.17 64.5839 684.666 64.4896 685.167 64.4966C685.667 64.5035 686.161 64.6115 686.615 64.8137C687.45 65.1628 688.124 65.7955 688.51 66.5923C687.605 66.5008 686.88 66.3277 686.214 66.3364C685.627 66.3005 685.039 66.4031 684.501 66.6355C683.238 67.2805 682.065 68.0781 681.01 69.0093ZM731.721 95.3913C730.049 97.3124 727.973 98.8665 725.631 99.9498C723.257 101.081 720.665 101.719 718.021 101.823C715.371 101.94 712.727 101.476 710.288 100.464C709.083 99.9882 707.932 99.3939 706.853 98.6906C705.813 97.9628 704.826 97.1664 703.9 96.3071C705.105 96.7705 706.184 97.3794 707.341 97.821C708.474 98.278 709.637 98.6647 710.821 98.9788C713.127 99.6404 715.533 99.9217 717.936 99.8111C722.848 99.512 727.597 97.9894 731.721 95.3913ZM726.52 79.4136C726.52 79.4136 720.726 92.1058 709.101 81.5894L726.52 79.4136Z" fill="#200100"/>
<path d="M819.556 323.524L827.466 368.242C827.89 370.64 827.798 373.097 827.195 375.458C826.592 377.82 825.492 380.036 823.963 381.968L808.101 402.008C807.678 402.542 807.134 402.975 806.51 403.272C805.887 403.57 805.201 403.725 804.506 403.725C803.305 403.725 802.154 403.264 801.305 402.443C800.456 401.622 799.979 400.508 799.979 399.347C799.979 397.054 800.77 394.826 802.227 393.016L814.394 377.909C814.394 377.909 812.793 357.257 812.437 360.354L806.13 370.299C805.839 370.757 805.433 371.137 804.95 371.403C804.467 371.668 803.922 371.811 803.366 371.819C802.81 371.826 802.262 371.697 801.771 371.444C801.281 371.191 800.864 370.821 800.561 370.371C800.173 369.811 799.98 369.145 800.011 368.471C800.169 365.984 800.895 363.562 802.137 361.378L803.894 358.289C803.894 358.289 799.978 335.227 804.962 323.524L819.556 323.524Z" fill="#F6AE94"/>
<path d="M714.472 154.912L719.768 172.166L661.947 245.63C652.971 257.281 636.076 256.722 628.559 242.069C628.559 242.069 627.989 231.387 629.495 228.244C636.263 214.113 643.641 212.352 655.348 202.858L714.472 154.912Z" fill="#8C4D3E"/>
<path d="M716.555 156.926L721.852 174.181L664.03 247.645C655.055 259.296 638.159 258.737 630.643 244.084C630.643 244.084 630.073 233.401 631.578 230.258C638.347 216.127 645.724 214.367 657.432 204.872L716.555 156.926Z" fill="#8C4D3E"/>
<path d="M583.181 202.06C583.181 202.06 582.779 194.306 570.292 182.167C557.805 170.027 546.641 161.761 553.191 172.036L558.316 179.785C558.316 179.785 544.983 174.961 537.3 171.415C535.278 170.443 532.986 170.125 530.763 170.507C528.54 170.89 526.502 171.953 524.95 173.539C522.109 176.574 522.237 179.854 530.246 185.585C542.225 194.157 560.778 207.202 564.376 208.482C565.623 208.925 583.181 202.06 583.181 202.06Z" fill="#B86A4B"/>
<path d="M657.727 294.798H778.227L779.227 275.458L796.227 342.183L827.727 337.347C819.071 238.99 798.966 175.353 788.435 147.526C786.536 142.516 783.584 137.942 779.763 134.092C775.943 130.243 771.338 127.202 766.239 125.162L740.727 114.932C740.727 114.932 719.227 164.25 694.727 114.932L669.214 125.162C658.906 129.295 645.562 137.117 641.727 147.251C636.959 159.85 628.016 187.496 621.257 200.283C620.813 201.122 620.184 201.857 619.415 202.435C618.646 203.014 617.754 203.422 616.804 203.631C615.854 203.84 614.868 203.845 613.915 203.646C612.963 203.446 612.067 203.047 611.291 202.477L573.408 180.619L558.827 207.839L607.105 246.616C613.506 250.875 621.381 252.534 629.034 251.234C636.687 249.934 643.506 245.779 648.023 239.664L656.227 228.557L657.227 294.798H777.727" fill="#4285F4"/>
<path d="M566.123 183.321C564.706 183.019 563.332 182.553 562.03 181.935C560.719 181.342 559.474 180.622 558.315 179.785C559.05 179.848 559.774 179.993 560.474 180.219C561.166 180.428 561.842 180.684 562.496 180.987C563.822 181.58 565.045 182.367 566.123 183.321ZM547.76 181.156C546.07 180.627 544.413 180.001 542.8 179.283C541.174 178.591 539.598 177.801 538.046 176.965C536.492 176.127 534.99 175.2 533.549 174.191C532.089 173.199 530.745 172.056 529.541 170.781C532.478 172.711 535.51 174.383 538.579 176.052C541.632 177.74 544.728 179.356 547.76 181.156ZM540.575 188.157C538.99 187.793 537.436 187.31 535.928 186.713C534.414 186.132 532.935 185.466 531.501 184.719C528.596 183.26 525.968 181.337 523.726 179.031C525.102 179.881 526.443 180.729 527.826 181.517C529.223 182.284 530.6 183.07 532.018 183.797L540.575 188.157ZM544.514 185.147C542.633 184.663 540.787 184.057 538.989 183.334C537.182 182.628 535.419 181.818 533.711 180.91C531.986 180.011 530.348 178.965 528.816 177.783C527.227 176.653 525.908 175.205 524.949 173.539C526.217 174.935 527.686 176.146 529.312 177.135C530.908 178.149 532.542 179.114 534.235 179.992C537.591 181.799 541.058 183.42 544.514 185.147Z" fill="#160B07"/>
<path d="M589.562 619.446L593.863 643.682L624.807 665.802C624.807 665.802 588.432 678.494 570.057 659.637L573.807 642.956L565.182 621.561L589.562 619.446ZM474.927 619.446L474.793 643.682L443.849 665.802C443.849 665.802 480.224 678.494 498.599 659.637L494.849 642.956L499.307 621.561L474.927 619.446Z" fill="#8C4D3E"/>
<path d="M531.068 266.019L515.911 292.26C505.434 310.399 498.406 330.208 495.16 350.746L453.22 625.965L607.533 621.561L616.284 360.514C617.318 337.235 612.824 314.036 603.146 292.698C598.851 283.036 593.096 274.045 586.068 266.019L531.068 266.019Z" fill="#DF382B"/>
<path d="M514.692 89.305C514.944 92.7197 516.293 92.8039 517.117 96.6108C518.306 102.105 515.784 103.257 516.983 107.655C517.665 110.157 518.554 110.05 523.092 116.278C527.775 122.704 526.751 122.71 529.21 125.281C533.544 129.813 535.51 128.523 540.426 133.411C543.681 136.648 543.311 137.701 546.901 140.883C549.29 142.796 551.833 144.522 554.504 146.046C563.743 151.994 564.305 152.572 566.48 153.017C569.848 153.571 573.304 153.335 576.558 152.329C580.211 151.43 580.313 150.66 586.451 148.389C592.747 146.059 593.122 146.69 595.431 145.145C598.913 142.814 598.176 141.3 602.344 137.759C606.282 134.413 607.385 135.388 609.704 132.647C612.663 129.151 611.173 127.204 614.23 124.171C616.547 121.871 617.929 122.47 620.428 119.846C621.854 118.092 623.002 116.142 623.835 114.06C627.193 107.871 628.662 108.549 630.685 104.01C631.77 101.578 631.074 101.999 633.216 94.4359C634.917 88.4307 635.234 88.5973 635.395 86.6478C635.884 80.745 632.883 80.4188 633.967 76.1436C634.625 73.5483 636.449 70.838 635.411 67.1785L635.411 67.1774C634.428 60.3514 633.708 55.3505 629.825 50.7246C627.725 48.2226 627.344 48.9808 620.979 42.9237C616.948 39.0866 616.094 37.8249 613.341 36.2384C609.744 34.1662 609.11 35.1149 604.603 33.0041C598.758 30.2674 598.912 28.2455 594.219 26.7601C591.126 25.7814 591.097 26.6708 585.141 25.8177C577.586 24.7355 577.325 23.2599 573.529 23.6239C569.465 24.0137 569.011 25.7772 563.13 27.4445C558.218 28.8372 557.456 27.4555 553.708 28.827C549.897 30.2213 550.247 31.5313 545.565 33.9231C540.017 36.7575 538.408 35.4894 535.816 37.945C533.23 40.3955 534.533 41.9417 531.693 46.7929C529.373 50.7572 528.237 50.179 524.414 55.3295C522.241 58.3821 520.341 61.6083 518.735 64.9731C517.158 67.4627 516.024 70.1904 515.381 73.0427C514.97 76.418 516.152 76.7852 515.963 81.0256C515.765 85.4576 514.438 85.8713 514.692 89.305Z" fill="#200100"/>
<path d="M541.656 104.408C541.694 104.407 541.73 104.418 541.769 104.418C542.465 85.0666 555.139 69.5313 571.084 69.1803C587.03 68.8293 600.421 83.7908 602.027 103.091C602.066 103.09 602.101 103.078 602.14 103.077C604.549 103.276 606.797 104.328 608.453 106.033C610.109 107.737 611.055 109.973 611.11 112.31C611.165 114.648 610.325 116.923 608.751 118.698C607.177 120.473 604.981 121.624 602.584 121.929C601.635 121.937 600.692 121.778 599.801 121.461C596.48 131.075 589.961 138.597 581.836 141.954L581.867 141.957L582.113 165.907L581.026 183.462L556.104 181.714L556.62 166.468L558.584 139.839L558.65 139.845C552.298 135.666 547.471 129.656 544.857 122.671C543.982 123.027 543.048 123.226 542.099 123.26C539.69 123.061 537.442 122.008 535.786 120.304C534.131 118.6 533.185 116.364 533.13 114.027C533.075 111.689 533.915 109.414 535.488 107.639C537.062 105.864 539.258 104.713 541.656 104.408V104.408ZM482.542 345.804L478.132 377.483C477.903 379.199 478.076 380.942 478.638 382.584C479.2 384.227 480.137 385.726 481.379 386.97L494.455 400.393C494.823 400.758 495.269 401.042 495.762 401.225C496.255 401.408 496.783 401.486 497.309 401.453C498.198 401.449 499.048 401.104 499.674 400.495C500.301 399.886 500.652 399.061 500.652 398.202C500.552 396.568 499.846 395.023 498.663 393.852L488.644 383.742C488.644 383.742 489.089 369.193 489.485 371.352L494.76 378.074C495.026 378.388 495.364 378.637 495.746 378.803C496.129 378.969 496.546 379.047 496.965 379.03C497.384 379.013 497.793 378.903 498.161 378.707C498.528 378.512 498.843 378.236 499.082 377.903C499.359 377.505 499.484 377.026 499.435 376.548C499.21 374.793 498.55 373.116 497.513 371.659L496.031 369.562C496.031 369.562 498.178 353.231 493.861 345.222L482.542 345.804Z" fill="#8C4D3E"/>
<path d="M489.53 241.216L480.603 360.786L495.744 354.196L515.04 252.008L489.53 241.216Z" fill="#8C4D3E"/>
<path d="M487.399 260.338L492.45 196.535C492.873 191.207 494.599 186.052 497.486 181.496C500.373 176.939 504.339 173.112 509.055 170.328C514.586 167.049 520.584 164.571 526.858 162.974C536.586 160.743 546.552 159.626 556.55 159.647C556.55 159.647 567.05 187.69 582.05 159.647L602.747 166.391C608.697 168.329 614.17 171.431 618.825 175.504C623.481 179.576 627.221 184.532 629.81 190.062L652.176 225.648L634.356 246.759L604.273 226.589L586.05 266.019H531.05L518.901 225.648L514.476 260.338L487.399 260.338Z" fill="#34A853"/>
<path d="M241.022 89.3991C249.487 89.3991 256.349 82.7632 256.349 74.5775C256.349 66.3917 249.487 59.7559 241.022 59.7559C232.557 59.7559 225.695 66.3917 225.695 74.5775C225.695 82.7632 232.557 89.3991 241.022 89.3991Z" fill="#200100"/>
<path d="M171.851 92.4211C180.315 92.4211 187.178 85.7853 187.178 77.5995C187.178 69.4138 180.315 62.7779 171.851 62.7779C163.386 62.7779 156.523 69.4138 156.523 77.5995C156.523 85.7853 163.386 92.4211 171.851 92.4211Z" fill="#200100"/>
<path d="M239.397 109.115C239.359 109.113 239.322 109.122 239.284 109.121C239.242 89.7578 227.101 73.8302 211.175 72.9753C195.25 72.1204 181.36 86.6506 179.103 105.89C179.064 105.888 179.029 105.874 178.99 105.872C176.576 105.995 174.293 106.976 172.581 108.627C170.869 110.278 169.847 112.482 169.713 114.817C169.579 117.152 170.342 119.452 171.855 121.276C173.367 123.1 175.524 124.319 177.91 124.7C178.858 124.738 179.805 124.609 180.707 124.321C181.957 136.262 185.036 143.691 197.801 149.072L196.882 169.302L197.375 186.882L222.344 185.922L223.257 170.124L221.414 148.724C231.714 146.197 235.373 131.598 235.58 127.266C236.442 127.65 237.37 127.879 238.316 127.943C240.731 127.82 243.014 126.839 244.726 125.188C246.438 123.537 247.459 121.332 247.593 118.998C247.727 116.663 246.965 114.363 245.452 112.539C243.939 110.715 241.783 109.495 239.397 109.115H239.397Z" fill="#B86A4B"/>
<path d="M200.871 150.89C203.919 150.887 206.757 151.052 209.593 150.981C211.007 150.955 212.398 150.834 213.805 150.681C215.242 150.465 216.667 150.174 218.073 149.81C216.996 150.896 215.668 151.718 214.197 152.207C212.727 152.684 211.193 152.949 209.644 152.995C208.115 153.014 206.588 152.854 205.099 152.518C203.606 152.205 202.178 151.655 200.871 150.89ZM206.725 111.235C206.602 112.73 206.369 114.151 206.15 115.556C205.913 116.917 205.749 118.289 205.658 119.666C205.567 120.996 205.747 122.25 206.465 122.589C207.8 122.845 209.181 122.756 210.469 122.332C209.911 122.869 209.27 123.319 208.57 123.667C207.783 124.099 206.863 124.247 205.973 124.087C205.471 123.945 205.015 123.683 204.647 123.324C204.278 122.965 204.01 122.522 203.867 122.036C203.629 121.238 203.531 120.407 203.578 119.578C203.683 118.067 204.022 116.579 204.582 115.164C205.097 113.761 205.818 112.438 206.725 111.235ZM185.197 102.263C185.197 102.263 192.766 95.665 200.388 102.24L185.197 102.263ZM213.285 102.832C213.285 102.832 220.128 95.5312 228.395 101.332L213.285 102.832ZM198.45 128.985C198.45 128.985 205.184 142.779 217.868 130.909L198.45 128.985Z" fill="#200100"/>
<path d="M197.403 112.248C197.5 110.548 196.629 109.12 195.457 109.057C194.286 108.994 193.257 110.321 193.159 112.02C193.062 113.72 193.932 115.149 195.104 115.212C196.276 115.275 197.305 113.948 197.403 112.248Z" fill="#200100"/>
<path d="M221.665 112.703C221.762 111.004 220.891 109.575 219.72 109.512C218.548 109.449 217.519 110.776 217.421 112.476C217.324 114.175 218.195 115.604 219.366 115.667C220.538 115.73 221.567 114.403 221.665 112.703Z" fill="#200100"/>
<path d="M244.347 120.276C243.347 119.29 242.222 118.431 240.997 117.719C240.474 117.458 239.893 117.324 239.305 117.329C238.64 117.285 237.907 117.418 236.998 117.461C237.428 116.686 238.138 116.09 238.991 115.787C239.457 115.609 239.956 115.527 240.456 115.547C240.956 115.567 241.446 115.688 241.895 115.903C242.746 116.317 243.436 116.985 243.865 117.807C244.289 118.561 244.457 119.424 244.347 120.276ZM172.375 116.413C172.363 115.555 172.629 114.715 173.137 114.011C173.657 113.239 174.42 112.649 175.313 112.328C175.784 112.163 176.285 112.096 176.784 112.129C177.283 112.163 177.77 112.297 178.212 112.523C179.025 112.917 179.662 113.585 180.002 114.4C179.103 114.261 178.389 114.05 177.724 114.023C177.14 113.955 176.547 114.026 175.997 114.229C174.699 114.806 173.482 115.54 172.375 116.413ZM187.457 90.585C196.51 90.7079 195.055 84.2007 196.203 78.9062C196.203 78.9062 201.585 90.9196 212.279 79.7692C214.714 77.2302 213.348 96.3936 225.825 83.02C227.757 80.9492 229.34 86.7317 231.794 91.3366C233.266 94.0996 235.051 96.4386 237.413 96.4031L237.223 113.538C237.223 113.538 262.624 71.6784 207.855 63.1695C201.952 62.3782 195.937 63.2313 190.517 65.6285C163.37 79.1471 172.139 104.835 182.163 116.017C182.163 116.017 177.262 90.4467 187.457 90.585Z" fill="#200100"/>
<path d="M205.603 65.0461L201.245 59.1827C201.245 59.1827 190.855 60.2593 196.887 56.588C202.919 52.9167 204.063 55.8837 204.001 56.9699L205.603 65.0461Z" fill="#200100"/>
<path d="M296.686 349.756L301.096 381.435C301.325 383.15 301.152 384.894 300.59 386.536C300.028 388.178 299.092 389.677 297.85 390.922L284.773 404.344C284.405 404.71 283.959 404.994 283.466 405.177C282.974 405.36 282.446 405.438 281.919 405.405C281.031 405.4 280.18 405.056 279.554 404.446C278.928 403.837 278.576 403.013 278.577 402.154C278.677 400.52 279.383 398.975 280.565 397.803L290.585 387.693C290.585 387.693 290.139 373.145 289.744 375.303L284.468 382.026C284.202 382.339 283.865 382.589 283.482 382.755C283.1 382.92 282.682 382.998 282.263 382.981C281.844 382.965 281.435 382.854 281.068 382.659C280.7 382.463 280.385 382.188 280.147 381.854C279.87 381.456 279.745 380.977 279.793 380.5C280.019 378.744 280.678 377.067 281.716 375.61L283.198 373.514C283.198 373.514 281.051 357.183 285.367 349.174L296.686 349.756Z" fill="#B86A4B"/>
<path d="M289.699 245.166L298.626 364.738L283.484 358.149L264.188 255.959L289.699 245.166Z" fill="#B86A4B"/>
<path d="M252.069 292.676L250.075 293.258L250.376 294.222L252.37 293.64L252.069 292.676Z" fill="#200100"/>
<path d="M259.268 322.589L258.633 320.563L260.627 319.98L261.262 322.007L259.268 322.589ZM257.999 318.538L257.364 316.514L259.358 315.927L259.992 317.952L257.999 318.538ZM256.727 314.485L256.092 312.459L258.086 311.876L258.721 313.903L256.727 314.485ZM255.458 310.432L254.823 308.406L256.817 307.824L257.451 309.85L255.458 310.432ZM254.188 306.38L253.553 304.353L255.547 303.771L256.182 305.797L254.188 306.38ZM252.917 302.329L252.282 300.302L254.275 299.72L254.91 301.746L252.917 302.329ZM251.647 298.276L251.012 296.249L253.006 295.667L253.641 297.693L251.647 298.276Z" fill="#200100"/>
<path d="M261.895 324.032L259.902 324.618L260.205 325.582L262.198 324.995L261.895 324.032Z" fill="#200100"/>
<path d="M291.826 264.289L286.775 200.486C286.352 195.158 284.626 190.004 281.739 185.447C278.852 180.891 274.887 177.063 270.17 174.279C264.639 171 258.641 168.523 252.367 166.926C242.639 164.694 232.673 163.577 222.675 163.598C222.675 163.598 212.175 191.642 197.175 163.598L176.478 170.342C170.529 172.281 165.056 175.383 160.4 179.455C155.744 183.528 152.005 188.483 149.415 194.014L127.049 229.6V271.574L174.952 230.541L193.175 269.971H248.175L260.324 229.6L264.75 264.29L291.826 264.289Z" fill="#DF382B"/>
<path d="M163.677 208.565C166.198 211.875 168.398 215.403 170.248 219.105C172.182 222.767 173.757 226.595 174.954 230.541C172.429 227.233 170.229 223.704 168.383 220C166.453 216.337 164.878 212.509 163.677 208.565ZM260.326 229.599C261.085 224.71 262.232 219.884 263.755 215.164C265.189 210.418 267.002 205.787 269.177 201.312C268.423 206.202 267.276 211.029 265.748 215.748C264.311 220.492 262.498 225.123 260.326 229.599Z" fill="#B7251D"/>
<path d="M119.796 154.96L104.195 164.776L98.9591 256.959C98.7402 260.203 99.4899 263.439 101.119 266.282C102.748 269.125 105.188 271.455 108.148 272.995C111.108 274.535 114.463 275.22 117.814 274.968C121.165 274.716 124.371 273.538 127.049 271.574C133.257 258.073 135.209 243.102 132.661 228.533L119.796 154.96Z" fill="#B86A4B"/>
<path d="M121.359 171.288C121.359 171.288 125.467 165.473 123.334 150.077C121.2 134.681 117.823 122.785 116.726 133.684L116.032 142.002C116.032 142.002 109.136 131.443 105.597 124.804C104.688 123.029 103.212 121.583 101.389 120.68C99.5657 119.776 97.4905 119.463 95.4692 119.786C91.6948 120.471 89.9257 122.908 92.4607 131.299C96.2522 143.848 102.255 163.117 104.128 165.951C104.778 166.933 121.359 171.288 121.359 171.288Z" fill="#B86A4B"/>
<path d="M119.667 148.699C118.821 147.725 118.093 146.66 117.497 145.526C116.893 144.4 116.402 143.22 116.032 142.002C116.987 142.896 117.777 143.94 118.371 145.089C118.985 146.224 119.422 147.44 119.667 148.699Z" fill="#160B07"/>
<path d="M263.452 643.274L272.4 447.599L273.165 331.49C278.766 340.867 274.566 317.579 264.748 296.319C260.453 286.657 254.697 277.666 247.669 269.64H192.669L177.513 295.881C167.035 314.02 160.007 333.829 156.762 354.368L118.36 625.557L115.216 643.273L84.2715 665.394C84.2715 665.394 120.646 678.086 139.021 659.23L135.271 642.549L216.607 334.915H219.579L243.396 642.549L239.646 659.23C258.021 678.086 294.396 665.394 294.396 665.394L263.452 643.274Z" fill="#B86A4B"/>
<path d="M306.399 677.724C306.399 677.724 265.524 678.466 255.774 669.573V677.739H237.774C237.774 677.739 232.119 648.628 241.697 650.121C251.274 651.614 285.367 676.785 286.133 659.485L299.508 666.143C301.584 667.176 303.325 668.742 304.54 670.669C305.756 672.597 306.399 674.81 306.399 677.068V677.724Z" fill="#DF382B"/>
<path d="M192.899 269.641L177.742 295.881C167.264 314.02 160.236 333.829 156.991 354.368L142.248 447.553L274.96 447.599L278.115 364.136C279.148 340.857 274.654 317.658 264.977 296.319C260.682 286.658 254.926 277.666 247.898 269.641L192.899 269.641Z" fill="#4285F4"/>
<path d="M72.2729 677.724C72.2729 677.724 113.148 678.466 122.898 669.573V677.739H140.898C140.898 677.739 146.553 648.628 136.975 650.121C127.398 651.614 93.3051 676.785 92.539 659.485L79.1642 666.143C77.0886 667.176 75.3474 668.742 74.1317 670.669C72.9161 672.597 72.2729 674.81 72.2729 677.068V677.724Z" fill="#DF382B"/>
<path d="M578.647 143.042C577.316 143.765 575.869 144.27 574.367 144.535C572.867 144.824 571.336 144.936 569.807 144.868C568.261 144.773 566.737 144.46 565.284 143.937C563.831 143.401 562.53 142.537 561.491 141.418C562.884 141.827 564.298 142.163 565.728 142.425C567.128 142.621 568.515 142.786 569.927 142.858C572.759 143.017 575.601 142.943 578.647 143.042ZM574.239 107.56C575.104 108.791 575.781 110.136 576.248 111.555C576.76 112.987 577.048 114.485 577.102 115.999C577.121 116.829 576.996 117.656 576.731 118.445C576.571 118.927 576.288 119.361 575.908 119.708C575.527 120.055 575.062 120.303 574.556 120.429C573.661 120.561 572.747 120.384 571.975 119.927C571.286 119.558 570.661 119.087 570.122 118.533C571.395 118.998 572.772 119.13 574.115 118.916C574.844 118.601 575.067 117.353 575.02 116.021C574.976 114.642 574.858 113.265 574.668 111.898C574.496 110.487 574.312 109.059 574.239 107.56ZM595.945 99.8022C595.945 99.8022 589.127 92.4784 580.839 98.2513L595.945 99.8022ZM568.093 98.4461C568.093 98.4461 560.978 91.392 552.936 97.481L568.093 98.4461Z" fill="#200100"/>
<path d="M585.719 111.902C586.892 111.876 587.811 110.475 587.771 108.773C587.731 107.071 586.747 105.713 585.574 105.739C584.401 105.764 583.482 107.165 583.522 108.867C583.562 110.569 584.546 111.928 585.719 111.902Z" fill="#200100"/>
<path d="M561.455 111.589C562.628 111.564 563.547 110.163 563.507 108.461C563.466 106.759 562.483 105.4 561.31 105.426C560.136 105.452 559.218 106.853 559.258 108.555C559.298 110.257 560.281 111.615 561.455 111.589Z" fill="#200100"/>
<path d="M586.836 42.347C586.422 42.3466 586.01 42.2917 585.611 42.1838C584.666 41.821 583.806 41.2755 583.086 40.5807C582.366 39.8859 581.8 39.0563 581.422 38.1428C581.321 37.8953 581.325 37.6192 581.434 37.3746C581.542 37.1301 581.746 36.937 582.002 36.8375C582.257 36.738 582.542 36.7402 582.796 36.8435C583.05 36.9469 583.251 37.1431 583.355 37.3893C583.365 37.4129 584.374 39.764 586.179 40.246C586.728 40.3406 587.293 40.3108 587.828 40.1589C588.364 40.007 588.856 39.7371 589.265 39.3705C589.486 39.2098 589.764 39.1405 590.037 39.1777C590.311 39.215 590.558 39.3558 590.724 39.5692C590.89 39.7827 590.962 40.0512 590.923 40.3157C590.885 40.5803 590.739 40.8192 590.519 40.9799C589.479 41.8134 588.185 42.2937 586.836 42.347ZM619.435 59.6858C617.746 59.5805 616.133 58.9715 614.817 57.9427C614.604 57.7723 614.47 57.5272 614.444 57.2611C614.418 56.9951 614.502 56.73 614.678 56.5242C614.854 56.3183 615.108 56.1886 615.383 56.1635C615.658 56.1384 615.932 56.22 616.145 56.3904C617.231 57.2659 618.625 57.7021 620.035 57.6082C620.566 57.4395 621.048 57.1538 621.445 56.7738C621.842 56.3938 622.142 55.9298 622.322 55.4184C622.379 55.2983 622.46 55.1902 622.561 55.1004C622.661 55.0106 622.779 54.9407 622.907 54.8949C623.035 54.849 623.172 54.8281 623.308 54.8332C623.445 54.8383 623.579 54.8694 623.703 54.9247C623.828 54.98 623.939 55.0584 624.032 55.1554C624.125 55.2525 624.197 55.3663 624.245 55.4903C624.292 55.6144 624.314 55.7463 624.309 55.8784C624.303 56.0106 624.271 56.1404 624.214 56.2606C623.91 57.0596 623.414 57.777 622.766 58.3532C622.118 58.9294 621.338 59.3478 620.489 59.5737C620.143 59.6494 619.79 59.687 619.435 59.6858ZM599.617 69.5583C597.929 69.4532 596.316 68.8441 595.001 67.8151C594.788 67.6446 594.655 67.3997 594.63 67.1341C594.604 66.8685 594.689 66.604 594.865 66.3987C595.04 66.1933 595.294 66.0639 595.568 66.0388C595.843 66.0137 596.116 66.095 596.329 66.2648C597.418 67.1334 598.808 67.5682 600.217 67.4807C600.748 67.312 601.23 67.0263 601.627 66.6463C602.024 66.2663 602.324 65.8023 602.504 65.291C602.619 65.0483 602.83 64.86 603.089 64.7674C603.348 64.6748 603.634 64.6855 603.885 64.7972C604.136 64.9088 604.331 65.1123 604.427 65.3629C604.522 65.6134 604.511 65.8904 604.396 66.1331C604.093 66.9323 603.596 67.6498 602.948 68.2261C602.3 68.8024 601.52 69.2207 600.671 69.4462C600.325 69.5219 599.971 69.5595 599.617 69.5583ZM571.288 78.5081C569.6 78.403 567.987 77.794 566.672 76.765L568.001 75.2147C569.087 76.0882 570.479 76.523 571.889 76.4286C572.419 76.2602 572.902 75.9746 573.299 75.5946C573.696 75.2145 573.996 74.7504 574.175 74.2388L576.067 75.0809C575.764 75.8802 575.268 76.5979 574.62 77.1744C573.972 77.751 573.191 78.1698 572.342 78.396C571.996 78.4708 571.643 78.5084 571.288 78.5081ZM611.244 89.2993C610.788 89.2997 610.335 89.2333 609.899 89.1025C608.964 88.7149 608.12 88.1469 607.419 87.4331C606.719 86.7193 606.176 85.8749 605.824 84.9513C605.776 84.8273 605.754 84.6954 605.759 84.5632C605.764 84.431 605.796 84.301 605.853 84.1807C605.91 84.0604 605.991 83.9521 606.091 83.862C606.192 83.772 606.309 83.7019 606.438 83.6558C606.566 83.6096 606.702 83.5884 606.839 83.5933C606.976 83.5981 607.11 83.629 607.234 83.684C607.359 83.7391 607.471 83.8174 607.564 83.9143C607.657 84.0112 607.73 84.1249 607.777 84.2489C607.785 84.2725 608.729 86.6492 610.52 87.1784C611.067 87.2917 611.633 87.279 612.174 87.1413C612.715 87.0035 613.214 86.7446 613.633 86.3856C613.744 86.3084 613.87 86.2534 614.004 86.2236C614.138 86.1938 614.276 86.1898 614.412 86.2119C614.547 86.234 614.676 86.2817 614.793 86.3522C614.909 86.4228 615.009 86.5149 615.089 86.6232C615.168 86.7315 615.224 86.8538 615.255 86.9832C615.285 87.1126 615.288 87.2466 615.265 87.3773C615.242 87.508 615.192 87.633 615.118 87.7451C615.045 87.8571 614.949 87.9541 614.837 88.0303C613.806 88.8057 612.549 89.2494 611.244 89.2993ZM559.665 36.5018C559.21 36.5012 558.757 36.4349 558.322 36.3051C557.387 35.9175 556.543 35.3494 555.842 34.6357C555.142 33.9219 554.599 33.0774 554.247 32.1539C554.151 31.9034 554.162 31.6262 554.277 31.3832C554.392 31.1403 554.602 30.9515 554.861 30.8583C555.12 30.7652 555.406 30.7754 555.658 30.8866C555.909 30.9978 556.104 31.201 556.201 31.4515C556.209 31.4751 557.153 33.8517 558.943 34.381C559.489 34.4904 560.054 34.4758 560.594 34.3382C561.133 34.2006 561.632 33.9439 562.052 33.5881C562.163 33.5093 562.289 33.4526 562.424 33.4214C562.558 33.3901 562.697 33.385 562.833 33.4062C562.969 33.4275 563.1 33.4747 563.217 33.5451C563.334 33.6155 563.436 33.7077 563.516 33.8163C563.596 33.925 563.653 34.048 563.683 34.1781C563.714 34.3082 563.717 34.4429 563.693 34.5743C563.67 34.7057 563.619 34.8313 563.545 34.9436C563.47 35.056 563.374 35.153 563.26 35.2289C562.229 36.0068 560.972 36.452 559.665 36.5018ZM530.165 64.0632C529.709 64.0636 529.256 63.9973 528.82 63.8665C527.885 63.4783 527.042 62.91 526.342 62.1963C525.641 61.4826 525.099 60.6384 524.747 59.7153C524.652 59.4651 524.664 59.1889 524.779 58.947C524.894 58.7051 525.104 58.5172 525.362 58.4243C525.62 58.3315 525.906 58.3413 526.157 58.4516C526.407 58.5618 526.603 58.7637 526.7 59.0129C526.708 59.0365 527.652 61.4131 529.441 61.9423C529.987 62.0538 530.554 62.0402 531.094 61.9025C531.635 61.7649 532.134 61.507 532.553 61.1495C532.665 61.0729 532.791 61.0183 532.925 60.9889C533.058 60.9595 533.196 60.9558 533.331 60.9781C533.466 61.0003 533.595 61.0481 533.711 61.1186C533.827 61.1891 533.928 61.281 534.007 61.3891C534.086 61.4971 534.142 61.6192 534.172 61.7483C534.203 61.8774 534.207 62.011 534.183 62.1415C534.16 62.272 534.111 62.3968 534.038 62.5088C533.965 62.6208 533.87 62.7178 533.758 62.7943C532.727 63.5696 531.47 64.0134 530.165 64.0632ZM527.146 92.3547C526.69 92.355 526.236 92.2887 525.801 92.1579C524.866 91.7697 524.023 91.2015 523.323 90.4878C522.622 89.774 522.08 88.9299 521.728 88.0067C521.632 87.7562 521.642 87.479 521.757 87.2361C521.872 86.9931 522.082 86.8043 522.341 86.7111C522.6 86.618 522.887 86.6282 523.138 86.7394C523.389 86.8507 523.585 87.0539 523.681 87.3043C523.689 87.3279 524.633 89.7046 526.422 90.2338C526.968 90.346 527.535 90.3327 528.075 90.195C528.616 90.0573 529.116 89.799 529.534 89.4409C529.646 89.3645 529.772 89.31 529.906 89.2807C530.039 89.2514 530.177 89.2477 530.312 89.27C530.447 89.2923 530.576 89.3401 530.692 89.4106C530.808 89.4811 530.908 89.573 530.987 89.681C531.066 89.789 531.122 89.911 531.153 90.04C531.183 90.169 531.187 90.3026 531.164 90.433C531.141 90.5635 531.091 90.6883 531.018 90.8002C530.945 90.9122 530.85 91.0092 530.739 91.0857C529.707 91.8611 528.451 92.3048 527.146 92.3547ZM554.247 57.1419C552.375 56.9857 550.624 56.1833 549.314 54.8814C549.122 54.6891 549.017 54.431 549.022 54.1639C549.027 53.8968 549.141 53.6425 549.34 53.457C549.539 53.2715 549.806 53.17 550.082 53.1748C550.358 53.1796 550.621 53.2903 550.813 53.4826C551.801 54.4546 553.129 55.0354 554.536 55.1116C555.083 55.0015 555.597 54.7698 556.035 54.4349C556.474 54.0999 556.826 53.6708 557.063 53.1816C557.206 52.9534 557.437 52.7896 557.705 52.726C557.973 52.6624 558.257 52.7043 558.493 52.8424C558.729 52.9806 558.898 53.2037 558.965 53.4628C559.031 53.7219 558.988 53.9958 558.845 54.2243C558.451 54.9855 557.875 55.6448 557.164 56.1474C556.454 56.6501 555.63 56.9816 554.76 57.1144C554.59 57.1323 554.419 57.1415 554.247 57.1419Z" fill="#560D0D"/>
<path d="M536.329 115.408C536.248 114.553 536.446 113.695 536.895 112.954C537.352 112.146 538.064 111.501 538.928 111.113C539.384 110.913 539.878 110.808 540.379 110.804C540.879 110.8 541.375 110.897 541.834 111.089C542.677 111.42 543.366 112.037 543.77 112.825C542.863 112.754 542.134 112.597 541.469 112.621C540.881 112.598 540.296 112.713 539.764 112.957C538.516 113.63 537.362 114.453 536.329 115.408ZM599.849 92.4994C599.849 92.4994 589.831 90.1066 586.958 74.3012C586.958 74.3012 586.082 93.7286 544.067 91.766L543.678 108.898L533.946 95.6026C533.946 95.6026 543.667 59.8606 576.773 63.4933C582.078 64.2201 587.11 66.2198 591.41 69.3099C596.691 72.9986 601.116 77.7143 604.4 83.1543C607.685 88.5944 609.757 94.6385 610.483 100.899L610.921 104.334C610.921 104.334 603.751 93.2278 598.625 113.116L599.849 92.4994Z" fill="#200100"/>
<path d="M545.44 77.6974C543.751 77.5924 542.138 76.9833 540.823 75.9543C540.611 75.7838 540.478 75.5389 540.452 75.2733C540.427 75.0077 540.511 74.7432 540.687 74.5378C540.863 74.3325 541.116 74.203 541.391 74.1779C541.665 74.1528 541.939 74.2341 542.152 74.404C543.234 75.2845 544.629 75.7208 546.04 75.6199C546.571 75.4515 547.054 75.166 547.451 74.786C547.848 74.406 548.149 73.9418 548.329 73.4301C548.444 73.1875 548.654 72.9992 548.914 72.9066C549.173 72.814 549.459 72.8247 549.71 72.9363C549.961 73.048 550.156 73.2515 550.251 73.502C550.347 73.7526 550.336 74.0296 550.221 74.2722C549.917 75.0715 549.42 75.7892 548.772 76.3654C548.124 76.9417 547.343 77.3599 546.493 77.5854C546.148 77.6611 545.794 77.6987 545.44 77.6974ZM574.366 77.062C572.678 76.9569 571.065 76.3478 569.75 75.3188C569.538 75.1481 569.406 74.9033 569.381 74.6381C569.355 74.3729 569.44 74.1089 569.616 73.9038C569.791 73.6988 570.044 73.5694 570.318 73.544C570.592 73.5187 570.866 73.5994 571.078 73.7685C572.168 74.6363 573.558 75.071 574.966 74.9844C575.497 74.8157 575.98 74.53 576.376 74.15C576.773 73.77 577.073 73.306 577.253 72.7946C577.369 72.552 577.579 72.3637 577.838 72.2711C578.097 72.1785 578.384 72.1892 578.635 72.3009C578.885 72.4125 579.08 72.616 579.176 72.8665C579.272 73.1171 579.261 73.3941 579.145 73.6368C578.842 74.436 578.346 75.1535 577.698 75.7298C577.05 76.3061 576.269 76.7244 575.42 76.9499C575.074 77.0256 574.721 77.0632 574.366 77.062ZM620.594 108.924C618.905 108.819 617.292 108.21 615.976 107.181C615.764 107.01 615.631 106.765 615.606 106.5C615.58 106.235 615.665 105.97 615.84 105.765C616.016 105.56 616.269 105.43 616.543 105.404C616.818 105.379 617.091 105.46 617.304 105.629C618.392 106.501 619.784 106.937 621.194 106.847C621.725 106.678 622.208 106.392 622.604 106.012C623.001 105.632 623.301 105.168 623.481 104.657C623.597 104.414 623.807 104.226 624.066 104.133C624.325 104.041 624.612 104.051 624.863 104.163C625.113 104.275 625.308 104.478 625.404 104.729C625.5 104.979 625.489 105.256 625.373 105.499C625.07 106.298 624.573 107.015 623.925 107.592C623.277 108.168 622.497 108.586 621.648 108.812C621.302 108.888 620.949 108.925 620.594 108.924Z" fill="#560D0D"/>
<path d="M608.333 113.822C607.256 112.914 606.064 112.143 604.786 111.526C604.244 111.305 603.654 111.216 603.067 111.265C602.402 111.27 601.681 111.459 600.778 111.57C601.145 110.765 601.804 110.118 602.63 109.75C603.08 109.538 603.571 109.42 604.071 109.402C604.571 109.384 605.07 109.468 605.534 109.647C606.416 109.996 607.158 110.61 607.652 111.397C608.136 112.117 608.374 112.965 608.333 113.822Z" fill="#200100"/>
<path d="M606.373 104.143C605.885 98.9263 604.908 93.7629 603.454 88.7168C602.089 83.7543 599.979 79.012 597.191 74.641C594.522 70.3998 590.684 66.961 586.108 64.7095C581.489 62.6202 576.369 61.789 571.298 62.3053C566.139 62.756 561.133 64.2431 556.602 66.6716C552.07 69.1002 548.113 72.4166 544.983 76.4087C541.802 80.4738 539.568 85.156 538.434 90.1344C537.313 95.2341 536.99 100.468 537.477 105.66C536.127 100.472 535.769 95.0889 536.422 89.7763C537.137 84.3376 539.161 79.1368 542.33 74.5908C545.552 69.9916 549.792 66.1431 554.743 63.3243C559.693 60.5054 565.23 58.7867 570.952 58.2928C573.838 58.0836 576.739 58.2087 579.594 58.6656C582.489 59.1042 585.29 59.9994 587.886 61.3157C593.007 63.9951 597.206 68.065 599.965 73.0238C602.646 77.7811 604.495 82.9344 605.437 88.2752C606.421 93.5074 606.735 98.8368 606.373 104.143Z" fill="#23893C"/>
<path d="M586.105 123.71C586.915 123.682 587.683 123.352 588.246 122.788C588.809 122.225 589.124 121.471 589.124 120.688C589.124 119.904 588.809 119.151 588.246 118.587C587.683 118.023 586.915 117.693 586.105 117.666C585.295 117.693 584.527 118.023 583.964 118.587C583.401 119.151 583.086 119.904 583.086 120.688C583.086 121.471 583.401 122.225 583.964 122.788C584.527 123.352 585.295 123.682 586.105 123.71ZM559.855 121.776C560.665 121.748 561.433 121.418 561.996 120.854C562.559 120.291 562.874 119.537 562.874 118.754C562.874 117.97 562.559 117.217 561.996 116.653C561.433 116.089 560.665 115.759 559.855 115.732C559.045 115.759 558.277 116.089 557.714 116.653C557.151 117.217 556.836 117.97 556.836 118.754C556.836 119.537 557.151 120.291 557.714 120.854C558.277 121.418 559.045 121.748 559.855 121.776Z" fill="#602922"/>
<path d="M636.808 678.132C636.808 678.132 595.933 678.873 586.183 669.98V678.147H568.183C568.183 678.147 562.528 649.036 572.106 650.529C581.683 652.022 615.776 677.193 616.542 659.893L629.917 666.55C631.992 667.584 633.734 669.15 634.949 671.077C636.165 673.004 636.808 675.218 636.808 677.475V678.132ZM431.85 678.132C431.85 678.132 472.725 678.873 482.475 669.98V678.147H500.475C500.475 678.147 506.129 649.036 496.552 650.529C486.975 652.022 452.882 677.193 452.116 659.893L438.741 666.55C436.665 667.584 434.924 669.15 433.708 671.077C432.493 673.004 431.85 675.218 431.85 677.475V678.132Z" fill="#FABB05"/>
<path d="M589.872 292.915C589.648 292.915 589.431 292.845 589.251 292.717C589.072 292.588 588.94 292.407 588.875 292.2L587.968 289.308C587.926 289.181 587.912 289.048 587.924 288.915C587.937 288.783 587.976 288.654 588.041 288.536C588.105 288.419 588.193 288.315 588.299 288.23C588.405 288.145 588.527 288.082 588.659 288.043C588.79 288.004 588.929 287.991 589.066 288.004C589.202 288.018 589.335 288.057 589.456 288.12C589.577 288.183 589.684 288.269 589.771 288.372C589.858 288.476 589.922 288.594 589.961 288.722L590.869 291.614C590.916 291.765 590.927 291.924 590.899 292.079C590.871 292.234 590.806 292.381 590.709 292.507C590.612 292.634 590.486 292.737 590.341 292.807C590.195 292.878 590.035 292.915 589.872 292.915L589.872 292.915ZM596.525 314.145C596.301 314.145 596.084 314.076 595.904 313.947C595.725 313.818 595.593 313.637 595.528 313.431L593.864 308.123C593.786 307.868 593.815 307.593 593.946 307.359C594.076 307.125 594.297 306.951 594.56 306.873C594.823 306.796 595.107 306.822 595.35 306.947C595.593 307.071 595.775 307.283 595.857 307.536L597.522 312.844C597.569 312.995 597.579 313.154 597.552 313.309C597.524 313.465 597.459 313.611 597.362 313.738C597.265 313.864 597.139 313.967 596.994 314.038C596.848 314.108 596.688 314.145 596.525 314.145H596.525ZM593.198 303.531C592.975 303.531 592.757 303.461 592.578 303.333C592.398 303.204 592.266 303.023 592.201 302.816L590.537 297.508C590.459 297.254 590.489 296.979 590.619 296.745C590.75 296.511 590.97 296.337 591.233 296.259C591.496 296.182 591.78 296.208 592.023 296.332C592.266 296.457 592.449 296.669 592.531 296.922L594.195 302.23C594.243 302.381 594.253 302.54 594.225 302.695C594.198 302.85 594.133 302.997 594.036 303.124C593.939 303.25 593.812 303.353 593.667 303.423C593.522 303.494 593.361 303.531 593.198 303.531L593.198 303.531ZM599.094 322.343C598.871 322.343 598.653 322.274 598.473 322.145C598.294 322.016 598.162 321.834 598.097 321.627L597.192 318.735C597.151 318.608 597.137 318.474 597.149 318.342C597.162 318.209 597.202 318.081 597.266 317.963C597.331 317.846 597.419 317.742 597.525 317.657C597.631 317.573 597.754 317.51 597.885 317.471C598.017 317.433 598.155 317.42 598.292 317.433C598.429 317.447 598.561 317.486 598.682 317.55C598.803 317.613 598.91 317.699 598.996 317.802C599.083 317.906 599.147 318.025 599.186 318.152L600.091 321.045C600.131 321.171 600.144 321.304 600.131 321.436C600.117 321.567 600.077 321.695 600.012 321.812C599.948 321.928 599.86 322.031 599.754 322.115C599.648 322.199 599.526 322.261 599.395 322.3C599.298 322.328 599.196 322.343 599.094 322.343Z" fill="#B7251D"/>
<path d="M615.55 204.613C614.349 208.557 612.773 212.385 610.844 216.049C608.998 219.753 606.798 223.281 604.273 226.589C605.47 222.644 607.045 218.815 608.979 215.154C610.829 211.452 613.029 207.924 615.55 204.613ZM518.901 225.648C516.729 221.172 514.917 216.541 513.479 211.796C511.951 207.077 510.804 202.251 510.05 197.36C512.225 201.835 514.038 206.467 515.472 211.213C516.995 215.933 518.142 220.758 518.901 225.648Z" fill="#23893C"/>
<path d="M582.388 128.55C582.388 128.55 576.594 141.242 564.969 130.726L582.388 128.55Z" fill="#200100"/>
<path d="M774.727 294.799V627.454H728.727L722.727 337.348H710.727L687.727 627.454H641.727L661.727 294.799H774.727Z" fill="#FABB05"/>
<path d="M656.229 173.92C656.658 178.474 656.859 183.027 657.026 187.58C657.217 192.133 657.243 196.686 657.27 201.239C657.246 205.792 657.219 210.345 657.03 214.898L656.739 221.728C656.566 224.004 656.465 226.281 656.229 228.557C655.992 226.281 655.891 224.004 655.718 221.728L655.427 214.898C655.238 210.345 655.211 205.792 655.188 201.239C655.214 196.686 655.24 192.133 655.431 187.58C655.598 183.027 655.799 178.474 656.229 173.92ZM778.229 176.338C778.741 184.594 779.026 192.852 779.276 201.11C779.531 209.369 779.599 217.629 779.769 225.889C779.771 234.149 779.862 242.409 779.78 250.67L779.614 263.063C779.483 267.194 779.423 271.326 779.229 275.458C778.951 271.33 778.808 267.201 778.593 263.073L778.177 250.686C777.928 242.427 777.853 234.168 777.688 225.907C777.692 217.647 777.593 209.387 777.681 201.126C777.764 192.864 777.882 184.602 778.229 176.338Z" fill="#2C66BF"/>
<path d="M677.726 639.058C677.726 639.058 690.226 672.904 679.726 677.739H669.226C669.226 677.739 664.226 664.201 657.226 677.739H593.226C593.226 677.739 589.226 667.102 604.726 662.267C620.226 657.432 646.226 639.058 646.226 639.058H677.726Z" fill="#34A853"/>
<path d="M679.727 627.454L677.727 639.058H646.227V627.454H679.727Z" fill="#F6AE94"/>
<path d="M736.463 639.058C736.463 639.058 723.963 672.904 734.463 677.739H744.963C744.963 677.739 749.963 664.201 756.963 677.739H820.963C820.963 677.739 824.963 667.102 809.463 662.267C793.963 657.432 767.963 639.058 767.963 639.058H736.463Z" fill="#34A853"/>
<path d="M734.463 627.454L736.463 639.058H767.963V627.454H734.463Z" fill="#F6AE94"/>
<path d="M707.833 336.519C711.177 335.808 714.596 335.47 718.02 335.512C721.445 335.466 724.864 335.804 728.208 336.519C724.864 337.234 721.445 337.572 718.02 337.525C714.596 337.567 711.178 337.23 707.833 336.519Z" fill="#EDA606"/>
<path d="M650.095 223.633L656.228 229.523L656.561 250.633C656.561 250.633 638.187 260.329 632.275 244.745L650.095 223.633Z" fill="#8C4D3E"/>
<path d="M541.018 136.897H532.39V119.003H541.018V136.897ZM533.952 135.386H539.456V120.514H533.952V135.386ZM611.703 135.891H603.072V117.998H611.703V135.891ZM604.635 134.38H610.14V119.509H604.635V134.38Z" fill="#FABB05"/>
<path d="M604.631 119.484V117.376H609.876C608.693 119.339 606.837 120.841 604.631 121.622V119.484ZM539.505 122.898V118.963H534.558C535.678 120.795 537.429 122.189 539.505 122.898Z" fill="#8C4D3E"/>
<path d="M188.652 164.511L191.304 170.742C191.933 172.212 192.156 173.815 191.952 175.394C191.747 176.973 191.121 178.474 190.135 179.748C189.727 180.289 189.251 180.779 188.718 181.207C187.948 181.858 187.072 182.382 186.125 182.758L176.76 186.486C176.431 186.62 176.092 186.728 175.745 186.81C175.124 187.004 174.477 187.113 173.825 187.136C171.827 187.287 169.831 186.82 168.125 185.803C166.419 184.786 165.092 183.271 164.334 181.477L161.682 175.246C161.107 173.892 161.111 172.372 161.693 171.02C162.276 169.668 163.389 168.595 164.789 168.037L181.197 161.506C182.598 160.949 184.169 160.953 185.567 161.517C186.965 162.08 188.074 163.157 188.652 164.511Z" fill="#FED4C0"/>
<path d="M190.135 179.748C189.726 180.289 189.25 180.779 188.718 181.207L183.487 169.353C183.392 169.129 183.392 168.878 183.487 168.653C183.583 168.429 183.766 168.25 183.997 168.156C184.227 168.062 184.488 168.059 184.72 168.149C184.953 168.239 185.14 168.414 185.24 168.636L190.135 179.748ZM185.562 182.982L183.801 183.682L178.415 171.512C178.32 171.287 178.321 171.033 178.418 170.808C178.515 170.583 178.7 170.404 178.933 170.311C179.047 170.264 179.169 170.239 179.293 170.237C179.417 170.236 179.54 170.259 179.655 170.304C179.769 170.349 179.874 170.415 179.962 170.499C180.05 170.583 180.12 170.684 180.168 170.794L185.562 182.982ZM180.386 185.042L178.625 185.743L173.38 173.855C173.329 173.745 173.302 173.626 173.3 173.506C173.298 173.386 173.321 173.266 173.368 173.155C173.415 173.043 173.484 172.942 173.572 172.857C173.66 172.772 173.765 172.705 173.88 172.66L173.898 172.653C174.128 172.564 174.386 172.565 174.616 172.655C174.846 172.745 175.031 172.918 175.133 173.137L180.386 185.042ZM175.745 186.81C175.123 187.004 174.477 187.113 173.825 187.135L168.434 174.908C168.334 174.684 168.33 174.431 168.422 174.203C168.515 173.976 168.696 173.794 168.927 173.696C169.043 173.644 169.168 173.617 169.296 173.614C169.423 173.611 169.549 173.633 169.667 173.68C169.785 173.726 169.892 173.795 169.982 173.883C170.071 173.97 170.141 174.075 170.187 174.19L175.745 186.81Z" fill="#200100"/>
<path d="M617.603 172.942L614.906 179.155C614.271 180.623 613.253 181.907 611.951 182.88C610.649 183.853 609.108 184.482 607.479 184.706C606.794 184.807 606.099 184.827 605.41 184.764C604.389 184.695 603.387 184.463 602.445 184.08L593.106 180.289C592.776 180.158 592.457 180.002 592.152 179.822C591.572 179.533 591.036 179.167 590.559 178.735C589.039 177.473 587.974 175.775 587.516 173.889C587.058 172.002 587.232 170.023 588.013 168.239L590.71 162.026C591.297 160.676 592.415 159.606 593.816 159.052C595.218 158.498 596.79 158.505 598.187 159.071L614.547 165.712C615.943 166.28 617.049 167.36 617.622 168.715C618.194 170.071 618.188 171.591 617.603 172.942Z" fill="#FED4C0"/>
<path d="M607.477 184.706C606.793 184.807 606.098 184.827 605.408 184.764L610.408 172.817C610.506 172.594 610.69 172.417 610.922 172.324C611.153 172.232 611.413 172.231 611.645 172.323C611.877 172.415 612.062 172.591 612.161 172.814C612.259 173.036 612.263 173.288 612.171 173.513L607.477 184.706ZM601.881 183.852L600.126 183.139L605.248 170.863C605.346 170.638 605.533 170.46 605.766 170.368C606 170.276 606.261 170.277 606.494 170.371C606.609 170.415 606.714 170.482 606.802 170.566C606.89 170.65 606.96 170.75 607.008 170.86C607.057 170.971 607.081 171.089 607.082 171.209C607.082 171.329 607.058 171.447 607.011 171.558L601.881 183.852ZM596.72 181.757L594.965 181.044L599.98 169.064C600.025 168.952 600.092 168.849 600.179 168.763C600.266 168.677 600.37 168.608 600.484 168.562C600.599 168.515 600.722 168.491 600.846 168.492C600.971 168.492 601.094 168.517 601.208 168.564L601.226 168.571C601.454 168.667 601.634 168.843 601.731 169.065C601.827 169.286 601.831 169.535 601.743 169.759L596.72 181.757ZM592.151 179.822C591.57 179.533 591.034 179.167 590.558 178.736L595.719 166.416C595.813 166.19 595.996 166.008 596.227 165.911C596.459 165.814 596.721 165.81 596.956 165.899C597.075 165.942 597.184 166.009 597.276 166.094C597.367 166.179 597.44 166.282 597.489 166.395C597.539 166.509 597.564 166.631 597.562 166.754C597.561 166.877 597.534 166.999 597.482 167.111L592.151 179.822Z" fill="#200100"/>
<path d="M775.409 129.172L772.712 135.385C772.078 136.853 771.06 138.137 769.758 139.11C768.456 140.083 766.914 140.712 765.285 140.936C764.6 141.037 763.906 141.057 763.216 140.993C762.195 140.924 761.194 140.693 760.251 140.309L750.912 136.519C750.582 136.388 750.263 136.232 749.959 136.052C749.378 135.763 748.842 135.397 748.365 134.965C746.845 133.702 745.78 132.005 745.322 130.119C744.864 128.232 745.039 126.253 745.819 124.469L748.516 118.255C749.104 116.906 750.221 115.836 751.623 115.282C753.024 114.728 754.596 114.735 755.993 115.301L772.353 121.942C773.749 122.509 774.855 123.59 775.428 124.945C776.001 126.301 775.994 127.821 775.409 129.172Z" fill="#8C4D3E"/>
<path d="M765.284 140.936C764.599 141.037 763.904 141.057 763.215 140.994L768.215 129.047C768.312 128.824 768.497 128.647 768.728 128.554C768.96 128.462 769.22 128.461 769.452 128.553C769.683 128.644 769.869 128.821 769.967 129.044C770.065 129.266 770.069 129.518 769.977 129.743L765.284 140.936ZM759.688 140.082L757.932 139.369L763.055 127.093C763.153 126.868 763.339 126.69 763.573 126.598C763.806 126.506 764.068 126.507 764.301 126.6C764.416 126.645 764.52 126.711 764.609 126.795C764.697 126.88 764.767 126.98 764.815 127.09C764.863 127.2 764.888 127.319 764.889 127.439C764.889 127.559 764.865 127.677 764.818 127.788L759.688 140.082ZM754.527 137.987L752.772 137.274L757.786 125.294C757.831 125.181 757.899 125.079 757.986 124.993C758.072 124.907 758.176 124.838 758.291 124.792C758.405 124.745 758.529 124.721 758.653 124.722C758.777 124.722 758.9 124.747 759.015 124.794L759.032 124.801C759.26 124.896 759.441 125.073 759.537 125.294C759.634 125.516 759.638 125.764 759.549 125.989L754.527 137.987ZM749.957 136.052C749.377 135.763 748.841 135.397 748.364 134.965L753.526 122.646C753.62 122.419 753.802 122.238 754.034 122.141C754.265 122.044 754.527 122.04 754.762 122.129C754.881 122.172 754.99 122.238 755.082 122.324C755.174 122.409 755.247 122.512 755.296 122.625C755.345 122.739 755.37 122.861 755.369 122.984C755.368 123.107 755.341 123.229 755.289 123.341L749.957 136.052Z" fill="#200100"/>
<path d="M539.425 157.069L541.931 163.356C542.526 164.839 542.712 166.447 542.47 168.021C542.228 169.595 541.568 171.082 540.553 172.334C540.132 172.866 539.644 173.346 539.102 173.762C538.317 174.396 537.429 174.901 536.474 175.256L527.024 178.779C526.692 178.906 526.35 179.007 526.002 179.081C525.376 179.261 524.727 179.357 524.074 179.365C522.074 179.473 520.089 178.963 518.407 177.909C516.726 176.855 515.434 175.311 514.718 173.501L512.212 167.214C511.668 165.847 511.707 164.328 512.321 162.989C512.935 161.65 514.073 160.602 515.486 160.074L532.041 153.902C533.455 153.377 535.026 153.415 536.41 154.008C537.795 154.602 538.879 155.703 539.425 157.069Z" fill="#F6AE94"/>
<path d="M540.552 172.334C540.131 172.866 539.644 173.346 539.101 173.762L534.148 161.798C534.058 161.571 534.064 161.32 534.164 161.098C534.265 160.876 534.452 160.701 534.685 160.612C534.918 160.522 535.178 160.525 535.409 160.62C535.64 160.715 535.822 160.894 535.917 161.119L540.552 172.334ZM535.904 175.468L534.128 176.13L529.027 163.846C528.937 163.618 528.943 163.365 529.046 163.142C529.148 162.919 529.337 162.744 529.572 162.656C529.687 162.611 529.81 162.589 529.934 162.59C530.058 162.592 530.18 162.617 530.294 162.664C530.408 162.712 530.511 162.78 530.597 162.866C530.683 162.952 530.751 163.054 530.796 163.166L535.904 175.468ZM530.682 177.415L528.906 178.077L523.938 166.078C523.89 165.967 523.866 165.848 523.867 165.727C523.868 165.607 523.893 165.488 523.943 165.378C523.992 165.267 524.064 165.168 524.154 165.085C524.244 165.002 524.35 164.937 524.466 164.894L524.484 164.888C524.717 164.804 524.974 164.81 525.202 164.905C525.43 165 525.611 165.177 525.708 165.398L530.682 177.415ZM526.001 179.081C525.375 179.261 524.726 179.357 524.074 179.365L518.969 167.023C518.875 166.797 518.876 166.544 518.974 166.319C519.071 166.093 519.257 165.915 519.49 165.822C519.607 165.773 519.733 165.748 519.86 165.748C519.988 165.748 520.114 165.773 520.231 165.822C520.348 165.871 520.453 165.942 520.54 166.032C520.628 166.121 520.695 166.227 520.739 166.343L526.001 179.081Z" fill="#200100"/>
<path d="M0 677.739H900" stroke="#020202" stroke-miterlimit="10"/>
</svg>
