<svg width="26" height="28" viewBox="0 0 26 28" fill="none" xmlns="http://www.w3.org/2000/svg">
<g clip-path="url(#clip0)">
<path d="M16.6372 12.6476C17.8138 11.8665 18.7077 10.7273 19.1865 9.39865C19.6653 8.07 19.7036 6.62249 19.2956 5.27039C18.8877 3.9183 18.0553 2.73347 16.9215 1.89132C15.7878 1.04916 14.4131 0.594421 13.0008 0.594421C11.5885 0.594421 10.2137 1.04916 9.07999 1.89132C7.94626 2.73347 7.11383 3.9183 6.7059 5.27039C6.29798 6.62249 6.33625 8.07 6.81505 9.39865C7.29385 10.7273 8.18774 11.8665 9.36438 12.6476C7.26988 13.2797 5.37575 14.4456 3.86797 16.0308C2.36019 17.6161 1.29058 19.5662 0.76416 21.6898V21.6912C0.937493 21.9007 1.11805 22.1043 1.30149 22.3037C1.34483 22.3528 1.39249 22.399 1.43727 22.4481C1.57883 22.5969 1.72183 22.7457 1.86916 22.8901L2.05405 23.0663C2.38842 23.3845 2.73638 23.6881 3.09694 23.9763L3.32083 24.1526C3.46527 24.2638 3.60972 24.3707 3.75705 24.4761C3.8336 24.531 3.90872 24.5859 3.98672 24.6393C4.14127 24.7462 4.30016 24.8488 4.45905 24.9513L4.67427 25.0886C4.85772 25.2027 5.04549 25.311 5.23472 25.4164L5.38349 25.5031C5.6276 25.636 5.8746 25.7631 6.12738 25.8859L6.14616 25.8931C6.38738 26.0087 6.63149 26.117 6.87849 26.221C6.95505 26.2528 7.03305 26.2817 7.1096 26.312C7.29016 26.3842 7.46783 26.4536 7.64983 26.5186L7.94016 26.6168C8.47941 26.8018 9.02929 26.9542 9.58683 27.0732C9.75149 27.1079 9.9176 27.1411 10.0837 27.1729C10.1964 27.1931 10.309 27.2148 10.4232 27.2321C10.595 27.261 10.7684 27.2841 10.9417 27.3058C11.0515 27.3202 11.1598 27.3361 11.271 27.3491C11.4617 27.3693 11.6553 27.3838 11.8488 27.3968C11.9427 27.404 12.0366 27.4141 12.129 27.4184C12.7092 27.4521 13.2908 27.4525 13.871 27.4199C13.9649 27.4156 14.0588 27.4054 14.1513 27.3982C14.3448 27.3838 14.5384 27.3693 14.729 27.3491C14.8403 27.3376 14.9486 27.3217 15.0584 27.3072C15.3455 27.27 15.6316 27.2252 15.9164 27.1729C16.3618 27.0921 16.8033 26.9909 17.2395 26.8696L17.5602 26.7771C17.7277 26.7266 17.8938 26.6731 18.0599 26.6182C18.1567 26.585 18.2549 26.5532 18.3503 26.5186C18.5323 26.4536 18.7114 26.3842 18.889 26.3134L19.1216 26.221C19.3672 26.1199 19.6113 26.0101 19.851 25.896L19.8727 25.8859C20.124 25.7646 20.3725 25.636 20.6166 25.5031L20.7654 25.4164C20.9546 25.311 21.1424 25.2027 21.3258 25.0886C21.398 25.0452 21.4703 24.9976 21.541 24.9513C21.6999 24.8502 21.8588 24.7462 22.0148 24.6393L22.243 24.4761C22.69 24.1552 23.1205 23.8119 23.5329 23.4477C23.673 23.3234 23.8103 23.1949 23.946 23.0663C24.157 22.8661 24.3622 22.66 24.5614 22.4481L24.6986 22.3037C24.882 22.1043 25.0626 21.9007 25.2345 21.6927C24.7089 19.5689 23.64 17.6183 22.1327 16.0325C20.6254 14.4467 18.7315 13.2802 16.6372 12.6476V12.6476Z" fill="#C6C3BD"/>
</g>
<defs>
<clipPath id="clip0">
<rect width="26" height="27.4444" fill="white"/>
</clipPath>
</defs>
</svg>
