<svg width="444" height="444" viewBox="0 0 444 444" fill="none" xmlns="http://www.w3.org/2000/svg">
<circle cx="222" cy="222" r="222" fill="url(#paint0_radial)"/>
<g filter="url(#filter0_i)">
<circle cx="135" cy="177" r="63" fill="white"/>
</g>
<g filter="url(#filter1_i)">
<circle cx="298" cy="177" r="63" fill="white"/>
</g>
<circle cx="135" cy="192" r="45" fill="black"/>
<circle cx="298" cy="192" r="45" fill="black"/>
<circle r="18" transform="matrix(1 0 0 -1 146 184)" fill="white"/>
<circle r="18" transform="matrix(1 0 0 -1 309 184)" fill="white"/>
<g filter="url(#filter2_i)">
<path d="M72 282.811C72 278.979 75.1989 276 79.0307 276C79.0307 276 183.5 286.5 222 286.5C260.5 286.5 364.969 276 364.969 276C368.801 276 372 278.979 372 282.811C372 352.399 304.843 408.811 222 408.811C139.157 408.811 72 352.399 72 282.811Z" fill="url(#paint1_linear)"/>
</g>
<path d="M117 372C142.5 393 172.706 408.811 222 408.811C271.294 408.811 284 403 322.5 376.5C322.5 376.5 269.935 334 222 334C174.065 334 117 372 117 372Z" fill="url(#paint2_linear)"/>
<defs>
<filter id="filter0_i" x="72" y="114" width="127" height="128" filterUnits="userSpaceOnUse" color-interpolation-filters="sRGB">
<feFlood flood-opacity="0" result="BackgroundImageFix"/>
<feBlend mode="normal" in="SourceGraphic" in2="BackgroundImageFix" result="shape"/>
<feColorMatrix in="SourceAlpha" type="matrix" values="0 0 0 0 0 0 0 0 0 0 0 0 0 0 0 0 0 0 127 0" result="hardAlpha"/>
<feOffset dx="1" dy="2"/>
<feGaussianBlur stdDeviation="6.5"/>
<feComposite in2="hardAlpha" operator="arithmetic" k2="-1" k3="1"/>
<feColorMatrix type="matrix" values="0 0 0 0 0.203922 0 0 0 0 0.337255 0 0 0 0 0.345098 0 0 0 0.25 0"/>
<feBlend mode="normal" in2="shape" result="effect1_innerShadow"/>
</filter>
<filter id="filter1_i" x="235" y="114" width="127" height="128" filterUnits="userSpaceOnUse" color-interpolation-filters="sRGB">
<feFlood flood-opacity="0" result="BackgroundImageFix"/>
<feBlend mode="normal" in="SourceGraphic" in2="BackgroundImageFix" result="shape"/>
<feColorMatrix in="SourceAlpha" type="matrix" values="0 0 0 0 0 0 0 0 0 0 0 0 0 0 0 0 0 0 127 0" result="hardAlpha"/>
<feOffset dx="1" dy="2"/>
<feGaussianBlur stdDeviation="6.5"/>
<feComposite in2="hardAlpha" operator="arithmetic" k2="-1" k3="1"/>
<feColorMatrix type="matrix" values="0 0 0 0 0.203922 0 0 0 0 0.337255 0 0 0 0 0.345098 0 0 0 0.25 0"/>
<feBlend mode="normal" in2="shape" result="effect1_innerShadow"/>
</filter>
<filter id="filter2_i" x="72" y="276" width="301" height="134.811" filterUnits="userSpaceOnUse" color-interpolation-filters="sRGB">
<feFlood flood-opacity="0" result="BackgroundImageFix"/>
<feBlend mode="normal" in="SourceGraphic" in2="BackgroundImageFix" result="shape"/>
<feColorMatrix in="SourceAlpha" type="matrix" values="0 0 0 0 0 0 0 0 0 0 0 0 0 0 0 0 0 0 127 0" result="hardAlpha"/>
<feOffset dx="1" dy="2"/>
<feGaussianBlur stdDeviation="6.5"/>
<feComposite in2="hardAlpha" operator="arithmetic" k2="-1" k3="1"/>
<feColorMatrix type="matrix" values="0 0 0 0 0.203922 0 0 0 0 0.337255 0 0 0 0 0.345098 0 0 0 0.25 0"/>
<feBlend mode="normal" in2="shape" result="effect1_innerShadow"/>
</filter>
<radialGradient id="paint0_radial" cx="0" cy="0" r="1" gradientUnits="userSpaceOnUse" gradientTransform="translate(153.5 107) rotate(63.6835) scale(515.419)">
<stop stop-color="#FFE7A2"/>
<stop offset="0.158893" stop-color="#FED45A"/>
<stop offset="0.560219" stop-color="#FABB05"/>
<stop offset="1" stop-color="#D9A100"/>
</radialGradient>
<linearGradient id="paint1_linear" x1="222" y1="399.5" x2="238.195" y2="287.688" gradientUnits="userSpaceOnUse">
<stop stop-color="#860101"/>
<stop offset="1" stop-color="#BC4343"/>
</linearGradient>
<linearGradient id="paint2_linear" x1="222" y1="399.5" x2="222" y2="326" gradientUnits="userSpaceOnUse">
<stop stop-color="#FF003B"/>
<stop offset="1" stop-color="#690A0A"/>
</linearGradient>
</defs>
</svg>
