<svg width="444" height="444" viewBox="0 0 444 444" fill="none" xmlns="http://www.w3.org/2000/svg">
<circle cx="222" cy="222" r="222" fill="url(#paint0_radial)"/>
<g filter="url(#filter0_i)">
<circle cx="135" cy="177" r="63" fill="white"/>
</g>
<g filter="url(#filter1_i)">
<circle cx="298" cy="177" r="63" fill="white"/>
</g>
<circle cx="135" cy="192" r="45" fill="black"/>
<circle cx="298" cy="192" r="45" fill="black"/>
<circle r="18" transform="matrix(1 0 0 -1 146 184)" fill="white"/>
<circle r="18" transform="matrix(1 0 0 -1 309 184)" fill="white"/>
<g filter="url(#filter2_i)">
<path fill-rule="evenodd" clip-rule="evenodd" d="M225 281.017C225.289 281.015 225.579 281.014 225.869 281.014C225.872 281.014 225.874 281.017 225.874 281.019C225.874 281.022 225.876 281.024 225.879 281.024C281.415 281.647 313.582 311.821 327.465 335.516C331.374 342.187 327.552 350.24 320.267 352.832C312.982 355.423 304.905 351.573 300.493 345.224C289.486 329.385 265.907 309.3 225 309.017C184.092 309.3 160.513 329.385 149.507 345.224C145.094 351.573 137.017 355.423 129.733 352.832C122.448 350.24 118.625 342.187 122.534 335.516C136.417 311.821 168.585 281.647 224.121 281.024C224.123 281.024 224.126 281.022 224.126 281.019C224.126 281.017 224.128 281.014 224.131 281.014C224.421 281.014 224.711 281.015 225 281.017Z" fill="url(#paint1_linear)"/>
</g>
<defs>
<filter id="filter0_i" x="72" y="114" width="127" height="128" filterUnits="userSpaceOnUse" color-interpolation-filters="sRGB">
<feFlood flood-opacity="0" result="BackgroundImageFix"/>
<feBlend mode="normal" in="SourceGraphic" in2="BackgroundImageFix" result="shape"/>
<feColorMatrix in="SourceAlpha" type="matrix" values="0 0 0 0 0 0 0 0 0 0 0 0 0 0 0 0 0 0 127 0" result="hardAlpha"/>
<feOffset dx="1" dy="2"/>
<feGaussianBlur stdDeviation="6.5"/>
<feComposite in2="hardAlpha" operator="arithmetic" k2="-1" k3="1"/>
<feColorMatrix type="matrix" values="0 0 0 0 0.203922 0 0 0 0 0.337255 0 0 0 0 0.345098 0 0 0 0.25 0"/>
<feBlend mode="normal" in2="shape" result="effect1_innerShadow"/>
</filter>
<filter id="filter1_i" x="235" y="114" width="127" height="128" filterUnits="userSpaceOnUse" color-interpolation-filters="sRGB">
<feFlood flood-opacity="0" result="BackgroundImageFix"/>
<feBlend mode="normal" in="SourceGraphic" in2="BackgroundImageFix" result="shape"/>
<feColorMatrix in="SourceAlpha" type="matrix" values="0 0 0 0 0 0 0 0 0 0 0 0 0 0 0 0 0 0 127 0" result="hardAlpha"/>
<feOffset dx="1" dy="2"/>
<feGaussianBlur stdDeviation="6.5"/>
<feComposite in2="hardAlpha" operator="arithmetic" k2="-1" k3="1"/>
<feColorMatrix type="matrix" values="0 0 0 0 0.203922 0 0 0 0 0.337255 0 0 0 0 0.345098 0 0 0 0.25 0"/>
<feBlend mode="normal" in2="shape" result="effect1_innerShadow"/>
</filter>
<filter id="filter2_i" x="120.975" y="281.014" width="209.05" height="74.6348" filterUnits="userSpaceOnUse" color-interpolation-filters="sRGB">
<feFlood flood-opacity="0" result="BackgroundImageFix"/>
<feBlend mode="normal" in="SourceGraphic" in2="BackgroundImageFix" result="shape"/>
<feColorMatrix in="SourceAlpha" type="matrix" values="0 0 0 0 0 0 0 0 0 0 0 0 0 0 0 0 0 0 127 0" result="hardAlpha"/>
<feOffset dx="1" dy="2"/>
<feGaussianBlur stdDeviation="6.5"/>
<feComposite in2="hardAlpha" operator="arithmetic" k2="-1" k3="1"/>
<feColorMatrix type="matrix" values="0 0 0 0 0.203922 0 0 0 0 0.337255 0 0 0 0 0.345098 0 0 0 0.25 0"/>
<feBlend mode="normal" in2="shape" result="effect1_innerShadow"/>
</filter>
<radialGradient id="paint0_radial" cx="0" cy="0" r="1" gradientUnits="userSpaceOnUse" gradientTransform="translate(153.5 107) rotate(63.6835) scale(515.419)">
<stop stop-color="#FFE7A2"/>
<stop offset="0.158893" stop-color="#FED45A"/>
<stop offset="0.560219" stop-color="#FABB05"/>
<stop offset="1" stop-color="#D9A100"/>
</radialGradient>
<linearGradient id="paint1_linear" x1="225" y1="280.997" x2="225" y2="395.564" gradientUnits="userSpaceOnUse">
<stop stop-color="#28292B"/>
<stop offset="1" stop-color="#5C6369"/>
</linearGradient>
</defs>
</svg>
