<svg width="444" height="444" viewBox="0 0 444 444" fill="none" xmlns="http://www.w3.org/2000/svg">
<circle cx="222" cy="222" r="222" fill="url(#paint0_radial)"/>
<g filter="url(#filter0_i)">
<circle cx="135" cy="177" r="63" fill="white"/>
</g>
<g filter="url(#filter1_i)">
<circle cx="298" cy="177" r="63" fill="white"/>
</g>
<circle cx="135" cy="192" r="45" fill="black"/>
<circle cx="298" cy="192" r="45" fill="black"/>
<circle r="18" transform="matrix(1 0 0 -1 146 184)" fill="white"/>
<circle r="18" transform="matrix(1 0 0 -1 309 184)" fill="white"/>
<g filter="url(#filter2_i)">
<path fill-rule="evenodd" clip-rule="evenodd" d="M222.297 246.09C222.587 246.088 222.877 246.087 223.168 246.087C223.171 246.087 223.173 246.09 223.173 246.092C223.173 246.095 223.176 246.097 223.178 246.097C278.878 246.722 311.129 276.996 325.036 300.752C328.943 307.424 325.12 315.478 317.835 318.069C310.551 320.661 302.474 316.81 298.066 310.458C287.034 294.558 263.371 274.374 222.297 274.09C181.223 274.374 157.56 294.558 146.528 310.458C142.12 316.81 134.044 320.661 126.759 318.069C119.474 315.478 115.652 307.424 119.558 300.752C133.466 276.996 165.716 246.722 221.416 246.097C221.419 246.097 221.421 246.095 221.421 246.092C221.421 246.09 221.423 246.087 221.426 246.087C221.717 246.087 222.007 246.088 222.297 246.09Z" fill="url(#paint1_linear)"/>
</g>
<rect width="30" height="114.829" rx="15" transform="matrix(0.620616 0.784115 0.784115 -0.620616 221.876 145)" fill="url(#paint2_linear)"/>
<rect x="99" y="98" width="30" height="114.829" rx="15" transform="rotate(-51.6389 99 98)" fill="url(#paint3_linear)"/>
<defs>
<filter id="filter0_i" x="72" y="114" width="127" height="128" filterUnits="userSpaceOnUse" color-interpolation-filters="sRGB">
<feFlood flood-opacity="0" result="BackgroundImageFix"/>
<feBlend mode="normal" in="SourceGraphic" in2="BackgroundImageFix" result="shape"/>
<feColorMatrix in="SourceAlpha" type="matrix" values="0 0 0 0 0 0 0 0 0 0 0 0 0 0 0 0 0 0 127 0" result="hardAlpha"/>
<feOffset dx="1" dy="2"/>
<feGaussianBlur stdDeviation="6.5"/>
<feComposite in2="hardAlpha" operator="arithmetic" k2="-1" k3="1"/>
<feColorMatrix type="matrix" values="0 0 0 0 0.203922 0 0 0 0 0.337255 0 0 0 0 0.345098 0 0 0 0.25 0"/>
<feBlend mode="normal" in2="shape" result="effect1_innerShadow"/>
</filter>
<filter id="filter1_i" x="235" y="114" width="127" height="128" filterUnits="userSpaceOnUse" color-interpolation-filters="sRGB">
<feFlood flood-opacity="0" result="BackgroundImageFix"/>
<feBlend mode="normal" in="SourceGraphic" in2="BackgroundImageFix" result="shape"/>
<feColorMatrix in="SourceAlpha" type="matrix" values="0 0 0 0 0 0 0 0 0 0 0 0 0 0 0 0 0 0 127 0" result="hardAlpha"/>
<feOffset dx="1" dy="2"/>
<feGaussianBlur stdDeviation="6.5"/>
<feComposite in2="hardAlpha" operator="arithmetic" k2="-1" k3="1"/>
<feColorMatrix type="matrix" values="0 0 0 0 0.203922 0 0 0 0 0.337255 0 0 0 0 0.345098 0 0 0 0.25 0"/>
<feBlend mode="normal" in2="shape" result="effect1_innerShadow"/>
</filter>
<filter id="filter2_i" x="118" y="246.087" width="209.594" height="74.7991" filterUnits="userSpaceOnUse" color-interpolation-filters="sRGB">
<feFlood flood-opacity="0" result="BackgroundImageFix"/>
<feBlend mode="normal" in="SourceGraphic" in2="BackgroundImageFix" result="shape"/>
<feColorMatrix in="SourceAlpha" type="matrix" values="0 0 0 0 0 0 0 0 0 0 0 0 0 0 0 0 0 0 127 0" result="hardAlpha"/>
<feOffset dx="1" dy="2"/>
<feGaussianBlur stdDeviation="6.5"/>
<feComposite in2="hardAlpha" operator="arithmetic" k2="-1" k3="1"/>
<feColorMatrix type="matrix" values="0 0 0 0 0.203922 0 0 0 0 0.337255 0 0 0 0 0.345098 0 0 0 0.25 0"/>
<feBlend mode="normal" in2="shape" result="effect1_innerShadow"/>
</filter>
<radialGradient id="paint0_radial" cx="0" cy="0" r="1" gradientUnits="userSpaceOnUse" gradientTransform="translate(153.5 107) rotate(63.6835) scale(515.419)">
<stop stop-color="#FF6161"/>
<stop offset="0.158893" stop-color="#F94343"/>
<stop offset="0.560219" stop-color="#B40E0E"/>
<stop offset="1" stop-color="#FF527A"/>
</radialGradient>
<linearGradient id="paint1_linear" x1="222.297" y1="246.07" x2="222.297" y2="360.896" gradientUnits="userSpaceOnUse">
<stop stop-color="#28292B"/>
<stop offset="1" stop-color="#5C6369"/>
</linearGradient>
<linearGradient id="paint2_linear" x1="15" y1="-0.0271166" x2="15" y2="181.092" gradientUnits="userSpaceOnUse">
<stop stop-color="#28292B"/>
<stop offset="1" stop-color="#5C6369"/>
</linearGradient>
<linearGradient id="paint3_linear" x1="114" y1="97.9729" x2="114" y2="279.092" gradientUnits="userSpaceOnUse">
<stop stop-color="#28292B"/>
<stop offset="1" stop-color="#5C6369"/>
</linearGradient>
</defs>
</svg>
