<svg width="28" height="28" viewBox="0 0 28 28" fill="none" xmlns="http://www.w3.org/2000/svg">
<path d="M26.8334 22.1667C26.8334 22.7855 26.5876 23.379 26.15 23.8166C25.7124 24.2542 25.1189 24.5 24.5001 24.5H3.50008C2.88124 24.5 2.28775 24.2542 1.85017 23.8166C1.41258 23.379 1.16675 22.7855 1.16675 22.1667V9.33333C1.16675 8.71449 1.41258 8.121 1.85017 7.68342C2.28775 7.24583 2.88124 7 3.50008 7H8.16675L10.5001 3.5H17.5001L19.8334 7H24.5001C25.1189 7 25.7124 7.24583 26.15 7.68342C26.5876 8.121 26.8334 8.71449 26.8334 9.33333V22.1667Z" stroke="#4285F4" stroke-linecap="round" stroke-linejoin="round"/>
<path d="M13.9999 19.8333C16.5772 19.8333 18.6666 17.744 18.6666 15.1667C18.6666 12.5893 16.5772 10.5 13.9999 10.5C11.4226 10.5 9.33325 12.5893 9.33325 15.1667C9.33325 17.744 11.4226 19.8333 13.9999 19.8333Z" stroke="#4285F4" stroke-linecap="round" stroke-linejoin="round"/>
</svg>
