<svg width="20" height="21" viewBox="0 0 20 21" fill="none" xmlns="http://www.w3.org/2000/svg">
<path d="M19.7862 9.1765L10.487 0.19805C10.216 -0.0660167 9.78397 -0.0660167 9.51307 0.19805L0.214198 9.17615C0.0773007 9.30827 0 9.49035 0 9.68062C0 10.0679 0.313935 10.3818 0.70114 10.3818H1.9369V20.1977C1.9369 20.585 2.25079 20.8989 2.63804 20.8989H7.54602C7.93327 20.8989 8.24716 20.585 8.24716 20.1977V14.5886H11.7529V20.1977C11.7529 20.585 12.0668 20.8989 12.454 20.8989H17.362C17.7492 20.8989 18.0631 20.585 18.0631 20.1977V10.3818H19.2989C19.489 10.3818 19.6709 10.3046 19.803 10.1679C20.0721 9.88947 20.0646 9.44561 19.7862 9.1765ZM18.0631 9.68062C17.6759 9.68062 17.362 9.99451 17.362 10.3818V20.1977H12.454V14.5886C12.454 14.2014 12.1401 13.8875 11.7529 13.8875H8.24716C7.85991 13.8875 7.54602 14.2014 7.54602 14.5886V20.1977H2.63804V10.3818C2.63804 9.99451 2.32415 9.68062 1.9369 9.68062H0.70114L10 0.70252L19.3024 9.68062H18.0631Z" fill="#2D2D2D"/>
</svg>
