<svg width="16" height="16" viewBox="0 0 16 16" fill="none" xmlns="http://www.w3.org/2000/svg">
<path d="M9.01337 15.5675H6.98959C6.94077 15.5675 6.89339 15.551 6.85516 15.5207C6.81692 15.4903 6.79008 15.4479 6.779 15.4004L6.43716 13.9314C5.9023 13.7908 5.389 13.5783 4.91132 13.2996L3.63262 14.0972C3.59116 14.1231 3.54214 14.1342 3.49356 14.1287C3.44499 14.1232 3.39973 14.1013 3.36516 14.0668L1.93359 12.6345C1.89909 12.6 1.87728 12.5549 1.8717 12.5064C1.86613 12.4579 1.87712 12.409 1.90289 12.3675L2.70029 11.0892C2.42174 10.6114 2.20928 10.0981 2.06873 9.56318L0.600185 9.22373C0.552563 9.21273 0.510073 9.18592 0.479642 9.14768C0.449211 9.10943 0.432635 9.06201 0.432617 9.01313V6.98675C0.432635 6.93788 0.449211 6.89045 0.479642 6.85221C0.510073 6.81396 0.552563 6.78715 0.600185 6.77616L2.06873 6.4367C2.20939 5.90194 2.42192 5.38872 2.70051 4.91108L1.90289 3.63237C1.87698 3.59091 1.86589 3.5419 1.87143 3.49332C1.87697 3.44475 1.8988 3.39948 1.93337 3.36491L3.36537 1.93291C3.39995 1.89843 3.44519 1.87667 3.49372 1.87117C3.54224 1.86567 3.5912 1.87677 3.63262 1.90264L4.91089 2.70005C5.38861 2.42147 5.9019 2.20894 6.43673 2.06827L6.77856 0.599293C6.7897 0.551719 6.81663 0.509321 6.85495 0.47901C6.89327 0.448698 6.94073 0.432259 6.98959 0.432374H9.01337C9.06225 0.432391 9.10968 0.448967 9.14792 0.479398C9.18617 0.509829 9.21297 0.55232 9.22397 0.599941L9.56343 2.06848C10.0982 2.20915 10.6114 2.42168 11.089 2.70027L12.3678 1.90264C12.4092 1.87674 12.4582 1.86565 12.5068 1.87119C12.5554 1.87672 12.6006 1.89856 12.6352 1.93313L14.0672 3.36513C14.1017 3.39971 14.1235 3.44495 14.129 3.49347C14.1345 3.542 14.1234 3.59096 14.0975 3.63237L13.3001 4.91064C13.5787 5.38829 13.7912 5.9015 13.9319 6.43627L15.4004 6.77572C15.448 6.78672 15.4905 6.81353 15.5209 6.85177C15.5514 6.89002 15.568 6.93745 15.568 6.98632V9.0127C15.568 9.06157 15.5514 9.109 15.5209 9.14725C15.4905 9.18549 15.448 9.2123 15.4004 9.22329L13.9319 9.56275C13.7912 10.0975 13.5787 10.6107 13.3001 11.0884L14.0975 12.3675C14.1234 12.409 14.1345 12.458 14.1289 12.5066C14.1234 12.5551 14.1016 12.6004 14.067 12.635L12.635 14.067C12.6004 14.1015 12.5552 14.1232 12.5067 14.1287C12.4581 14.1342 12.4092 14.1231 12.3678 14.0972L11.0895 13.2998C10.6118 13.5784 10.0986 13.7909 9.56386 13.9316L9.2244 15.4002C9.21335 15.4478 9.18646 15.4903 9.14813 15.5207C9.1098 15.5511 9.06229 15.5676 9.01337 15.5675ZM7.16127 15.1351H8.84127L9.17186 13.7052C9.1809 13.6661 9.20066 13.6303 9.22892 13.6018C9.25718 13.5732 9.29282 13.5531 9.33186 13.5437C9.91311 13.4043 10.4688 13.1742 10.9783 12.8618C11.0125 12.8406 11.0519 12.8295 11.0921 12.8295C11.1323 12.8295 11.1716 12.8406 11.2058 12.8618L12.4506 13.6384L13.6398 12.4492L12.8629 11.2056C12.8418 11.1714 12.8306 11.132 12.8306 11.0918C12.8306 11.0517 12.8418 11.0123 12.8629 10.9781C13.1754 10.4686 13.4056 9.91291 13.5448 9.33162C13.5542 9.29258 13.5743 9.25694 13.6029 9.22868C13.6314 9.20042 13.6672 9.18066 13.7063 9.17162L15.1353 8.84102V7.15886L13.7055 6.82827C13.6664 6.81922 13.6305 6.79947 13.602 6.77121C13.5735 6.74295 13.5534 6.7073 13.544 6.66827C13.4047 6.08698 13.1745 5.53131 12.862 5.02178C12.8409 4.98761 12.8297 4.94823 12.8297 4.90805C12.8297 4.86787 12.8409 4.82849 12.862 4.79432L13.6387 3.54956L12.4495 2.36037L11.2058 3.13724C11.1716 3.15823 11.1322 3.16934 11.0921 3.16934C11.0519 3.16934 11.0126 3.15823 10.9783 3.13724C10.4688 2.82471 9.91315 2.59457 9.33186 2.45529C9.29282 2.44588 9.25718 2.42579 9.22892 2.39726C9.20066 2.36874 9.1809 2.3329 9.17186 2.29378L8.84127 0.864806H7.16127L6.82851 2.29486C6.81943 2.33394 6.79966 2.36973 6.7714 2.39822C6.74314 2.4267 6.70752 2.44677 6.66851 2.45616C6.08722 2.59543 5.53155 2.82558 5.02202 3.1381C4.98785 3.15924 4.94847 3.17043 4.90829 3.17043C4.86812 3.17043 4.82873 3.15924 4.79456 3.1381L3.54981 2.36145L2.36062 3.55064L3.13727 4.7954C3.1584 4.82957 3.16959 4.86895 3.16959 4.90913C3.16959 4.94931 3.1584 4.98869 3.13727 5.02286C2.82474 5.53239 2.59459 6.08806 2.45532 6.66935C2.44591 6.70838 2.42582 6.74403 2.39729 6.77229C2.36876 6.80055 2.33293 6.82031 2.29381 6.82935L0.86505 7.15886V8.84102L2.29489 9.17162C2.33401 9.18066 2.36984 9.20042 2.39837 9.22868C2.4269 9.25694 2.44699 9.29258 2.4564 9.33162C2.59568 9.91291 2.82582 10.4686 3.13835 10.9781C3.15948 11.0123 3.17067 11.0517 3.17067 11.0918C3.17067 11.132 3.15948 11.1714 3.13835 11.2056L2.3617 12.4503L3.55089 13.6395L4.79564 12.8629C4.82981 12.8417 4.8692 12.8305 4.90937 12.8305C4.94955 12.8305 4.98893 12.8417 5.0231 12.8629C5.53269 13.1753 6.08834 13.4054 6.66959 13.5448C6.7086 13.5542 6.74423 13.5743 6.77248 13.6027C6.80074 13.6312 6.82051 13.667 6.82959 13.7061L7.16127 15.1351Z" fill="black"/>
<path d="M8 12.5879C7.0926 12.5879 6.20558 12.3188 5.45111 11.8147C4.69663 11.3106 4.10859 10.594 3.76134 9.75571C3.4141 8.91739 3.32324 7.99491 3.50027 7.10495C3.67729 6.21499 4.11425 5.3975 4.75587 4.75587C5.3975 4.11425 6.21499 3.67729 7.10495 3.50027C7.99491 3.32324 8.91739 3.4141 9.75571 3.76134C10.594 4.10859 11.3106 4.69663 11.8147 5.45111C12.3188 6.20558 12.5879 7.0926 12.5879 8C12.5865 9.21637 12.1027 10.3825 11.2426 11.2426C10.3825 12.1027 9.21637 12.5865 8 12.5879ZM8 3.84454C7.17813 3.84454 6.37472 4.08826 5.69135 4.54487C5.00799 5.00147 4.47538 5.65047 4.16086 6.40978C3.84634 7.16909 3.76405 8.00461 3.92439 8.81069C4.08473 9.61677 4.4805 10.3572 5.06165 10.9384C5.6428 11.5195 6.38323 11.9153 7.18931 12.0756C7.99539 12.236 8.83092 12.1537 9.59023 11.8391C10.3495 11.5246 10.9985 10.992 11.4551 10.3087C11.9117 9.62529 12.1555 8.82188 12.1555 8C12.1542 6.89829 11.716 5.84207 10.937 5.06304C10.1579 4.28401 9.10171 3.8458 8 3.84454Z" fill="black"/>
</svg>
