<svg width="15" height="15" viewBox="0 0 15 15" fill="none" xmlns="http://www.w3.org/2000/svg">
<g clip-path="url(#clip0)">
<path d="M8.4375 15H1.5625C0.70125 15 0 14.2987 0 13.4375V1.5625C0 0.70125 0.70125 0 1.5625 0H8.4375C9.29875 0 10 0.70125 10 1.5625V5.3125C10 5.485 9.86 5.625 9.6875 5.625C9.515 5.625 9.375 5.485 9.375 5.3125V1.5625C9.375 1.04562 8.95438 0.625 8.4375 0.625H1.5625C1.04562 0.625 0.625 1.04562 0.625 1.5625V13.4375C0.625 13.9544 1.04562 14.375 1.5625 14.375H8.4375C8.95438 14.375 9.375 13.9544 9.375 13.4375V9.6875C9.375 9.515 9.515 9.375 9.6875 9.375C9.86 9.375 10 9.515 10 9.6875V13.4375C10 14.2987 9.29875 15 8.4375 15Z" fill="#2D2D2D"/>
<path d="M14.6875 7.81249H5.3125C5.14 7.81249 5 7.67249 5 7.5C5 7.3275 5.14 7.1875 5.3125 7.1875H14.6875C14.86 7.1875 15 7.3275 15 7.5C15 7.67249 14.86 7.81249 14.6875 7.81249Z" fill="#2D2D2D"/>
<path d="M12.1877 10.3125C12.1077 10.3125 12.0277 10.2819 11.9664 10.2213C11.8445 10.0994 11.8445 9.90127 11.9664 9.77939L14.2458 7.50002L11.967 5.22127C11.8452 5.09939 11.8452 4.90127 11.967 4.77939C12.0889 4.65752 12.287 4.65752 12.4089 4.77939L14.9089 7.27939C15.0308 7.40127 15.0308 7.59939 14.9089 7.72127L12.4089 10.2213C12.3477 10.2819 12.2677 10.3125 12.1877 10.3125Z" fill="#2D2D2D"/>
</g>
<defs>
<clipPath id="clip0">
<rect width="15" height="15" fill="white"/>
</clipPath>
</defs>
</svg>
