<svg width="13" height="13" viewBox="0 0 13 13" fill="none" xmlns="http://www.w3.org/2000/svg">
<path d="M11.9826 12.1032L9.21419 9.16952C12.0682 5.63058 9.63326 -0.00528634 5.21306 0.0233007C3.83142 0.0282124 2.50915 0.617393 1.53619 1.66165C0.563221 2.70591 0.01897 4.12001 0.0227747 5.59388C0.0252674 10.3123 5.32444 12.8723 8.62293 9.80445L11.4025 12.7262C11.4835 12.7834 11.5806 12.809 11.6772 12.7985C11.7738 12.7881 11.864 12.7422 11.9323 12.6688C12.0007 12.5954 12.0431 12.4989 12.0522 12.3958C12.0614 12.2927 12.0368 12.1893 11.9826 12.1032ZM0.863083 5.5799C0.859509 4.34354 1.31592 3.15721 2.13213 2.28128C2.94835 1.40535 4.05769 0.911386 5.21667 0.907801C11.0134 1.15081 11.0494 9.96295 5.25482 10.2339C4.09534 10.2359 2.98156 9.74689 2.15811 8.87427C1.33466 8.00165 0.868884 6.81677 0.863083 5.5799Z" fill="#B5B5B5"/>
</svg>
