<svg width="20" height="20" viewBox="0 0 20 20" fill="none" xmlns="http://www.w3.org/2000/svg">
<g clip-path="url(#clip0)">
<path d="M18.2744 16.8692L16.8427 14.4842C16.1827 13.3834 15.8335 12.1234 15.8335 10.8392V8.75001C15.8335 5.53419 13.216 2.91669 10.0002 2.91669C6.78438 2.91669 4.16688 5.53419 4.16688 8.75001V10.8392C4.16688 12.1234 3.8177 13.3834 3.1577 14.4842L1.72602 16.8692C1.64852 16.9975 1.64684 17.1584 1.7202 17.2884C1.79438 17.4192 1.93352 17.5 2.08352 17.5H17.9168C18.0668 17.5 18.206 17.4192 18.2802 17.2884C18.3535 17.1583 18.3519 16.9975 18.2744 16.8692ZM2.81938 16.6667L3.87188 14.9125C4.6102 13.6825 5.0002 12.2742 5.0002 10.8392V8.75001C5.0002 5.99251 7.2427 3.75001 10.0002 3.75001C12.7577 3.75001 15.0002 5.99251 15.0002 8.75001V10.8392C15.0002 12.2742 15.3902 13.6825 16.1277 14.9125L17.181 16.6667H2.81938Z" fill="#2D2D2D"/>
<path d="M10.0002 0C9.081 0 8.3335 0.7475 8.3335 1.66668V3.33336C8.3335 3.56332 8.52018 3.75 8.75018 3.75C8.98018 3.75 9.16686 3.56332 9.16686 3.33332V1.66668C9.16686 1.20668 9.54018 0.833359 10.0002 0.833359C10.4602 0.833359 10.8335 1.20668 10.8335 1.66668V3.33336C10.8335 3.56332 11.0202 3.75 11.2502 3.75C11.4802 3.75 11.6669 3.56332 11.6669 3.33332V1.66668C11.6669 0.7475 10.9194 0 10.0002 0Z" fill="black"/>
<path d="M11.8032 16.8725C11.6857 16.6742 11.4315 16.6092 11.2324 16.7233C11.0332 16.84 10.9665 17.0958 11.0832 17.2941C11.1915 17.4783 11.2507 17.6991 11.2507 17.9166C11.2507 18.6058 10.6899 19.1666 10.0007 19.1666C9.3115 19.1666 8.75068 18.6058 8.75068 17.9166C8.75068 17.6991 8.80986 17.4783 8.91818 17.2941C9.034 17.095 8.96736 16.84 8.769 16.7233C8.56818 16.6091 8.31482 16.6741 8.19818 16.8725C8.014 17.1875 7.9165 17.5483 7.9165 17.9167C7.91654 19.0658 8.85068 20 9.99986 20C11.149 20 12.0832 19.0658 12.0848 17.9167C12.0848 17.5483 11.9873 17.1875 11.8032 16.8725Z" fill="black"/>
</g>
<defs>
<clipPath id="clip0">
<rect width="20" height="20" fill="white"/>
</clipPath>
</defs>
</svg>
