<svg width="18" height="19" viewBox="0 0 18 19" fill="none" xmlns="http://www.w3.org/2000/svg">
<path d="M11.5179 8.75637C12.7435 7.94047 13.5518 6.54803 13.5518 4.96554C13.5518 2.45185 11.5137 0.413818 9.00005 0.413818C6.48637 0.413818 4.44833 2.45185 4.44833 4.96554C4.44833 6.54803 5.25664 7.94047 6.48219 8.75637C6.48219 8.75637 6.48257 8.75675 6.48295 8.75675C6.48257 8.75675 6.48257 8.75637 6.48257 8.75637C3.54899 9.64054 1.26478 12.0215 0.529297 15.0169L0.529676 15.0173C0.649538 15.1618 0.773952 15.3029 0.901021 15.4413C0.931745 15.4751 0.963986 15.5073 0.995469 15.5403C1.09333 15.6443 1.19233 15.7467 1.29399 15.8468C1.33609 15.8882 1.37895 15.928 1.42181 15.9686C1.51588 16.0581 1.61109 16.1465 1.70819 16.2326C1.75637 16.2751 1.8053 16.3172 1.85385 16.3589C1.94906 16.4404 2.0454 16.5205 2.14364 16.5986C2.19523 16.64 2.24719 16.6805 2.29916 16.7211C2.39854 16.7978 2.49943 16.8721 2.60147 16.9449C2.65419 16.9825 2.70616 17.0208 2.75964 17.0576C2.86737 17.1319 2.97699 17.2032 3.08737 17.2738C3.13705 17.3053 3.18561 17.3379 3.23568 17.369C3.36312 17.4475 3.49285 17.5226 3.62371 17.5962C3.65823 17.6155 3.69199 17.6364 3.72688 17.6554C3.89605 17.7479 4.06788 17.8367 4.24237 17.9205C4.24654 17.9224 4.25109 17.9243 4.25526 17.9262C4.42178 18.0059 4.59095 18.0813 4.76202 18.1526C4.81512 18.175 4.86936 18.1947 4.92285 18.216C5.0465 18.2653 5.17016 18.3139 5.29609 18.3586C5.36285 18.3825 5.43037 18.4041 5.4975 18.4269C5.61205 18.4656 5.72736 18.5031 5.84343 18.5376C5.91702 18.5596 5.99099 18.5801 6.06533 18.6006C6.17761 18.6317 6.29064 18.6613 6.40481 18.689C6.48181 18.7076 6.55919 18.7254 6.63695 18.7425C6.75112 18.7675 6.86567 18.7903 6.98099 18.8115C7.05912 18.8259 7.13688 18.8407 7.21578 18.8532C7.33488 18.8726 7.45474 18.8889 7.57499 18.9044C7.65085 18.9143 7.72633 18.9253 7.80257 18.9333C7.93533 18.9477 8.06923 18.9579 8.20312 18.9674C8.26798 18.972 8.33209 18.9788 8.39695 18.9822C8.59685 18.9936 8.7975 19 9.00005 19C9.20261 19 9.40326 18.9936 9.60316 18.983C9.66802 18.9795 9.7325 18.9727 9.79698 18.9682C9.93126 18.9587 10.0652 18.9484 10.1975 18.934C10.2738 18.9257 10.3493 18.9151 10.4251 18.9052C10.5454 18.8896 10.6652 18.8733 10.7843 18.854C10.8628 18.8411 10.941 18.8267 11.0191 18.8123C11.1344 18.791 11.2494 18.7683 11.3632 18.7432C11.4409 18.7262 11.5183 18.7083 11.5953 18.6898C11.7091 18.6621 11.8221 18.6325 11.9348 18.6014C12.0087 18.5809 12.0831 18.5604 12.1567 18.5384C12.2731 18.5035 12.3881 18.466 12.5026 18.4276C12.5697 18.4049 12.6376 18.3833 12.704 18.3594C12.8296 18.3142 12.9536 18.2661 13.0773 18.2168C13.1307 18.1955 13.185 18.1754 13.2381 18.1534C13.4084 18.0821 13.5768 18.0074 13.7426 17.9277C13.7475 17.9254 13.7528 17.9232 13.7577 17.9209C13.9322 17.8371 14.1041 17.7483 14.2732 17.6558C14.3081 17.6368 14.3419 17.6159 14.3764 17.5966C14.5073 17.523 14.637 17.4479 14.7644 17.3694C14.8145 17.3386 14.8634 17.306 14.9127 17.2742C15.0231 17.2036 15.1327 17.1319 15.2405 17.058C15.2936 17.0212 15.3459 16.9832 15.3986 16.9453C15.5007 16.8721 15.6016 16.7978 15.7009 16.7215C15.7533 16.6813 15.8049 16.6403 15.8565 16.599C15.9543 16.5209 16.0511 16.4408 16.1463 16.3593C16.1952 16.3175 16.2441 16.2754 16.2919 16.233C16.389 16.1469 16.4842 16.0585 16.5783 15.969C16.6208 15.9284 16.664 15.8882 16.7061 15.8472C16.8078 15.7471 16.9072 15.6446 17.0046 15.5407C17.0357 15.5073 17.068 15.4751 17.0991 15.4417C17.2262 15.3033 17.3506 15.1622 17.4704 15.0176L17.4708 15.0173C16.7357 12.0215 14.4515 9.64054 11.5179 8.75637Z" fill="#C6C3BD"/>
</svg>
