<svg width="15" height="15" viewBox="0 0 15 15" fill="none" xmlns="http://www.w3.org/2000/svg">
<path d="M7.5 0C3.3645 0 0 3.3645 0 7.5C0 9.31125 0.6455 10.9745 1.7185 12.272C1.72125 12.2758 1.7215 12.2805 1.7245 12.284C2.49925 13.2183 3.47225 13.9345 4.5565 14.3973C4.569 14.4025 4.58125 14.4082 4.59375 14.4135C4.6815 14.4505 4.77025 14.4848 4.85925 14.5183C4.89425 14.5315 4.92925 14.545 4.96475 14.5577C5.0415 14.5852 5.11875 14.6112 5.1965 14.6362C5.24625 14.6522 5.296 14.668 5.34625 14.683C5.415 14.7035 5.484 14.7232 5.5535 14.742C5.6145 14.7585 5.676 14.7738 5.7375 14.7885C5.79975 14.8035 5.86225 14.8185 5.925 14.8317C5.995 14.8468 6.06575 14.86 6.13675 14.873C6.19375 14.8835 6.2505 14.8945 6.308 14.9038C6.38675 14.9165 6.466 14.9265 6.5455 14.9368C6.59675 14.9433 6.64775 14.9508 6.69925 14.9563C6.78925 14.9657 6.88 14.9725 6.971 14.9788C7.01325 14.9818 7.05525 14.9862 7.09775 14.9885C7.2305 14.996 7.36475 15 7.5 15C7.63525 15 7.7695 14.996 7.90275 14.989C7.94525 14.9868 7.98725 14.9823 8.0295 14.9792C8.1205 14.9727 8.21125 14.9662 8.30125 14.9567C8.35275 14.9513 8.40375 14.9438 8.455 14.9373C8.5345 14.927 8.61375 14.917 8.6925 14.9043C8.74975 14.895 8.80675 14.884 8.86375 14.8735C8.9345 14.8605 9.00525 14.8472 9.0755 14.8322C9.13825 14.8187 9.2005 14.804 9.263 14.789C9.3245 14.774 9.386 14.7587 9.447 14.7425C9.5165 14.724 9.5855 14.704 9.65425 14.6835C9.7045 14.6685 9.75425 14.6528 9.804 14.6368C9.88175 14.6118 9.959 14.5858 10.0358 14.5583C10.071 14.5455 10.106 14.532 10.1412 14.5188C10.2305 14.4853 10.319 14.4507 10.4067 14.414C10.4192 14.4087 10.4315 14.403 10.444 14.3977C11.528 13.935 12.5013 13.2188 13.276 12.2845C13.279 12.281 13.2792 12.276 13.282 12.2725C14.3545 10.9745 15 9.31125 15 7.5C15 3.3645 11.6355 0 7.5 0ZM10.5393 13.805C10.5355 13.8068 10.532 13.8088 10.5282 13.8105C10.439 13.8535 10.3483 13.894 10.2568 13.9335C10.236 13.9423 10.2155 13.9513 10.1947 13.96C10.1147 13.9935 10.0337 14.0252 9.95225 14.0557C9.91825 14.0685 9.88425 14.081 9.85 14.093C9.77775 14.1188 9.70525 14.1435 9.632 14.167C9.5865 14.1815 9.54075 14.1952 9.495 14.2087C9.43 14.2282 9.36475 14.247 9.29875 14.2645C9.24325 14.2792 9.18725 14.2927 9.13125 14.306C9.0725 14.32 9.014 14.3343 8.95475 14.3468C8.89 14.3605 8.82475 14.3722 8.75975 14.384C8.707 14.3938 8.6545 14.404 8.60125 14.4125C8.528 14.424 8.454 14.4333 8.38025 14.4425C8.3335 14.4485 8.287 14.4555 8.23975 14.4605C8.1555 14.4695 8.0705 14.4753 7.98575 14.4812C7.948 14.4837 7.9105 14.488 7.87225 14.49C7.7485 14.4965 7.6245 14.5 7.5 14.5C7.3755 14.5 7.2515 14.4965 7.128 14.49C7.09 14.488 7.0525 14.484 7.0145 14.4812C6.9295 14.4755 6.84475 14.4695 6.7605 14.4605C6.71325 14.4555 6.66675 14.4485 6.62 14.4425C6.54625 14.4333 6.47225 14.424 6.399 14.4125C6.34575 14.404 6.29325 14.3938 6.2405 14.384C6.17525 14.3722 6.11 14.3603 6.0455 14.3468C5.98625 14.3343 5.9275 14.32 5.869 14.306C5.813 14.2925 5.757 14.2792 5.7015 14.2645C5.63575 14.247 5.57025 14.228 5.50525 14.2087C5.4595 14.1952 5.41375 14.1815 5.36825 14.167C5.295 14.1435 5.22225 14.1188 5.15025 14.093C5.116 14.0808 5.082 14.0682 5.048 14.0557C4.9665 14.0252 4.8855 13.9935 4.8055 13.96C4.78475 13.9515 4.7645 13.9425 4.74375 13.9338C4.65225 13.8945 4.5615 13.8538 4.472 13.8108C4.46825 13.809 4.46475 13.8073 4.461 13.8053C3.58875 13.3833 2.81825 12.7843 2.193 12.0568C2.67625 10.2773 4.04425 8.84275 5.80425 8.272C5.839 8.29325 5.87525 8.31225 5.911 8.33225C5.932 8.344 5.95275 8.3565 5.974 8.36775C6.0485 8.40725 6.124 8.44425 6.20125 8.4775C6.2605 8.5035 6.32175 8.5255 6.38275 8.548C6.39475 8.55225 6.40675 8.557 6.41875 8.56125C6.75775 8.68125 7.1205 8.75 7.5 8.75C7.8795 8.75 8.24225 8.68125 8.581 8.56125C8.593 8.557 8.605 8.55225 8.617 8.548C8.678 8.5255 8.73925 8.5035 8.7985 8.4775C8.87575 8.44425 8.95125 8.40725 9.02575 8.36775C9.047 8.35625 9.06775 8.344 9.08875 8.33225C9.1245 8.31225 9.161 8.29325 9.196 8.27175C10.956 8.84275 12.3237 10.2773 12.8073 12.0565C12.182 12.7838 11.4115 13.3828 10.5393 13.805ZM4.75 5.5C4.75 3.98375 5.98375 2.75 7.5 2.75C9.01625 2.75 10.25 3.98375 10.25 5.5C10.25 6.4645 9.74975 7.31325 8.996 7.80425C8.8975 7.86825 8.795 7.9255 8.68975 7.9755C8.67725 7.9815 8.665 7.98775 8.6525 7.9935C7.9285 8.32275 7.0715 8.32275 6.3475 7.9935C6.335 7.98775 6.3225 7.9815 6.31025 7.9755C6.20475 7.9255 6.1025 7.86825 6.004 7.80425C5.25025 7.31325 4.75 6.4645 4.75 5.5ZM13.1823 11.5808C12.6155 9.90725 11.3225 8.55475 9.6705 7.91225C10.3313 7.317 10.75 6.4575 10.75 5.5C10.75 3.708 9.292 2.25 7.5 2.25C5.708 2.25 4.25 3.708 4.25 5.5C4.25 6.4575 4.66875 7.317 5.32975 7.91225C3.67775 8.555 2.38475 9.90725 1.818 11.5808C0.98975 10.431 0.5 9.022 0.5 7.5C0.5 3.64025 3.64025 0.5 7.5 0.5C11.3597 0.5 14.5 3.64025 14.5 7.5C14.5 9.022 14.0103 10.431 13.1823 11.5808Z" fill="black"/>
</svg>
