<svg width="50" height="50" viewBox="0 0 50 50" fill="none" xmlns="http://www.w3.org/2000/svg">
<circle cx="25" cy="25" r="25" fill="#A6A6A6"/>
<g opacity="0.5" clip-path="url(#clip0)">
<path d="M32.96 48.6984C32.6997 48.7863 32.4376 48.8716 32.1738 48.9501C32.4385 48.8708 32.6997 48.7854 32.96 48.6984Z" fill="#F9EDE0"/>
<path d="M34.2662 48.219C33.9852 48.3311 33.7042 48.4414 33.418 48.5431C33.7042 48.4405 33.9861 48.3311 34.2662 48.219Z" fill="#F9EDE0"/>
<path d="M25 50C38.8071 50 50 38.8071 50 25C50 11.1929 38.8071 0 25 0C11.1929 0 0 11.1929 0 25C0 38.8071 11.1929 50 25 50Z" fill="#EFECE8"/>
<path d="M31.67 49.0931C31.4148 49.1638 31.1579 49.231 30.8984 49.2939C31.1579 49.231 31.4148 49.1638 31.67 49.0931Z" fill="#F9EDE0"/>
<path d="M23.1887 49.9276C22.8835 49.906 22.5792 49.8827 22.2783 49.85C22.58 49.8827 22.8844 49.906 23.1887 49.9276Z" fill="#F9EDE0"/>
<path d="M19.1007 49.2931C18.842 49.2302 18.5851 49.1629 18.3291 49.0922C18.5851 49.1638 18.842 49.231 19.1007 49.2931Z" fill="#F9EDE0"/>
<path d="M21.7612 49.7845C21.4879 49.7491 21.2155 49.7121 20.9448 49.6681C21.2147 49.7121 21.4879 49.7483 21.7612 49.7845Z" fill="#F9EDE0"/>
<path d="M25.0001 50C24.5397 50 24.0837 49.9853 23.6294 49.9612C24.0837 49.9853 24.5397 50 25.0001 50Z" fill="#F9EDE0"/>
<path d="M20.4113 49.5724C20.1492 49.5241 19.888 49.4724 19.6294 49.4155C19.888 49.4724 20.1492 49.5241 20.4113 49.5724Z" fill="#F9EDE0"/>
<path d="M15.3675 48.0729C14.9788 47.91 14.5943 47.7393 14.2158 47.5582C14.5951 47.7393 14.9796 47.9108 15.3675 48.0729Z" fill="#F9EDE0"/>
<path d="M16.5812 48.5431C16.2958 48.4405 16.0139 48.331 15.7329 48.2189C16.0139 48.331 16.2958 48.4405 16.5812 48.5431Z" fill="#F9EDE0"/>
<path d="M26.3707 49.9612C25.9164 49.9853 25.4603 50 25 50C25.4603 50 25.9164 49.9853 26.3707 49.9612Z" fill="#F9EDE0"/>
<path d="M27.7214 49.85C27.4197 49.8827 27.1153 49.906 26.811 49.9276C27.1153 49.906 27.4197 49.8827 27.7214 49.85Z" fill="#F9EDE0"/>
<path d="M30.3717 49.4155C30.1123 49.4724 29.8519 49.5241 29.5898 49.5724C29.851 49.5241 30.1123 49.4724 30.3717 49.4155Z" fill="#F9EDE0"/>
<path d="M29.0561 49.6672C28.7854 49.7111 28.513 49.7482 28.2397 49.7836C28.5122 49.7482 28.7854 49.712 29.0561 49.6672Z" fill="#F9EDE0"/>
<path d="M35.7794 47.5598C35.4026 47.7399 35.0199 47.9106 34.6328 48.0727C35.0199 47.9106 35.4026 47.7408 35.7794 47.5598Z" fill="#F9EDE0"/>
<path d="M17.8258 48.95C17.5611 48.8707 17.2999 48.7853 17.0396 48.6982C17.2999 48.7853 17.5611 48.8707 17.8258 48.95Z" fill="#F9EDE0"/>
<path d="M34.6326 48.0741C34.5119 48.125 34.3886 48.1698 34.2671 48.2181C34.3878 48.1698 34.5111 48.125 34.6326 48.0741Z" fill="#F9EDE0"/>
<path d="M35.8138 47.5457C35.8026 47.5504 35.7905 47.5551 35.7793 47.5598C35.7905 47.5551 35.8026 47.5511 35.8138 47.5457Z" fill="#F9EDE0"/>
<path d="M19.6282 49.4155C19.4514 49.3767 19.2756 49.3362 19.1006 49.2939C19.2756 49.3362 19.4514 49.3767 19.6282 49.4155Z" fill="#F9EDE0"/>
<path d="M20.9438 49.6672C20.7653 49.6379 20.5877 49.6052 20.4102 49.5724C20.5886 49.6052 20.7653 49.6388 20.9438 49.6672Z" fill="#F9EDE0"/>
<path d="M23.6295 49.9612C23.4821 49.9534 23.3355 49.9379 23.189 49.9276C23.3364 49.9379 23.4821 49.9534 23.6295 49.9612Z" fill="#F9EDE0"/>
<path d="M22.2785 49.8499C22.1052 49.831 21.9336 49.8068 21.7612 49.7844C21.9336 49.8068 22.1052 49.831 22.2785 49.8499Z" fill="#F9EDE0"/>
<path d="M14.2163 47.5584C14.2068 47.5545 14.1965 47.5506 14.187 47.5466C14.1965 47.5506 14.2068 47.5545 14.2163 47.5584Z" fill="#F9EDE0"/>
<path d="M26.8111 49.9276C26.6637 49.9379 26.518 49.9534 26.3706 49.9612C26.518 49.9534 26.6637 49.9379 26.8111 49.9276Z" fill="#F9EDE0"/>
<path d="M32.1742 48.95C32.007 49 31.8389 49.0466 31.6699 49.0931C31.8389 49.0466 32.007 49 32.1742 48.95Z" fill="#F9EDE0"/>
<path d="M33.4187 48.5431C33.267 48.5974 33.1135 48.6465 32.9609 48.6983C33.1135 48.6465 33.267 48.5974 33.4187 48.5431Z" fill="#F9EDE0"/>
<path d="M15.7337 48.219C15.6121 48.1707 15.4889 48.125 15.3682 48.075C15.4889 48.125 15.6121 48.1698 15.7337 48.219Z" fill="#F9EDE0"/>
<path d="M17.0398 48.6983C16.8872 48.6465 16.7329 48.5974 16.582 48.5431C16.7329 48.5974 16.8863 48.6465 17.0398 48.6983Z" fill="#F9EDE0"/>
<path d="M28.2389 49.7844C28.0665 49.8068 27.895 49.8318 27.7217 49.8499C27.895 49.831 28.0665 49.8068 28.2389 49.7844Z" fill="#F9EDE0"/>
<path d="M30.8992 49.2931C30.7242 49.3353 30.5483 49.3759 30.3716 49.4147C30.5483 49.3767 30.7242 49.3362 30.8992 49.2931Z" fill="#F9EDE0"/>
<path d="M29.5888 49.5724C29.4112 49.6052 29.2345 49.6388 29.0552 49.6672C29.2345 49.6388 29.4112 49.6052 29.5888 49.5724Z" fill="#F9EDE0"/>
<path d="M18.33 49.0931C18.1619 49.0466 17.9929 49 17.8257 48.95C17.9929 49 18.161 49.0466 18.33 49.0931Z" fill="#F9EDE0"/>
<path d="M30.7222 26.719C33.5075 24.8647 35.3446 21.7 35.3446 18.1035C35.3446 12.3906 30.7127 7.75867 24.9998 7.75867C19.2868 7.75867 14.6549 12.3906 14.6549 18.1035C14.6549 21.7 16.492 24.8647 19.2774 26.719C19.2774 26.719 19.2782 26.7199 19.2791 26.7199C19.2782 26.7199 19.2782 26.719 19.2782 26.719C12.611 28.7285 7.4196 34.1397 5.74805 40.9475L5.74891 40.9483C6.02132 41.2768 6.30408 41.5975 6.59287 41.9121C6.6627 41.9888 6.73598 42.0621 6.80753 42.1371C7.02994 42.3733 7.25494 42.6061 7.48598 42.8337C7.58167 42.9276 7.67908 43.0182 7.77649 43.1104C7.99029 43.3138 8.20667 43.5147 8.42736 43.7104C8.53684 43.8069 8.64805 43.9026 8.75839 43.9975C8.97477 44.1828 9.19374 44.3647 9.41701 44.5423C9.53425 44.6363 9.65236 44.7285 9.77046 44.8207C9.99632 44.9949 10.2256 45.1638 10.4575 45.3294C10.5774 45.4147 10.6955 45.5018 10.817 45.5854C11.0618 45.7544 11.311 45.9164 11.5618 46.0768C11.6748 46.1483 11.7851 46.2225 11.8989 46.2931C12.1886 46.4716 12.4834 46.6423 12.7808 46.8095C12.8593 46.8535 12.936 46.9009 13.0153 46.944C13.3998 47.1544 13.7903 47.3561 14.1868 47.5466C14.1963 47.5509 14.2067 47.5552 14.2161 47.5595C14.5946 47.7406 14.9791 47.9121 15.3679 48.0742C15.4886 48.125 15.6118 48.1699 15.7334 48.2181C16.0144 48.3302 16.2955 48.4406 16.5817 48.5423C16.7334 48.5966 16.8868 48.6457 17.0394 48.6975C17.2998 48.7854 17.5618 48.8707 17.8256 48.9492C17.9929 48.9992 18.161 49.0457 18.3299 49.0923C18.5851 49.163 18.842 49.2302 19.1015 49.2931C19.2765 49.3354 19.4524 49.3759 19.6291 49.4147C19.8886 49.4716 20.1489 49.5233 20.411 49.5716C20.5886 49.6044 20.7653 49.638 20.9446 49.6664C21.2153 49.7104 21.4877 49.7475 21.761 49.7828C21.9334 49.8052 22.1049 49.8302 22.2782 49.8483C22.5799 49.8811 22.8842 49.9044 23.1886 49.9259C23.336 49.9363 23.4817 49.9518 23.6291 49.9595C24.0834 49.9854 24.5394 50 24.9998 50C25.4601 50 25.9161 49.9854 26.3705 49.9613C26.5179 49.9535 26.6644 49.938 26.811 49.9276C27.1161 49.9061 27.4205 49.8828 27.7213 49.85C27.8946 49.8311 28.0661 49.8069 28.2386 49.7845C28.5118 49.7492 28.7842 49.7121 29.0549 49.6682C29.2334 49.6388 29.411 49.6061 29.5886 49.5733C29.8506 49.525 30.1118 49.4733 30.3705 49.4164C30.5472 49.3776 30.723 49.3371 30.898 49.2949C31.1567 49.2319 31.4136 49.1647 31.6696 49.094C31.8377 49.0475 32.0067 49.0009 32.1739 48.9509C32.4386 48.8716 32.6998 48.7863 32.9601 48.6992C33.1127 48.6475 33.267 48.5983 33.4179 48.544C33.7032 48.4414 33.9851 48.3319 34.2661 48.2199C34.3877 48.1716 34.511 48.1259 34.6317 48.0759C35.0187 47.9138 35.4015 47.744 35.7782 47.563C35.7894 47.5578 35.8015 47.5526 35.8127 47.5475C36.2092 47.3569 36.5998 47.1552 36.9842 46.9449C37.0636 46.9018 37.1403 46.8544 37.2187 46.8104C37.5161 46.6432 37.811 46.4725 38.1006 46.294C38.2144 46.2242 38.3256 46.15 38.4377 46.0776C38.6886 45.9173 38.9377 45.7544 39.1825 45.5863C39.3032 45.5026 39.4222 45.4164 39.542 45.3302C39.7739 45.1638 40.0032 44.9949 40.2291 44.8216C40.348 44.7302 40.4653 44.6371 40.5825 44.5431C40.8049 44.3656 41.0248 44.1837 41.2411 43.9983C41.3523 43.9035 41.4636 43.8078 41.5722 43.7113C41.7929 43.5156 42.0092 43.3147 42.223 43.1113C42.3196 43.019 42.4179 42.9276 42.5136 42.8345C42.7446 42.6069 42.9705 42.3742 43.192 42.138C43.2627 42.0621 43.336 41.9888 43.4067 41.913C43.6955 41.5983 43.9782 41.2776 44.2506 40.9492L44.2515 40.9483C42.5808 34.1397 37.3894 28.7285 30.7222 26.719Z" fill="#C6C3BD"/>
</g>
<defs>
<clipPath id="clip0">
<rect width="50" height="50" fill="white"/>
</clipPath>
</defs>
</svg>
