<svg width="14" height="22" viewBox="0 0 14 22" fill="none" xmlns="http://www.w3.org/2000/svg">
<path d="M11.6665 0H2.33317C1.41317 0.00119167 0.667587 0.821333 0.666504 1.83333V20.1667C0.667587 21.1787 1.41317 21.9988 2.33317 22H11.6665C12.5865 21.9988 13.3321 21.1787 13.3332 20.1667V1.83333C13.3321 0.821333 12.5865 0.00119167 11.6665 0ZM12.6665 20.1667C12.6665 20.7742 12.2188 21.2667 11.6665 21.2667H2.33317C1.78088 21.2667 1.33317 20.7742 1.33317 20.1667V19.8H12.6665V20.1667ZM12.6665 19.0667H1.33317V2.93333H12.6665V19.0667ZM12.6665 2.2H1.33317V1.83333C1.33317 1.22581 1.78088 0.733333 2.33317 0.733333H11.6665C12.2188 0.733333 12.6665 1.22581 12.6665 1.83333V2.2Z" fill="#4285F4"/>
</svg>
