<svg width="16" height="20" viewBox="0 0 16 20" fill="none" xmlns="http://www.w3.org/2000/svg">
<path d="M7.99991 0C3.92603 0 0.611816 3.31421 0.611816 7.38809C0.611816 8.72925 1.21329 10.1717 1.2385 10.2325C1.43276 10.6936 1.81608 11.4098 2.09248 11.8296L7.1581 19.505C7.3654 19.8196 7.67223 20 7.99991 20C8.32759 20 8.63442 19.8196 8.84172 19.5054L13.9078 11.8296C14.1846 11.4098 14.5675 10.6936 14.7618 10.2325C14.787 10.1721 15.388 8.72968 15.388 7.38809C15.388 3.31421 12.0738 0 7.99991 0ZM13.9604 9.89526C13.787 10.3086 13.4302 10.9748 13.182 11.3512L8.11595 19.0269C8.01599 19.1786 7.98426 19.1786 7.88431 19.0269L2.81825 11.3512C2.5701 10.9748 2.21329 10.3081 2.03989 9.89483C2.0325 9.87701 1.481 8.54933 1.481 7.38809C1.481 3.79357 4.40539 0.869187 7.99991 0.869187C11.5944 0.869187 14.5188 3.79357 14.5188 7.38809C14.5188 8.55106 13.966 9.88223 13.9604 9.89526Z" fill="#34A853"/>
</svg>
