<svg width="20" height="20" viewBox="0 0 20 20" fill="none" xmlns="http://www.w3.org/2000/svg">
<path d="M19.6094 18.8041H18.8002V14.6266V12.9135C18.8002 12.2688 18.2757 11.7442 17.6309 11.7442H16.9639V9.38086V7.8911C16.9639 7.24637 16.4393 6.7218 15.7946 6.7218H14.5954V5.58766C14.8634 5.52 15.1171 5.38184 15.3263 5.17262C15.8072 4.69176 15.928 3.95899 15.627 3.3491L14.5551 1.17742C14.4893 1.0441 14.3535 0.95969 14.2048 0.95969C14.0561 0.95969 13.9204 1.0441 13.8545 1.17742L12.7826 3.34914C12.4816 3.95895 12.6024 4.69176 13.0833 5.17266C13.2925 5.38188 13.5462 5.52004 13.8142 5.5877V6.72184H10.3906V5.04262C10.6586 4.97496 10.9123 4.8368 11.1215 4.62758C11.6024 4.14672 11.7232 3.41395 11.4222 2.80406L10.3503 0.632346C10.2845 0.499026 10.1487 0.414612 10 0.414612C9.85133 0.414612 9.71555 0.499026 9.64973 0.632346L8.57777 2.8041C8.2768 3.41395 8.39766 4.14672 8.87852 4.62758C9.08773 4.8368 9.34141 4.97496 9.60938 5.04262V6.72184H6.18582V5.58891C6.46004 5.51977 6.71152 5.37781 6.91668 5.17266C7.39758 4.6918 7.51844 3.95899 7.21742 3.34914L6.14547 1.17742C6.07965 1.0441 5.94387 0.95969 5.7952 0.95969C5.64652 0.95969 5.51074 1.0441 5.44492 1.17742L4.37297 3.34918C4.07199 3.95899 4.19285 4.6918 4.67371 5.1727C4.87887 5.37785 5.13035 5.51981 5.40457 5.58895V6.72188H4.20543C3.56066 6.72188 3.03613 7.24641 3.03613 7.89117V9.38102V11.7443H2.36906C1.7243 11.7443 1.19977 12.2688 1.19977 12.9136V14.6266V18.8042H0.390625C0.174883 18.8042 0 18.9791 0 19.1948C0 19.4105 0.174883 19.5854 0.390625 19.5854H1.59039H18.4096H19.6094C19.8251 19.5854 20 19.4105 20 19.1948C20 18.9791 19.8251 18.8041 19.6094 18.8041ZM13.6357 4.62016C13.3917 4.37617 13.3304 4.00434 13.4832 3.69489L14.2048 2.23281L14.9265 3.69489C15.0793 4.00434 15.0179 4.37617 14.7739 4.62016C14.7198 4.67434 14.6594 4.71852 14.5955 4.75399C14.3533 4.88844 14.0565 4.88844 13.8143 4.75399C13.7503 4.71856 13.6899 4.67438 13.6357 4.62016ZM9.43094 4.07512C9.18695 3.83114 9.12562 3.4593 9.27836 3.14985L10 1.68781L10.7217 3.14989C10.8744 3.45934 10.8131 3.83117 10.5691 4.07516C10.5149 4.12934 10.4546 4.17352 10.3907 4.20899C10.1485 4.34344 9.85164 4.34344 9.60941 4.20899C9.54547 4.17348 9.48512 4.12934 9.43094 4.07512ZM5.22613 4.62016C4.98211 4.37617 4.92082 4.00434 5.07355 3.69489L5.79523 2.23281L6.51691 3.69489C6.66965 4.0043 6.60832 4.37614 6.36434 4.62016C6.31016 4.67434 6.2498 4.71852 6.1859 4.75399C5.94371 4.88844 5.64687 4.88844 5.40465 4.75399C5.34066 4.71856 5.28031 4.67438 5.22613 4.62016ZM4.20543 7.50305H15.7946C16.0086 7.50305 16.1827 7.67711 16.1827 7.8911V9.1175C16.0105 9.17157 15.8251 9.19645 15.6063 9.19645C15.0237 9.19645 14.7579 9.01922 14.4213 8.79485C14.0466 8.54508 13.622 8.26203 12.8029 8.26203C11.9839 8.26203 11.5593 8.54508 11.1846 8.79485C10.8481 9.01922 10.5823 9.19645 9.99973 9.19645C9.41719 9.19645 9.15137 9.01922 8.81484 8.79485C8.44023 8.54512 8.01566 8.26203 7.1966 8.26203C6.37758 8.26203 5.95301 8.54512 5.5784 8.79485C5.24188 9.01922 4.97605 9.19645 4.39359 9.19645C4.17484 9.19645 3.98949 9.17153 3.81742 9.11754V7.8911H3.81738C3.81738 7.67711 3.99148 7.50305 4.20543 7.50305ZM18.019 18.8041H1.98102V15.0498C2.31313 15.1109 2.52469 15.2517 2.77527 15.4188C3.14988 15.6686 3.57445 15.9516 4.39355 15.9516C5.21258 15.9516 5.63715 15.6685 6.01176 15.4188C6.34828 15.1944 6.6141 15.0172 7.19656 15.0172C7.77906 15.0172 8.04492 15.1944 8.38144 15.4188C8.75605 15.6686 9.18062 15.9516 9.99969 15.9516C10.8188 15.9516 11.2434 15.6685 11.618 15.4188C11.9545 15.1944 12.2204 15.0172 12.8029 15.0172C13.3855 15.0172 13.6513 15.1944 13.9879 15.4188C14.3625 15.6685 14.7871 15.9516 15.6062 15.9516C16.4254 15.9516 16.85 15.6685 17.2246 15.4188C17.4752 15.2517 17.6868 15.1109 18.019 15.0498V18.8041ZM18.019 14.2596C17.4454 14.3326 17.1012 14.5621 16.7913 14.7687C16.4547 14.9931 16.1888 15.1703 15.6062 15.1703C15.0237 15.1703 14.7579 14.9931 14.4212 14.7687C14.0466 14.519 13.622 14.2359 12.8029 14.2359C11.9838 14.2359 11.5592 14.519 11.1846 14.7687C10.848 14.9931 10.5822 15.1703 9.99969 15.1703C9.41715 15.1703 9.15133 14.9931 8.8148 14.7687C8.4402 14.5189 8.01562 14.2359 7.19652 14.2359C6.3775 14.2359 5.95293 14.519 5.57832 14.7687C5.2418 14.9931 4.97598 15.1703 4.39352 15.1703C3.81098 15.1703 3.54516 14.9931 3.20863 14.7687C2.89867 14.5621 2.55453 14.3326 1.98102 14.2596V12.9135C1.98102 12.6995 2.15512 12.5254 2.36906 12.5254H5.36691C5.58266 12.5254 5.75754 12.3505 5.75754 12.1348C5.75754 11.9191 5.58266 11.7442 5.36691 11.7442H3.81738V9.92266C3.99715 9.95942 4.18707 9.97774 4.39355 9.97774C5.21258 9.97774 5.63715 9.69465 6.01176 9.44492C6.34828 9.22055 6.6141 9.04332 7.19656 9.04332C7.7791 9.04332 8.04492 9.22055 8.38144 9.44492C8.75605 9.69465 9.18062 9.97774 9.99969 9.97774C10.8188 9.97774 11.2434 9.69465 11.618 9.44492C11.9545 9.22055 12.2204 9.04332 12.8029 9.04332C13.3855 9.04332 13.6513 9.22055 13.9879 9.44492C14.3625 9.69469 14.7871 9.97774 15.6062 9.97774C15.8128 9.97774 16.0028 9.95938 16.1826 9.92262V11.7442H8.4816C8.26586 11.7442 8.09098 11.9191 8.09098 12.1348C8.09098 12.3506 8.26586 12.5255 8.4816 12.5255H17.6309C17.8449 12.5255 18.019 12.6996 18.019 12.9135V14.2596Z" fill="#FA81A2"/>
</svg>
