<svg width="20" height="18" viewBox="0 0 20 18" fill="none" xmlns="http://www.w3.org/2000/svg">
<path d="M19.1016 4.27389H15.9891L15.6511 2.61968C15.5068 1.92379 15.1276 1.29871 14.5771 0.849304C14.0265 0.399903 13.3382 0.153537 12.6275 0.15155H7.3725C6.66174 0.153567 5.97331 0.400022 5.42275 0.849547C4.8722 1.29907 4.49304 1.9243 4.34891 2.6203L4.01094 4.27389H0.898438C0.660327 4.27418 0.432045 4.36887 0.263631 4.53719C0.0952176 4.70552 0.000413426 4.93375 0 5.17186L0 16.95C0.000248173 17.1882 0.0949844 17.4166 0.26342 17.585C0.431856 17.7534 0.660233 17.8482 0.898438 17.8484H19.1016C19.3398 17.8482 19.5681 17.7534 19.7366 17.585C19.905 17.4166 19.9998 17.1882 20 16.95V5.17186C19.9996 4.93375 19.9048 4.70552 19.7364 4.53719C19.568 4.36887 19.3397 4.27418 19.1016 4.27389ZM4.88484 2.72921C5.00341 2.15656 5.31535 1.64213 5.76832 1.27227C6.22129 0.902401 6.78771 0.699619 7.3725 0.697957H12.6275C13.2123 0.699619 13.7787 0.902401 14.2317 1.27227C14.6846 1.64213 14.9966 2.15656 15.1152 2.72921L15.4309 4.27405H14.7133L14.4264 2.86999C14.3407 2.4559 14.1151 2.08392 13.7875 1.81648C13.46 1.54904 13.0504 1.40242 12.6275 1.40124H7.3725C6.94963 1.40242 6.54004 1.54904 6.21249 1.81648C5.88493 2.08392 5.65934 2.4559 5.57359 2.86999L5.28672 4.27405H4.56906L4.88484 2.72921ZM14.155 4.27389H5.845L6.10938 2.97936C6.16956 2.68863 6.32793 2.42745 6.5579 2.23967C6.78787 2.05189 7.07545 1.94894 7.37234 1.94811H12.6275C12.9244 1.94894 13.212 2.05189 13.4419 2.23967C13.6719 2.42745 13.8303 2.68863 13.8905 2.97936L14.155 4.27389ZM0.546875 5.17186C0.546999 5.07866 0.584078 4.98931 0.649982 4.92341C0.715886 4.8575 0.805235 4.82042 0.898438 4.8203H19.1016C19.1948 4.82042 19.2841 4.8575 19.35 4.92341C19.4159 4.98931 19.453 5.07866 19.4531 5.17186V8.18749C19.4523 8.86065 19.1846 9.50601 18.7086 9.98201C18.2326 10.458 17.5872 10.7258 16.9141 10.7266H3.08594C2.41278 10.7258 1.76741 10.458 1.29142 9.98201C0.815421 9.50601 0.547661 8.86065 0.546875 8.18749V5.17186ZM13.8769 11.2734H15.3222V12.8672C15.3221 12.919 15.3016 12.9686 15.2649 13.0052C15.2283 13.0419 15.1787 13.0624 15.1269 13.0625H14.0722C14.0204 13.0624 13.9708 13.0418 13.9342 13.0052C13.8976 12.9686 13.877 12.9189 13.8769 12.8672V11.2734ZM4.67766 11.2734H6.12297V12.8672C6.12293 12.919 6.10234 12.9686 6.06572 13.0052C6.0291 13.0419 5.97944 13.0624 5.92766 13.0625H4.87297C4.82119 13.0624 4.77156 13.0418 4.73495 13.0052C4.69834 12.9686 4.67774 12.9189 4.67766 12.8672V11.2734ZM19.4531 16.95C19.453 17.0432 19.4159 17.1325 19.35 17.1984C19.2841 17.2643 19.1948 17.3014 19.1016 17.3015H0.898438C0.805235 17.3014 0.715886 17.2643 0.649982 17.1984C0.584078 17.1325 0.546999 17.0432 0.546875 16.95V9.93749C0.830142 10.3493 1.20926 10.686 1.65157 10.9187C2.09388 11.1515 2.58614 11.2732 3.08594 11.2734H4.13078V12.8672C4.13103 13.0639 4.2093 13.2526 4.34844 13.3917C4.48757 13.5308 4.6762 13.6091 4.87297 13.6094H5.92766C6.12443 13.6092 6.31309 13.5309 6.45223 13.3918C6.59138 13.2526 6.66964 13.064 6.66984 12.8672V11.2734H13.33V12.8672C13.3302 13.0639 13.4085 13.2526 13.5477 13.3917C13.6868 13.5308 13.8754 13.6091 14.0722 13.6094H15.1269C15.3237 13.6092 15.5123 13.5309 15.6515 13.3918C15.7906 13.2526 15.8689 13.064 15.8691 12.8672V11.2734H16.9141C17.4139 11.2732 17.9061 11.1515 18.3484 10.9187C18.7907 10.686 19.1699 10.3493 19.4531 9.93749V16.95Z" fill="#4285F4"/>
</svg>
