<svg width="22" height="22" viewBox="0 0 22 22" fill="none" xmlns="http://www.w3.org/2000/svg">
<path d="M13.0625 1.03125H8.9375C8.75516 1.03125 8.5803 1.10368 8.45136 1.23262C8.32243 1.36155 8.25 1.53641 8.25 1.71875V5.84375H13.75V1.71875C13.75 1.53641 13.6776 1.36155 13.5486 1.23262C13.4197 1.10368 13.2448 1.03125 13.0625 1.03125Z" fill="#4285F4"/>
<path d="M7.5625 5.84375V6.53125C7.5625 6.71359 7.63493 6.88845 7.76386 7.01739C7.8928 7.14632 8.06766 7.21875 8.25 7.21875H13.75C13.9323 7.21875 14.1072 7.14632 14.2361 7.01739C14.3651 6.88845 14.4375 6.71359 14.4375 6.53125V5.84375H7.5625Z" fill="#4285F4"/>
<path d="M17.3501 4.71062C16.5714 3.92268 15.6527 3.28671 14.6411 2.83527L14.9215 2.20752C16.0108 2.69359 17 3.37837 17.8385 4.2268L17.3501 4.71062Z" fill="#2C66BF"/>
<path d="M2.57108 8.02078L1.92285 7.79167C2.36077 6.56105 3.04336 5.43184 3.92945 4.47212C4.81555 3.51241 5.88681 2.74206 7.07865 2.20752L7.35904 2.83527C6.25223 3.33162 5.2574 4.04696 4.43452 4.93816C3.61164 5.82937 2.97775 6.87798 2.57108 8.02078Z" fill="#2C66BF"/>
<path d="M4.22692 17.8385C3.19656 16.8164 2.40913 15.5758 1.92285 14.2084L2.57108 13.9792C3.02268 15.249 3.75393 16.401 4.71074 17.3501L4.22692 17.8385Z" fill="#2C66BF"/>
<path d="M18.4777 17.0604L17.9438 16.6272C18.2797 16.2132 18.578 15.77 18.8352 15.303L19.4376 15.6345C19.1606 16.1374 18.8393 16.6145 18.4777 17.0604Z" fill="#2C66BF"/>
<path d="M10.5032 2.46459L11.6022 3.19729C11.6493 3.22868 11.6879 3.27121 11.7146 3.32111C11.7413 3.371 11.7553 3.42672 11.7553 3.48331C11.7553 3.5399 11.7413 3.59561 11.7146 3.64551C11.6879 3.6954 11.6493 3.73793 11.6022 3.76933L10.5032 4.50202C10.4514 4.53654 10.3912 4.55635 10.3291 4.55935C10.267 4.56236 10.2052 4.54844 10.1503 4.51908C10.0954 4.48972 10.0496 4.44603 10.0176 4.39265C9.98564 4.33928 9.96875 4.27822 9.96875 4.21601V2.75061C9.96875 2.68839 9.98564 2.62734 10.0176 2.57396C10.0496 2.52059 10.0954 2.47689 10.1503 2.44753C10.2052 2.41818 10.267 2.40426 10.3291 2.40726C10.3912 2.41027 10.4514 2.43008 10.5032 2.46459Z" fill="#FAFCFF"/>
<path d="M11.6875 13.4062C13.0164 13.4062 14.0938 12.3289 14.0938 11C14.0938 9.67106 13.0164 8.59375 11.6875 8.59375C10.3586 8.59375 9.28125 9.67106 9.28125 11C9.28125 12.3289 10.3586 13.4062 11.6875 13.4062Z" fill="#DF382B"/>
<path d="M10.8997 12.2743L10.4136 11.7882L11.3442 10.8576V9.625H12.0317V11.1424L10.8997 12.2743Z" fill="#F9DBDB"/>
<path d="M2.40625 8.9375H1.71875C1.33905 8.9375 1.03125 9.2453 1.03125 9.625V12.375C1.03125 12.7547 1.33905 13.0625 1.71875 13.0625H2.40625C2.78595 13.0625 3.09375 12.7547 3.09375 12.375V9.625C3.09375 9.2453 2.78595 8.9375 2.40625 8.9375Z" fill="#34A853"/>
<path d="M5.5 10.3125H3.09375V11.6875H5.5V10.3125Z" fill="#34A853"/>
<path d="M6.875 8.9375H6.1875C5.8078 8.9375 5.5 9.2453 5.5 9.625V12.375C5.5 12.7547 5.8078 13.0625 6.1875 13.0625H6.875C7.2547 13.0625 7.5625 12.7547 7.5625 12.375V9.625C7.5625 9.2453 7.2547 8.9375 6.875 8.9375Z" fill="#34A853"/>
<path d="M4.125 18.9062C3.94266 18.9062 3.7678 18.9787 3.63886 19.1076C3.50993 19.2365 3.4375 19.4114 3.4375 19.5938C3.4375 19.7761 3.50993 19.951 3.63887 20.0799C3.7678 20.2088 3.94266 20.2812 4.125 20.2812H7.5625V18.9062H4.125Z" fill="#2C66BF"/>
<path d="M11.3438 15.4688H10.6562V16.1562H11.3438V15.4688Z" fill="#ABCBFF"/>
<path d="M7.5625 15.125H6.875V15.8125H7.5625V15.125Z" fill="#ABCBFF"/>
<path d="M7.90625 17.1875H7.21875V17.875H7.90625V17.1875Z" fill="#ABCBFF"/>
<path d="M8.9375 15.8125H8.25V16.5H8.9375V15.8125Z" fill="#ABCBFF"/>
<path d="M9.96875 16.8438H9.28125V17.5312H9.96875V16.8438Z" fill="#ABCBFF"/>
<path d="M9.96875 14.7812H9.28125V15.4688H9.96875V14.7812Z" fill="#ABCBFF"/>
<path d="M12.0312 17.1875H11.3438V17.875H12.0312V17.1875Z" fill="#ABCBFF"/>
<path d="M16.5 11.6875L16.7685 13.8353C16.7893 14.0016 16.8701 14.1545 16.9957 14.2654C17.1213 14.3763 17.2831 14.4375 17.4507 14.4375H18.9868C19.1544 14.4375 19.3162 14.3763 19.4418 14.2654C19.5674 14.1545 19.6482 14.0015 19.669 13.8353L19.9375 11.6875H16.5Z" fill="#FABB05"/>
<path d="M18.5625 9.28125H17.875V11.6875H18.5625V9.28125Z" fill="#00A16C"/>
<path d="M20.9688 7.5625C20.3085 7.5625 19.6752 7.8248 19.2083 8.2917L18.948 8.55205C18.7168 8.78323 18.5334 9.05769 18.4083 9.35975C18.2831 9.66181 18.2188 9.98555 18.2188 10.3125C18.879 10.3125 19.5123 10.0502 19.9792 9.5833L20.2395 9.32295C20.4707 9.09177 20.6541 8.81731 20.7792 8.51525C20.9044 8.21319 20.9688 7.88945 20.9688 7.5625Z" fill="#34A853"/>
<path d="M15.4688 7.5625C16.129 7.5625 16.7623 7.8248 17.2292 8.2917L17.4895 8.55205C17.7207 8.78323 17.9041 9.05769 18.0292 9.35975C18.1544 9.66181 18.2188 9.98555 18.2188 10.3125C17.5585 10.3125 16.9252 10.0502 16.4583 9.5833L16.198 9.32295C15.9668 9.09177 15.7834 8.81731 15.6583 8.51525C15.5331 8.21319 15.4688 7.88945 15.4688 7.5625Z" fill="#34A853"/>
<path d="M18.9357 3.64166L18.1719 5.36041L18.8001 5.63963L19.564 3.92087L18.9357 3.64166Z" fill="#4285F4"/>
<path d="M17.8666 6.04784L17.561 6.73535L18.1893 7.01457L18.4948 6.32706L17.8666 6.04784Z" fill="#4285F4"/>
<path d="M12.861 15.3263L13.9513 14.2361C14.0151 14.1723 14.0909 14.1216 14.1743 14.0871C14.2577 14.0525 14.3471 14.0347 14.4374 14.0347C14.5277 14.0347 14.6171 14.0525 14.7005 14.0871C14.7839 14.1216 14.8597 14.1723 14.9235 14.2361L15.611 14.9236C15.6749 14.9874 15.7255 15.0632 15.7601 15.1466C15.7946 15.23 15.8124 15.3194 15.8124 15.4097V16.1562L18.7343 19.0781C18.802 19.1458 18.8557 19.2262 18.8923 19.3147C18.929 19.4031 18.9479 19.4979 18.9479 19.5937C18.9479 19.6895 18.929 19.7843 18.8923 19.8728C18.8557 19.9612 18.802 20.0416 18.7343 20.1093C18.6666 20.177 18.5862 20.2308 18.4977 20.2674C18.4092 20.3041 18.3144 20.3229 18.2186 20.3229C18.1229 20.3229 18.0281 20.3041 17.9396 20.2674C17.8511 20.2308 17.7707 20.177 17.703 20.1093L14.7811 17.1875H14.0347C13.9444 17.1875 13.855 17.1697 13.7716 17.1351C13.6882 17.1006 13.6124 17.0499 13.5485 16.9861L12.861 16.2986C12.7972 16.2348 12.7466 16.159 12.712 16.0756C12.6775 15.9921 12.6597 15.9027 12.6597 15.8125C12.6597 15.7222 12.6775 15.6328 12.712 15.5494C12.7466 15.466 12.7972 15.3902 12.861 15.3263Z" fill="#FA81A2"/>
<path d="M20.6545 3.6416L19.8906 5.36035L20.5189 5.63956L21.2827 3.92081L20.6545 3.6416Z" fill="#4285F4"/>
<path d="M19.5853 6.0479L19.2798 6.73541L19.908 7.01463L20.2136 6.32712L19.5853 6.0479Z" fill="#4285F4"/>
<path d="M8.59375 20.9688H13.4062C13.7709 20.9688 14.1207 20.8239 14.3785 20.566C14.6364 20.3082 14.7812 19.9584 14.7812 19.5938V18.9062H7.21875V19.5938C7.21875 19.9584 7.36362 20.3082 7.62148 20.566C7.87934 20.8239 8.22908 20.9688 8.59375 20.9688Z" fill="#4285F4"/>
<path d="M12.1387 5.84372H13.7499V3.86816C13.3552 4.63098 12.8065 5.30365 12.1387 5.84372Z" fill="#2C66BF"/>
<path d="M8.25 7.21875H13.75C13.9323 7.21875 14.1072 7.14632 14.2361 7.01739C14.3651 6.88845 14.4375 6.71359 14.4375 6.53125V5.84375H12.1387C11.039 6.73525 9.66572 7.22081 8.25 7.21875Z" fill="#2C66BF"/>
<path d="M10.6992 13.1938C11.1445 13.3945 11.6404 13.4549 12.1209 13.3669C12.6013 13.279 13.0437 13.0469 13.3891 12.7015C13.7344 12.3562 13.9665 11.9138 14.0545 11.4334C14.1424 10.9529 14.082 10.457 13.8813 10.0117C13.6495 10.7608 13.2386 11.4421 12.6841 11.9966C12.1296 12.5511 11.4483 12.962 10.6992 13.1938Z" fill="#DF382B"/>
<path d="M1.46973 13.0153C1.54904 13.0464 1.63346 13.0624 1.71864 13.0625H2.40614C2.58848 13.0625 2.76335 12.9901 2.89228 12.8611C3.02121 12.7322 3.09364 12.5573 3.09364 12.375V11C3.09356 11.4708 2.93245 11.9274 2.63705 12.294C2.34165 12.6606 1.92974 12.9151 1.46973 13.0153Z" fill="#009966"/>
<path d="M5.93848 13.0153C6.01779 13.0464 6.10221 13.0624 6.18739 13.0625H6.87489C7.05723 13.0625 7.2321 12.9901 7.36103 12.8611C7.48996 12.7322 7.56239 12.5573 7.56239 12.375V11C7.56231 11.4708 7.4012 11.9274 7.1058 12.294C6.8104 12.6606 6.39849 12.9151 5.93848 13.0153Z" fill="#009966"/>
<path d="M4.125 11.6875H5.5V10.3125C5.5 10.6772 5.35513 11.0269 5.09727 11.2848C4.83941 11.5426 4.48967 11.6875 4.125 11.6875Z" fill="#00895C"/>
<path d="M17.2568 14.4093C17.3199 14.428 17.3854 14.4375 17.4512 14.4375H18.9873C19.1549 14.4375 19.3167 14.3763 19.4423 14.2654C19.568 14.1545 19.6488 14.0015 19.6695 13.8353L19.938 11.6875H19.9185C19.8417 12.3729 19.5381 13.0131 19.0558 13.5062C18.5736 13.9993 17.9404 14.3172 17.2568 14.4093Z" fill="#EDA606"/>
<path d="M20.2812 11.3438H16.1562V12.0312H20.2812V11.3438Z" fill="#EDA606"/>
<path d="M16.7925 19.1987L17.7032 20.1094C17.7709 20.1771 17.8513 20.2308 17.9398 20.2674C18.0282 20.3041 18.1231 20.323 18.2188 20.323C18.3146 20.323 18.4094 20.3041 18.4979 20.2674C18.5863 20.2308 18.6667 20.1771 18.7344 20.1094C18.8022 20.0417 18.8559 19.9613 18.8925 19.8728C18.9292 19.7843 18.948 19.6895 18.948 19.5937C18.948 19.498 18.9292 19.4032 18.8925 19.3147C18.8559 19.2262 18.8022 19.1458 18.7344 19.0781L17.8237 18.1674C17.5193 18.5484 17.1734 18.8943 16.7925 19.1987Z" fill="#E06C96"/>
<path d="M11 20.9688H13.4062C13.7709 20.9688 14.1207 20.8239 14.3785 20.566C14.6364 20.3082 14.7812 19.9584 14.7812 19.5938V18.9062H14.3689C14.0521 19.5272 13.5697 20.0484 12.9752 20.4124C12.3807 20.7764 11.6971 20.9689 11 20.9688Z" fill="#2C66BF"/>
</svg>
