<svg width="20" height="18" viewBox="0 0 20 18" fill="none" xmlns="http://www.w3.org/2000/svg">
<path d="M18.5408 1.90117C17.5543 0.781873 16.1859 0.165466 14.6875 0.165466C12.5802 0.165466 11.246 1.42406 10.4979 2.47992C10.3038 2.7539 10.1386 3.02863 10 3.28715C9.86137 3.02863 9.69629 2.7539 9.50215 2.47992C8.75402 1.42406 7.41984 0.165466 5.3125 0.165466C3.81414 0.165466 2.44566 0.781912 1.45918 1.90121C0.518242 2.96894 0 4.39894 0 5.92777C0 7.59195 0.649727 9.1398 2.04473 10.7989C3.29148 12.2817 5.08512 13.8101 7.16211 15.58C7.93605 16.2395 8.73641 16.9216 9.58848 17.6671L9.61406 17.6895C9.72453 17.7862 9.86227 17.8345 10 17.8345C10.1377 17.8345 10.2755 17.7862 10.3859 17.6895L10.4115 17.6671C11.2636 16.9216 12.0639 16.2396 12.838 15.5799C14.9149 13.8102 16.7085 12.2817 17.9553 10.7989C19.3503 9.13976 20 7.59195 20 5.92777C20 4.39894 19.4818 2.96894 18.5408 1.90117ZM12.0779 14.688C11.4107 15.2566 10.724 15.8417 10 16.4711C9.27602 15.8418 8.58934 15.2566 7.92203 14.688C3.85723 11.2242 1.17188 8.93586 1.17188 5.92777C1.17188 4.68441 1.58613 3.52957 2.33836 2.67601C3.09922 1.81277 4.15543 1.33734 5.3125 1.33734C6.9191 1.33734 7.95766 2.32711 8.54594 3.15742C9.07363 3.90211 9.34898 4.65281 9.44289 4.94097C9.52145 5.18219 9.74633 5.34543 10 5.34543C10.2537 5.34543 10.4786 5.18219 10.5571 4.94097C10.651 4.65281 10.9264 3.90211 11.4541 3.15738C12.0423 2.32711 13.0809 1.33734 14.6875 1.33734C15.8446 1.33734 16.9008 1.81277 17.6616 2.67601C18.4139 3.52957 18.8281 4.68441 18.8281 5.92777C18.8281 8.93586 16.1428 11.2242 12.0779 14.688Z" fill="#DF382B"/>
</svg>
