<svg width="150" height="53" viewBox="0 0 150 53" fill="none" xmlns="http://www.w3.org/2000/svg">
<path d="M113.68 1.19455C111.146 4.60304 104.67 22.3521 103.745 28.4625C103.262 31.4553 103.906 32.7023 105.917 32.7023C107.164 32.7023 107.445 32.4529 109.738 28.8366C111.99 25.2618 116.214 20.3985 115.691 21.978C115.57 22.3521 115.248 24.1395 115.007 25.9685C114.564 29.0029 114.605 29.5017 115.248 30.9149C115.811 32.0372 116.455 32.6608 117.501 33.0349C119.431 33.7831 120.839 33.409 122.488 31.7047L123.775 30.3746L124.218 31.289C124.821 32.6608 126.913 33.6584 128.602 33.3674C129.366 33.2427 130.734 32.5776 131.578 31.871C132.423 31.1643 133.107 30.6655 133.107 30.7487C133.107 30.8318 132.584 32.5361 131.9 34.5313C128.441 45.1308 127.878 49.8279 129.929 51.449C131.82 52.9454 132.101 52.5713 132.101 48.5809C132.101 42.6784 135.037 33.9493 138.899 28.4209C141.031 25.2618 145.777 20.5232 146.501 20.7726C147.265 21.0636 146.903 23.1003 145.576 25.9269C144.248 28.6703 142.479 30.2083 140.588 30.2083C139.824 30.2083 139.542 30.4161 139.542 31.0396C139.542 32.6192 142.237 33.2427 144.329 32.0788C146.501 30.9149 150 25.2203 150 22.8094C150 20.9804 148.793 19.0684 147.345 18.5695C146.139 18.1539 145.777 18.1954 144.208 19.1515C143.203 19.7334 141.594 21.2298 140.548 22.3937C138.778 24.4721 138.698 24.5136 139.261 23.1419C139.583 22.3521 140.427 20.4401 141.151 18.8605C142.559 15.7846 142.559 15.0364 140.99 14.7454C140.186 14.5791 139.743 14.787 139.18 15.4936C138.497 16.4081 134.313 26.8414 134.313 27.6311C134.313 28.1715 131.578 29.9589 129.768 30.6655C126.671 31.7878 125.907 29.4601 127.677 24.3058C129.286 19.6919 129.286 19.5256 128.28 18.9852C127.797 18.7358 127.154 18.6111 126.832 18.7358C126.028 19.0684 124.821 21.978 124.017 25.4697C123.333 28.6703 122.689 29.6264 120.678 30.4993C119.471 31.0396 119.23 31.0396 118.707 30.4577C118.144 29.8758 118.144 29.4185 118.788 25.6775C119.431 21.8533 119.431 21.4377 118.828 20.2322C117.058 16.699 113.84 17.8213 109.858 23.3498L108.048 25.8438L108.33 24.1811C108.772 21.8118 112.312 12.1267 114.846 6.51512C116.736 2.27529 116.938 1.65179 116.455 0.90358C115.61 -0.384995 114.766 -0.301861 113.68 1.19455Z" fill="#1D1D1D"/>
<path d="M39.2692 2.35846C35.8503 5.14345 30.3398 18.1955 29.5756 25.345C29.2941 27.8806 28.8919 28.3794 25.9154 29.8758C22.8988 31.3306 19.9223 31.4969 19.2788 30.2083C18.6352 28.9613 18.9168 27.0492 19.681 27.2571C20.0028 27.3818 21.0485 27.4649 21.9736 27.4649C24.7892 27.548 27.3232 24.4305 27.4036 20.7726C27.4439 18.3202 26.6394 17.6135 24.2261 17.8629C18.9168 18.4449 13.9694 27.3402 16.8654 31.1228C17.9112 32.5361 20.043 33.5337 21.9736 33.5337C23.8239 33.5337 27.1623 31.9541 28.4896 30.4577L29.455 29.377L30.1387 30.9981C31.3052 33.5753 35.1263 34.7391 37.9016 33.2843C39.5909 32.3698 41.4009 30.6656 41.9238 29.377C42.2858 28.4209 42.326 28.4209 42.4869 29.1692C42.9294 31.3722 43.6131 32.4114 45.1818 33.1596C48.2789 34.6144 51.2956 33.8247 53.7491 30.915L54.9558 29.5017L55.358 30.6656C56.2027 32.9518 59.8227 33.409 61.9544 31.5385C63.8851 29.9174 66.0169 27.4233 66.8615 25.9269C67.9475 23.8486 67.7464 22.7678 65.8158 20.8973C64.8907 19.9413 63.8047 18.6943 63.4024 18.0708C62.4371 16.4497 61.2304 16.2003 60.0238 17.4057C58.7367 18.6527 56.082 23.5576 55.4385 25.9269C55.0765 27.3818 54.5133 28.13 52.8642 29.4186C49.6062 31.9541 46.7505 32.4114 45.8254 30.624C45.1416 29.2939 45.3829 28.6704 47.5549 26.301C52.1402 21.313 57.2485 11.2538 57.7311 6.18262C57.9724 3.85487 57.9322 3.60547 56.9669 2.60786C55.2776 0.862049 53.3067 1.11145 51.2554 3.35607C48.118 6.72299 43.6936 17.6135 42.5674 24.8046C42.1249 27.4649 41.964 27.839 40.4356 29.086C38.3843 30.8318 37.5798 31.2891 35.6894 31.6216C34.4827 31.8294 34.0403 31.7463 33.3565 31.0397C32.1498 29.7927 32.351 28.7951 34.2816 26.7583C39.1887 21.5208 44.2567 11.711 44.8198 6.22419C45.1014 3.85487 45.0611 3.60547 44.0958 2.60786C42.8087 1.27772 40.7574 1.15302 39.2692 2.35846ZM42.4467 5.55912C41.964 8.26097 40.9585 11.1707 39.1887 14.8286C37.2178 18.819 33.2761 24.8046 33.075 24.098C32.4716 22.3106 40.878 4.02114 42.2858 4.02114C42.5272 4.02114 42.6076 4.60308 42.4467 5.55912ZM55.0765 7.05553C54.3525 10.1315 50.7325 17.8214 48.2387 21.3961C47.1125 23.1004 46.0667 24.3474 45.946 24.2227C45.5036 23.7654 47.5549 18.2786 50.4509 12.1267C54.3525 3.85487 56.2429 1.73495 55.0765 7.05553ZM25.3121 20.6479C25.3121 21.313 21.7725 24.8046 21.0888 24.8046C20.0832 24.8046 20.405 24.1811 22.4965 22.1443C24.4272 20.2738 25.3121 19.8166 25.3121 20.6479ZM64.3275 22.3106C64.8102 22.6431 64.8102 22.8094 64.3275 23.8486C63.6035 25.2619 58.9378 30.2083 58.3344 30.2083C57.168 30.2083 58.978 24.8462 60.788 22.8094C61.6729 21.8534 63.2818 21.604 64.3275 22.3106Z" fill="#1D1D1D"/>
<path d="M12.1598 3.23152C7.93649 3.77189 6.16671 5.10203 7.17226 7.05568C7.65493 7.97016 7.53426 8.67679 6.00582 13.3739C4.63827 17.6137 4.11538 18.6944 3.39138 18.9854C2.02383 19.5258 1.82272 20.1493 2.38583 21.8951C2.82827 23.3499 2.74783 23.8903 1.4205 28.2549C-0.309052 33.9495 -0.429718 35.4875 0.897612 35.9863C2.1445 36.4851 3.19027 35.8201 3.19027 34.4483C3.19027 33.1182 4.39694 28.4211 5.6036 25.1373L6.40804 22.8927L10.7118 21.9782C15.096 21.0222 16.9462 20.1493 17.2278 18.7776C17.3485 18.0709 17.0267 18.0709 12.6827 18.3203C10.1085 18.4866 8.01693 18.5282 8.01693 18.4866C8.01693 18.0294 9.70626 12.7088 10.6314 10.2979C11.8783 6.88941 11.3554 7.09725 19.3998 6.59844C23.5427 6.30748 24.7493 6.09964 25.594 5.43457C27.042 4.31226 27.1627 3.68876 26.0364 3.43935C24.3873 3.06525 14.734 2.94055 12.1598 3.23152Z" fill="#1D1D1D"/>
<path d="M129.527 9.79882C128.401 10.9627 128.24 14.0802 129.246 15.1609C129.648 15.5766 129.97 15.4103 130.855 14.4543C132.343 12.8332 132.504 10.4639 131.217 9.54942C130.452 9.00905 130.292 9.00905 129.527 9.79882Z" fill="#1D1D1D"/>
<path d="M74.1018 15.743C73.8605 16.0339 72.9353 17.6966 72.0505 19.4009C68.35 26.4673 68.0685 32.4114 71.3265 33.2843C73.1767 33.7415 75.0269 32.5361 77.2391 29.4185C78.3653 27.7974 79.4916 26.4673 79.6927 26.4673C79.8938 26.4673 79.9742 26.6335 79.8536 26.7998C79.4513 27.4649 80.4971 30.9565 81.3418 31.7879C83.6747 34.0325 86.6109 32.162 88.984 26.9661C91.0353 22.3937 90.1906 16.9069 87.4153 16.9069C87.3349 16.9069 87.3751 17.7382 87.4958 18.6942C88.0186 22.5184 84.3584 31.1228 82.9104 29.5848C82.3473 29.0444 82.3473 23.8485 82.8702 22.8509C83.5942 21.4792 82.6691 19.6087 81.2211 19.6087C80.4167 19.6087 79.572 20.5232 76.9978 24.0564C73.5789 28.795 72.4929 30.0836 72.2113 29.7511C71.8896 29.4185 73.9007 23.9317 75.6704 20.3154L77.4 16.8653L76.4347 16.0339C75.3487 15.1195 74.6649 15.0363 74.1018 15.743Z" fill="#1D1D1D"/>
<path d="M96.2646 17.8631C94.5753 19.3595 94.535 22.2692 96.0233 27.2988C96.707 29.4603 97.1495 31.3308 97.0288 31.4555C96.9484 31.5802 96.0635 30.7489 95.1384 29.6265C93.9317 28.1717 93.2479 27.6313 92.7653 27.8392C91.8804 28.1717 91.9206 28.8783 92.8457 30.4579C94.3741 33.035 97.9941 35.1549 99.4421 34.282C100.407 33.7417 100.327 31.5802 99.1204 26.6753C97.7528 21.0637 97.8332 19.4011 99.3617 19.4011C99.965 19.4011 100.126 19.692 100.126 21.0222C100.126 22.5186 100.89 23.9734 101.695 23.9734C102.378 23.9734 102.941 22.8927 102.941 21.6041C102.941 19.8999 102.016 17.9047 100.971 17.3227C99.603 16.5745 97.431 16.8239 96.2646 17.8631Z" fill="#1D1D1D"/>
</svg>
