<svg width="120" height="120" viewBox="0 0 120 120" fill="none" xmlns="http://www.w3.org/2000/svg">
<path d="M63.9826 2.89391C63.6572 2.76927 63.4716 2.41642 63.5631 2.07216C63.6611 1.70383 64.0393 1.48464 64.4076 1.5822C65.1623 1.78248 65.9183 2.018 66.6546 2.28318C66.6593 2.28447 66.664 2.28619 66.6683 2.28791C67.0182 2.422 67.1982 2.81182 67.071 3.16596C66.9421 3.52483 66.5467 3.71136 66.1878 3.58199C65.4881 3.331 64.7699 3.10708 64.0531 2.91669C64.029 2.91024 64.0054 2.9025 63.9826 2.89391ZM71.5769 6.22432C71.5344 6.20799 71.4931 6.18736 71.4531 6.162C70.8269 5.76359 70.1749 5.38709 69.5161 5.04241C69.1783 4.86533 69.0476 4.44844 69.2238 4.11063C69.4009 3.77282 69.8182 3.64001 70.1556 3.8188C70.8493 4.18154 71.5352 4.57738 72.1941 4.99685C72.5156 5.20143 72.6105 5.6282 72.406 5.94968C72.2267 6.23162 71.8773 6.33907 71.5769 6.22432ZM58.0356 2.01499C57.7683 1.91227 57.5826 1.64882 57.5929 1.34668C57.6058 0.965456 57.9252 0.667185 58.306 0.680079C59.0873 0.706297 59.8768 0.767326 60.6526 0.86059C61.0308 0.907866 61.3011 1.24954 61.2556 1.62861C61.21 2.00682 60.8662 2.27716 60.4876 2.23161C59.7505 2.14264 59.0009 2.08505 58.2595 2.06012C58.1805 2.05711 58.1052 2.04164 58.0356 2.01499ZM76.2556 10.0034C76.1666 9.96904 76.0832 9.91575 76.0114 9.84311C75.491 9.31534 74.94 8.8026 74.3744 8.31995C74.0843 8.07283 74.0495 7.63702 74.297 7.34692C74.5441 7.05681 74.9799 7.02243 75.2705 7.26955C75.8662 7.77799 76.4464 8.31738 76.9948 8.87352C77.2626 9.14514 77.2595 9.58223 76.9879 9.84999C76.7889 10.0464 76.501 10.0971 76.2556 10.0034ZM52.0435 2.48646C51.8282 2.40395 51.6589 2.21527 51.612 1.97201C51.5403 1.59767 51.7852 1.23579 52.1596 1.16359C52.9268 1.01574 53.7103 0.898836 54.4873 0.816319C54.8668 0.776348 55.2063 1.05141 55.2467 1.43048C55.2867 1.80956 55.0116 2.14951 54.6326 2.18991C53.8942 2.26813 53.1498 2.3786 52.4209 2.51913C52.2894 2.54492 52.16 2.53073 52.0435 2.48646ZM46.3016 4.27524C46.1353 4.2112 45.9934 4.08355 45.9165 3.90777C45.7631 3.55836 45.9221 3.15135 46.2711 2.99835C46.9858 2.68503 47.7238 2.3975 48.4647 2.14478C48.8253 2.02144 49.2181 2.21399 49.341 2.57501C49.464 2.93603 49.2714 3.32842 48.9108 3.45177C48.2064 3.69159 47.505 3.96493 46.8259 4.26234C46.6527 4.33842 46.4653 4.33799 46.3016 4.27524ZM41.0964 7.29062C40.9778 7.24506 40.8704 7.1664 40.7892 7.05681C40.5622 6.75037 40.6271 6.31801 40.9336 6.09108C41.5623 5.62563 42.2186 5.18208 42.8844 4.7725C43.2088 4.57308 43.6339 4.67407 43.8342 4.99856C44.034 5.32305 43.9326 5.74854 43.6077 5.94839C42.9755 6.33735 42.3523 6.75897 41.7549 7.20122C41.558 7.34648 41.3092 7.37227 41.0964 7.29062ZM36.695 11.3903C36.6232 11.3628 36.5549 11.3229 36.493 11.27C36.2033 11.022 36.1698 10.5862 36.4178 10.2965C36.9258 9.70257 37.4665 9.12365 38.0243 8.57567C38.2964 8.30835 38.7331 8.31265 39.0004 8.58427C39.2677 8.8559 39.2638 9.29342 38.9922 9.56031C38.4623 10.0808 37.9491 10.6305 37.4665 11.1944C37.2713 11.4226 36.9598 11.4918 36.695 11.3903ZM33.3229 16.3685C33.2975 16.3587 33.2726 16.3475 33.2481 16.3346C32.9107 16.1575 32.7805 15.7398 32.958 15.4024C33.322 14.7092 33.7196 14.0245 34.1395 13.3678C34.3445 13.0463 34.7696 12.9526 35.0928 13.1576C35.4142 13.3631 35.5079 13.7898 35.3029 14.1109C34.9041 14.7354 34.5263 15.3856 34.1803 16.0449C34.0157 16.3578 33.6452 16.4919 33.3229 16.3685ZM31.1293 21.9687C30.8035 21.844 30.6178 21.4903 30.7102 21.1461C30.9118 20.3926 31.149 19.6371 31.4155 18.8996C31.5453 18.5411 31.9411 18.3555 32.2996 18.4848C32.3039 18.4865 32.3082 18.4883 32.312 18.49C32.6623 18.6241 32.8424 19.0147 32.7143 19.3689C32.4612 20.0694 32.2355 20.7872 32.0439 21.5028C31.9454 21.8711 31.5668 22.0899 31.1985 21.9914C31.1748 21.985 31.1516 21.9773 31.1293 21.9687Z" fill="#97BAF3"/>
<path d="M79.333 13.749C79.2062 13.7004 79.0919 13.614 79.0098 13.4928C78.8095 13.1984 78.5998 12.9036 78.3866 12.6156C78.1597 12.3096 78.2242 11.8768 78.5302 11.6499C78.8366 11.423 79.2694 11.4866 79.4959 11.7934C79.7207 12.0964 79.9408 12.4067 80.1518 12.7162C80.3658 13.0317 80.2842 13.461 79.9691 13.6755C79.7749 13.8078 79.5372 13.8272 79.333 13.749Z" fill="#91B3FA"/>
<path d="M83.4336 34.3946C83.1224 34.2752 82.9351 33.9446 83.0055 33.6081C83.0786 33.26 83.1461 32.9041 83.205 32.5508C83.2681 32.1748 83.624 31.9212 83.9996 31.9839C84.3774 32.0471 84.6297 32.403 84.5669 32.7786C84.5046 33.1504 84.4337 33.5252 84.3568 33.8922C84.2785 34.2653 83.9124 34.5042 83.5393 34.4256C83.5028 34.4183 83.4671 34.4075 83.4336 34.3946Z" fill="#91B3FA"/>
<path d="M81.5879 40.0183C81.5746 40.0132 81.5617 40.0076 81.5484 40.0015C81.2015 39.8438 81.0481 39.4342 81.2058 39.0874C81.4289 38.5974 81.6391 38.095 81.8312 37.5935C81.9008 37.4116 81.9683 37.2294 82.0336 37.0476C82.1621 36.6887 82.5575 36.5018 82.9164 36.6307C83.2826 36.7536 83.4622 37.1546 83.3333 37.5131C83.265 37.7052 83.194 37.896 83.1205 38.0873C82.9185 38.6151 82.6972 39.1437 82.463 39.659C82.3108 39.993 81.9262 40.1477 81.5879 40.0183ZM78.5657 45.1053C78.5064 45.0825 78.4496 45.0511 78.3968 45.0111C78.092 44.7816 78.0314 44.3484 78.2614 44.0445C78.7006 43.4618 79.121 42.8532 79.5103 42.2339C79.7136 41.9115 80.1408 41.8152 80.4627 42.0177C80.7851 42.221 80.8822 42.6473 80.6789 42.9701C80.2689 43.6212 79.8262 44.2625 79.3638 44.8758C79.1738 45.1272 78.8455 45.2123 78.5657 45.1053ZM74.4965 49.4066C74.3916 49.3666 74.2949 49.3 74.2171 49.208C73.9708 48.917 74.0074 48.4817 74.2983 48.2354C74.8566 47.7626 75.4012 47.2611 75.9165 46.744C76.1859 46.4741 76.6235 46.4737 76.8929 46.7428C77.1628 47.0118 77.1637 47.4489 76.8942 47.7188C76.3514 48.2638 75.7781 48.792 75.1901 49.2892C74.9907 49.4577 74.7242 49.4938 74.4965 49.4066ZM69.5844 52.7086C69.4327 52.6506 69.3012 52.5393 69.22 52.3841C69.0433 52.0463 69.174 51.629 69.5118 51.4524C70.1603 51.1133 70.8016 50.7432 71.4179 50.3521C71.7398 50.148 72.1661 50.2429 72.3707 50.5653C72.5749 50.8872 72.4795 51.3135 72.1575 51.5181C71.509 51.9294 70.8342 52.3192 70.1517 52.676C69.9691 52.7714 69.7632 52.7774 69.5844 52.7086ZM64.0715 54.8601C63.8721 54.7836 63.711 54.616 63.6512 54.3942C63.5524 54.0259 63.7707 53.6473 64.139 53.5484C64.8452 53.3589 65.5517 53.1371 66.2385 52.8896C66.5974 52.7598 66.9928 52.9459 67.1222 53.3052C67.2515 53.6636 67.0654 54.0594 66.7066 54.1888C65.9837 54.4493 65.2401 54.6822 64.497 54.8821C64.3509 54.9212 64.2031 54.9104 64.0715 54.8601ZM58.2239 55.758C57.9746 55.6621 57.7928 55.4257 57.7808 55.1421C57.7649 54.7609 58.061 54.4389 58.4418 54.423C59.1703 54.3925 59.9073 54.3302 60.6337 54.2382C61.0119 54.1901 61.3574 54.4578 61.4052 54.8361C61.4533 55.2143 61.1855 55.5598 60.8073 55.608C60.0432 55.7047 59.2665 55.7704 58.4998 55.8027C58.4027 55.8065 58.3094 55.7906 58.2239 55.758ZM38.6501 48.4426C38.5684 48.4112 38.4911 48.3635 38.4236 48.2994C37.864 47.7712 37.3203 47.2125 36.8076 46.6392C36.5536 46.3551 36.5777 45.9188 36.8618 45.6644C37.1463 45.41 37.5825 45.4345 37.8369 45.719C38.3235 46.2631 38.8401 46.7939 39.3713 47.2955C39.6489 47.5572 39.6614 47.9943 39.3997 48.2715C39.2015 48.4808 38.9037 48.5397 38.6501 48.4426ZM52.3229 55.3509C52.019 55.2345 51.8308 54.9147 51.8914 54.5829C51.9593 54.2077 52.319 53.9589 52.6942 54.0272C53.4115 54.1579 54.1448 54.2593 54.8728 54.3285C55.2523 54.3654 55.5308 54.702 55.4947 55.0815C55.4582 55.461 55.1212 55.7395 54.7417 55.7034C53.9746 55.6299 53.2027 55.5233 52.4471 55.3858C52.4037 55.378 52.3624 55.366 52.3229 55.3509ZM43.379 52.0042C43.3429 51.9904 43.3073 51.9733 43.2729 51.9531C42.6106 51.5602 41.9573 51.1347 41.3315 50.6886C41.0208 50.4677 40.9486 50.0362 41.1695 49.7259C41.3913 49.4156 41.8232 49.3425 42.1327 49.5643C42.7271 49.9881 43.3477 50.3921 43.9773 50.7656C44.3052 50.9598 44.4135 51.3836 44.2193 51.7111C44.0448 52.0051 43.6872 52.1224 43.379 52.0042ZM47.5196 54.0057C47.2226 53.8918 46.9269 53.7728 46.6321 53.6481C46.281 53.4999 46.1164 53.095 46.2646 52.7434C46.4129 52.3923 46.8203 52.2273 47.1693 52.376C47.8501 52.6635 48.5408 52.9227 49.2306 53.1487C49.5929 53.2682 49.7902 53.6576 49.6715 54.0199C49.5525 54.3822 49.1627 54.5799 48.8004 54.4609C48.3736 54.3212 47.9425 54.1677 47.5196 54.0057Z" fill="#97BAF3"/>
<path d="M34.8127 43.9125C34.6842 43.8635 34.5694 43.7759 34.4874 43.6538C34.2785 43.3435 34.0726 43.0233 33.8749 42.7014C33.6751 42.3765 33.7765 41.9514 34.1014 41.7516C34.4263 41.5522 34.8514 41.6532 35.0512 41.9785C35.239 42.2841 35.4346 42.5884 35.6327 42.8828C35.8459 43.1991 35.7617 43.628 35.4453 43.8412C35.2515 43.9714 35.0151 43.9903 34.8127 43.9125Z" fill="#91B3FA"/>
<path d="M38.5471 36.7683C38.5905 36.8989 38.7117 36.9883 38.8492 36.9901L42.7762 37.0429C43.7329 38.6078 44.9458 40.0317 46.3928 41.2432L45.8655 45.1324C45.847 45.2686 45.9171 45.4018 46.04 45.4637L50.2467 47.5843C50.3697 47.6462 50.5184 47.623 50.6168 47.5271L53.4293 44.7898C55.2641 45.2325 57.1302 45.3606 58.9568 45.1985L61.3357 48.3235C61.419 48.4331 61.5626 48.4778 61.6932 48.4348L66.1669 46.9594C66.298 46.9164 66.3869 46.7948 66.3887 46.6572L66.442 42.7303C68.0068 41.774 69.4303 40.5612 70.6418 39.1136L74.531 39.641C74.6676 39.6599 74.8004 39.5898 74.8623 39.4665L76.9829 35.2602C77.0448 35.1372 77.022 34.9885 76.9258 34.8897L74.1884 32.0772C74.6311 30.2424 74.7592 28.3767 74.5972 26.5497L77.7226 24.1712C77.8317 24.0879 77.8764 23.9439 77.8335 23.8132L76.358 19.3396C76.315 19.2089 76.1934 19.12 76.0559 19.1178L72.1289 19.0649C71.1726 17.5001 69.9598 16.0762 68.5122 14.8646L69.04 10.9755C69.0585 10.8393 68.9884 10.706 68.8655 10.6441L64.6588 8.52357C64.5359 8.46169 64.3872 8.48446 64.2883 8.58073L61.4758 11.318C59.641 10.8754 57.7753 10.7473 55.9483 10.9093L53.5699 7.78434C53.4865 7.67475 53.3425 7.63005 53.2118 7.67345L48.7382 9.14849C48.6075 9.19146 48.5186 9.31309 48.5164 9.45062L48.4636 13.3776C46.8987 14.3339 45.4748 15.5471 44.2633 16.9942L40.3741 16.4669C40.2379 16.448 40.1046 16.5185 40.0428 16.6414L37.9226 20.8477C37.8607 20.9706 37.8835 21.1193 37.9793 21.2182L40.7167 24.0307C40.274 25.8655 40.1459 27.7312 40.3079 29.5582L37.183 31.9366C37.0734 32.02 37.0287 32.164 37.0721 32.2946L38.5471 36.7683Z" fill="#4285F4"/>
<path d="M58.7595 24.6659C58.5931 24.6023 58.4208 24.5503 58.2437 24.5103C56.2899 24.0745 54.3455 25.3093 53.9097 27.2631C53.4735 29.2169 54.7079 31.1617 56.6621 31.5975C58.6159 32.0333 60.5603 30.7985 60.9965 28.8447C61.2075 27.8983 61.0378 26.9261 60.5177 26.1074C60.0952 25.4421 59.4824 24.9431 58.7595 24.6659ZM55.7557 32.4747C53.6003 31.6491 52.3144 29.3411 52.8314 27.0224C53.4004 24.4742 55.9362 22.8638 58.4844 23.4324C59.7192 23.7079 60.7722 24.4475 61.4504 25.5151C62.1286 26.5827 62.3499 27.8506 62.0744 29.0854C61.5058 31.6336 58.9701 33.244 56.4214 32.6754C56.1919 32.6238 55.9693 32.5568 55.7557 32.4747Z" fill="#91B3FA"/>
<path d="M53.3987 38.8957C53.0286 38.7539 52.6633 38.5927 52.3044 38.4118C52.1914 38.3551 52.0792 38.2962 51.9683 38.2356C51.4204 37.9373 50.8973 37.5956 50.4069 37.2161C50.4005 37.211 50.3936 37.2058 50.3871 37.2006C50.3682 37.186 50.3493 37.1714 50.3304 37.1564C50.2934 37.1276 50.2573 37.0979 50.2208 37.0691C50.1254 36.9918 50.0945 36.8641 50.1361 36.7554C50.1465 36.7292 50.1606 36.7038 50.1796 36.6806C50.2754 36.562 50.449 36.5439 50.5677 36.6393C51.1784 37.1323 51.8463 37.5625 52.5528 37.9184C56.062 39.6878 60.0754 39.4098 63.2262 37.5363C64.9793 36.4945 66.465 34.9584 67.4484 33.0064C67.6211 32.6642 67.775 32.3157 67.9104 31.9628C68.8207 29.5865 68.8851 26.9906 68.0776 24.5417C67.1497 21.7283 65.1821 19.4444 62.5368 18.1108C57.0729 15.358 50.3932 17.5624 47.6408 23.0228C47.471 23.3598 47.3193 23.7036 47.1852 24.0535C46.6046 25.5693 46.3622 27.1956 46.4812 28.8159C46.4843 28.8576 46.4778 28.898 46.4636 28.935C46.4267 29.0317 46.3364 29.1035 46.2259 29.1116C46.0738 29.1224 45.9414 29.0089 45.9303 28.8563C45.8056 27.1548 46.0601 25.4477 46.6695 23.8562C46.81 23.4892 46.9695 23.1281 47.1474 22.7744C50.0373 17.0411 57.054 14.7292 62.7852 17.6178C65.5625 19.0172 67.628 21.415 68.6019 24.3685C69.4503 26.9399 69.382 29.6648 68.4266 32.1592C68.2847 32.5302 68.1227 32.8959 67.9418 33.2552C66.542 36.0325 64.1446 38.098 61.1911 39.0724C58.6193 39.9203 55.8936 39.852 53.3987 38.8957Z" fill="#91B3FA"/>
<path d="M117.306 38.4815C117.431 38.6066 117.465 38.8038 117.376 38.9671C117.21 39.2727 117.032 39.5774 116.848 39.8727C116.728 40.0644 116.476 40.1228 116.284 40.0033C116.091 39.8838 116.034 39.6307 116.153 39.439C116.329 39.1575 116.498 38.867 116.657 38.5756C116.765 38.377 117.013 38.3036 117.212 38.4114C117.247 38.4308 117.279 38.4544 117.306 38.4815Z" fill="#91B3FA"/>
<path d="M87.9644 40.1356C87.9812 40.1524 87.9967 40.1709 88.0108 40.1911C88.3538 40.6802 88.7294 41.1589 89.1274 41.6141C89.1876 41.6833 89.2469 41.7508 89.3075 41.8174C89.4592 41.9854 89.4463 42.2441 89.2783 42.3959C89.1107 42.548 88.8459 42.5385 88.6998 42.3671C88.6357 42.2957 88.5721 42.2244 88.5094 42.1517C88.0934 41.676 87.6997 41.174 87.3404 40.6613C87.2106 40.476 87.2553 40.2207 87.4405 40.0909C87.6056 39.9753 87.826 39.9981 87.9644 40.1356ZM92.506 44.5873C92.6422 44.7227 92.668 44.9397 92.5571 45.1052C92.4312 45.293 92.1767 45.3433 91.9889 45.2174C91.3885 44.8151 90.8053 44.3698 90.256 43.8941C90.0871 43.7428 90.0665 43.4871 90.2148 43.316C90.3626 43.145 90.6213 43.1269 90.7924 43.2748C91.3163 43.729 91.8724 44.1537 92.4449 44.537C92.4673 44.5521 92.4879 44.5688 92.506 44.5873ZM96.3022 46.4977C96.411 46.606 96.454 46.7715 96.3989 46.9258C96.3233 47.1385 96.0891 47.2498 95.8759 47.1738C95.193 46.9305 94.5186 46.6421 93.8722 46.3168C93.6702 46.2141 93.589 45.9686 93.6909 45.7667C93.7923 45.5647 94.039 45.483 94.2406 45.5848C94.8573 45.8952 95.4998 46.1702 96.151 46.4023C96.2098 46.4229 96.261 46.4565 96.3022 46.4977ZM100.451 47.4222C100.535 47.5056 100.582 47.625 100.57 47.7523C100.549 47.977 100.348 48.1421 100.123 48.1201C99.4014 48.0501 98.6772 47.9349 97.9707 47.7776C97.7493 47.7286 97.6105 47.5094 97.6595 47.2889C97.7089 47.068 97.9277 46.9288 98.1482 46.9778C98.8225 47.1278 99.5136 47.2378 100.202 47.3048C100.3 47.3143 100.387 47.3577 100.451 47.4222ZM104.703 47.3113C104.763 47.3715 104.805 47.4501 104.819 47.5404C104.852 47.7639 104.698 47.9727 104.475 48.0063C103.756 48.1141 103.026 48.1786 102.302 48.1971C102.076 48.2027 101.888 48.0234 101.882 47.7978C101.876 47.5717 102.055 47.3839 102.281 47.3779C102.971 47.3603 103.668 47.2993 104.353 47.1965C104.486 47.1763 104.614 47.2232 104.703 47.3113ZM108.799 46.1655C108.836 46.2024 108.867 46.2467 108.888 46.2974C108.975 46.5059 108.877 46.7461 108.668 46.8334C108 47.1132 107.306 47.3547 106.608 47.5503C106.39 47.6113 106.164 47.4841 106.103 47.2657C106.042 47.0483 106.169 46.8222 106.387 46.7612C107.053 46.5746 107.714 46.3451 108.352 46.0778C108.509 46.0121 108.685 46.052 108.799 46.1655ZM112.488 44.0484C112.501 44.0621 112.515 44.0767 112.526 44.0926C112.662 44.2736 112.626 44.5306 112.445 44.6664C111.865 45.1026 111.252 45.5062 110.625 45.8664C110.429 45.9794 110.178 45.9102 110.066 45.7155C109.953 45.5191 110.021 45.269 110.217 45.1564C110.815 44.8125 111.399 44.427 111.953 44.0114C112.118 43.8876 112.346 43.907 112.488 44.0484ZM115.552 41.0996C115.699 41.2462 115.715 41.483 115.581 41.6476C115.204 42.1126 114.798 42.563 114.376 42.9872C114.287 43.0762 114.196 43.1647 114.105 43.2528C113.942 43.4097 113.68 43.3899 113.526 43.2421C113.369 43.0788 113.374 42.8196 113.537 42.6627C113.624 42.5789 113.71 42.4943 113.795 42.4087C114.198 42.0043 114.585 41.5745 114.945 41.1314C115.088 40.9557 115.346 40.929 115.521 41.0713C115.532 41.0807 115.542 41.0897 115.552 41.0996Z" fill="#97BAF3"/>
<path d="M98.6742 13.2864C98.7296 13.3414 98.77 13.4128 98.7864 13.4953C98.8315 13.7171 98.6879 13.9333 98.4662 13.978C97.7983 14.1129 97.1334 14.2904 96.4892 14.5053C96.2751 14.5762 96.0426 14.4606 95.9713 14.2461C95.8999 14.0317 96.0155 13.7996 96.2304 13.7278C96.9056 13.503 97.6036 13.3165 98.3037 13.1747C98.4434 13.1467 98.5805 13.1932 98.6742 13.2864ZM102.845 12.9564C102.924 13.0346 102.97 13.1446 102.966 13.2637C102.956 13.4897 102.765 13.6655 102.539 13.656C101.858 13.6277 101.17 13.6401 100.493 13.6934C100.267 13.7111 100.07 13.5426 100.053 13.3169C100.035 13.0917 100.203 12.8945 100.429 12.8768C101.138 12.821 101.86 12.8076 102.573 12.8373C102.68 12.842 102.775 12.8867 102.845 12.9564ZM106.972 13.6346C107.075 13.7368 107.12 13.8907 107.076 14.0394C107.013 14.2569 106.786 14.3815 106.569 14.3183C105.916 14.1279 105.245 13.9754 104.574 13.8658C104.35 13.8293 104.199 13.6182 104.236 13.3952C104.273 13.1717 104.483 13.0204 104.706 13.0569C105.41 13.1725 106.114 13.332 106.798 13.5314C106.866 13.5516 106.925 13.5877 106.972 13.6346ZM117.781 22.9051C117.814 22.9377 117.842 22.9768 117.863 23.0215C118.165 23.6679 118.431 24.3397 118.652 25.0175C118.722 25.2328 118.604 25.464 118.389 25.5341C118.174 25.6037 117.943 25.4864 117.873 25.2715C117.662 24.6251 117.409 23.9851 117.121 23.3688C117.025 23.1638 117.113 22.9197 117.318 22.8243C117.479 22.7495 117.663 22.7869 117.781 22.9051ZM110.815 15.2824C110.944 15.4109 110.976 15.6142 110.88 15.7783C110.767 15.9739 110.516 16.0401 110.321 15.9266C109.731 15.5845 109.116 15.2751 108.492 15.0077C108.285 14.9175 108.188 14.6777 108.278 14.4696C108.367 14.262 108.608 14.1653 108.816 14.2547C109.47 14.535 110.114 14.8594 110.732 15.2183C110.763 15.2368 110.791 15.2583 110.815 15.2824ZM115.56 19.3585C115.57 19.3688 115.58 19.3799 115.59 19.3916C116.038 19.9455 116.457 20.5331 116.837 21.1365C116.956 21.3286 116.899 21.5809 116.707 21.7012C116.515 21.822 116.262 21.7623 116.142 21.5723C115.781 20.9959 115.381 20.4355 114.953 19.9064C114.811 19.7311 114.838 19.4728 115.013 19.3305C115.178 19.1977 115.414 19.2128 115.56 19.3585ZM114.147 17.8112C114.305 17.969 114.308 18.2255 114.151 18.3863C113.994 18.5487 113.734 18.5526 113.572 18.3949C113.084 17.9208 112.562 17.4721 112.022 17.0617C111.844 16.9241 111.806 16.668 111.943 16.4879C112.08 16.3074 112.337 16.2726 112.517 16.4093C113.084 16.8399 113.631 17.3097 114.143 17.8069C114.144 17.8082 114.146 17.8099 114.147 17.8112Z" fill="#97BAF3"/>
<path d="M119.083 26.9017C119.139 26.9575 119.179 27.0302 119.196 27.1136C119.263 27.4574 119.32 27.8051 119.366 28.1468C119.395 28.3707 119.238 28.577 119.014 28.6075C118.79 28.6367 118.584 28.4799 118.553 28.2555C118.51 27.9302 118.455 27.5984 118.391 27.27C118.348 27.0478 118.493 26.8329 118.715 26.7895C118.854 26.7628 118.99 26.8088 119.083 26.9017Z" fill="#91B3FA"/>
<path d="M115.107 30.4101C115.115 30.322 115.067 30.2382 114.987 30.2012L112.693 29.1461C112.539 27.9775 112.198 26.8248 111.663 25.7353L112.987 23.5881C113.034 23.5129 113.027 23.4162 112.971 23.3478L111.053 21.0055C110.996 20.9367 110.903 20.9114 110.82 20.9423L108.454 21.8173C107.492 21.079 106.429 20.5172 105.313 20.136L104.73 17.6798C104.71 17.5938 104.637 17.5302 104.549 17.5212L101.536 17.2216C101.448 17.213 101.364 17.2612 101.327 17.3415L100.272 19.6349C99.1035 19.7888 97.9508 20.13 96.8617 20.6647L94.7141 19.3409C94.6389 19.2945 94.5422 19.3009 94.4738 19.3568L92.1315 21.2758C92.0627 21.3317 92.0374 21.425 92.0683 21.5079L92.9434 23.8743C92.205 24.8366 91.6433 25.8995 91.262 27.0152L88.8058 27.598C88.7199 27.6182 88.6562 27.6912 88.6472 27.7789L88.3477 30.7921C88.3391 30.8803 88.3872 30.9641 88.4676 31.001L90.7609 32.0562C90.9148 33.2247 91.2564 34.3774 91.7907 35.4665L90.4669 37.6141C90.4205 37.6894 90.427 37.7861 90.4828 37.8544L92.4018 40.1967C92.4577 40.2655 92.551 40.2909 92.6339 40.2599L95.0003 39.3849C95.9626 40.1232 97.0254 40.685 98.1412 41.0662L98.724 43.5224C98.7442 43.6084 98.8172 43.672 98.9053 43.681L101.918 43.9806C102.006 43.9892 102.09 43.941 102.127 43.8607L103.182 41.5673C104.351 41.4135 105.504 41.0722 106.593 40.5376L108.74 41.8613C108.815 41.9077 108.912 41.9013 108.98 41.8454L111.323 39.9264C111.391 39.8705 111.417 39.7773 111.386 39.6943L110.511 37.3279C111.249 36.3656 111.811 35.3028 112.192 34.187L114.648 33.6042C114.734 33.584 114.798 33.511 114.807 33.4229L115.107 30.4101Z" fill="#4285F4"/>
<path d="M100.117 32.2147C100.195 32.2925 100.28 32.3656 100.371 32.4331C101.381 33.1805 102.811 32.9669 103.559 31.9569C103.921 31.4678 104.071 30.8665 103.981 30.2648C103.891 29.6627 103.572 29.1323 103.083 28.7691C102.594 28.4073 101.992 28.2573 101.391 28.3471C100.788 28.4369 100.257 28.7558 99.8948 29.2453C99.2149 30.1638 99.3301 31.4308 100.117 32.2147ZM103.919 28.4107C104.387 28.877 104.692 29.4783 104.791 30.144C104.914 30.9623 104.709 31.7794 104.217 32.4447C103.201 33.8174 101.257 34.1075 99.8837 33.0915C98.5105 32.0712 98.2204 30.1307 99.2368 28.7575C99.7289 28.0922 100.451 27.6586 101.269 27.5369C102.088 27.4145 102.905 27.6182 103.57 28.1111C103.695 28.2031 103.811 28.3032 103.919 28.4107Z" fill="#91B3FA"/>
<path d="M107.105 25.1298C107.289 25.3125 107.464 25.5063 107.632 25.7109C107.965 26.117 108.257 26.5576 108.501 27.0213C108.511 27.0424 108.522 27.0634 108.533 27.0841C108.616 27.2461 108.581 27.4373 108.459 27.5603C108.429 27.5899 108.394 27.6157 108.355 27.6355C108.154 27.7391 107.908 27.6587 107.804 27.458C107.581 27.023 107.31 26.61 106.998 26.2301C106.981 26.2094 106.964 26.1884 106.947 26.1682C106.202 25.2764 105.263 24.6042 104.21 24.1877C103.639 23.9621 103.034 23.8116 102.407 23.7437C102.402 23.7429 102.397 23.7425 102.392 23.742C102.377 23.7403 102.361 23.7386 102.346 23.7373C100.512 23.5551 98.7178 24.0975 97.2926 25.2648C97.1083 25.416 96.9329 25.5751 96.767 25.7418C95.6504 26.8627 94.9589 28.3219 94.7999 29.9181C94.6181 31.7511 95.1605 33.5455 96.3278 34.9703C97.4951 36.3941 99.1476 37.2804 100.981 37.463C102.814 37.6453 104.608 37.1029 106.033 35.9356C106.215 35.7873 106.388 35.6295 106.552 35.4649C107.264 34.7493 107.812 33.8863 108.154 32.9356C108.175 32.8768 108.207 32.826 108.249 32.7848C108.357 32.676 108.523 32.6331 108.677 32.6885C108.89 32.7654 109.001 32.9992 108.924 33.2124C108.543 34.2766 107.93 35.2423 107.133 36.0426C106.949 36.2274 106.756 36.4032 106.553 36.5691C104.958 37.8752 102.951 38.4821 100.899 38.2783C98.8489 38.0742 96.9995 37.0857 95.6943 35.4894C94.3882 33.8953 93.7809 31.8878 93.985 29.8369C94.1625 28.0511 94.9361 26.4187 96.1855 25.1646C96.3712 24.9785 96.5672 24.8002 96.7735 24.6313C99.8606 22.1028 104.337 22.3719 107.105 25.1298Z" fill="#91B3FA"/>
<path d="M6.30866 62.4626C6.12188 62.4072 5.98624 62.2335 5.98731 62.029C5.98912 61.646 6.00257 61.2584 6.02737 60.8763C6.04344 60.6279 6.25769 60.4401 6.50623 60.456C6.75503 60.4711 6.94284 60.6864 6.92677 60.9348C6.90313 61.2988 6.89028 61.6684 6.88848 62.0333C6.88744 62.2821 6.68459 62.4828 6.43566 62.4819C6.39148 62.4815 6.34897 62.4746 6.30866 62.4626Z" fill="#97BAF3"/>
<path d="M33.8815 45.5764C33.8565 45.569 33.8316 45.5592 33.8075 45.5467C33.2205 45.2514 32.6072 44.9832 31.984 44.7494C31.8898 44.7133 31.797 44.6794 31.7037 44.6463C31.4695 44.5625 31.347 44.305 31.4308 44.0704C31.5142 43.8353 31.7755 43.7068 32.0063 43.797C32.1056 43.8327 32.2044 43.8684 32.3029 43.9062C32.954 44.1508 33.597 44.4323 34.2124 44.7417C34.435 44.8539 34.5244 45.1246 34.4123 45.3468C34.313 45.545 34.0869 45.6378 33.8815 45.5764ZM27.1609 43.6277C26.9585 43.5675 26.8205 43.3703 26.842 43.1528C26.8661 42.9048 27.0865 42.7234 27.3341 42.7475C28.1258 42.8249 28.9226 42.9525 29.7031 43.1274C29.9455 43.1863 30.0985 43.4236 30.0439 43.6664C29.9898 43.9088 29.7486 44.0618 29.5058 44.0072C28.7614 43.84 28.0011 43.718 27.2469 43.6449C27.2172 43.6419 27.1884 43.6359 27.1609 43.6277ZM22.4869 43.7536C22.3252 43.7055 22.1974 43.5675 22.1702 43.3896C22.1328 43.1438 22.302 42.9143 22.548 42.8764C23.3367 42.7565 24.1404 42.6848 24.9363 42.6637C25.1856 42.6577 25.3919 42.8537 25.3988 43.1021C25.4057 43.3509 25.2092 43.5581 24.9604 43.5645C24.2014 43.5847 23.4355 43.6531 22.6836 43.7674C22.6154 43.7781 22.5487 43.7721 22.4869 43.7536ZM17.9844 45.0194C17.8596 44.982 17.7517 44.8908 17.6974 44.7611C17.6013 44.532 17.7096 44.2677 17.9391 44.1714C18.6751 43.8637 19.437 43.598 20.2037 43.3823C20.4436 43.3144 20.6922 43.4545 20.7596 43.6943C20.8269 43.9337 20.6872 44.183 20.4479 44.25C19.7162 44.4559 18.9895 44.709 18.2872 45.003C18.1873 45.0447 18.0807 45.0481 17.9844 45.0194ZM13.9216 47.341C13.8322 47.3144 13.7505 47.2594 13.6901 47.1795C13.5412 46.98 13.5818 46.6977 13.7811 46.5485C14.4209 46.0702 15.0956 45.6271 15.7873 45.2321C16.0036 45.1087 16.2788 45.1848 16.402 45.4001C16.5256 45.6163 16.4505 45.8914 16.2341 46.0152C15.5749 46.3912 14.9309 46.8141 14.321 47.2701C14.2022 47.3591 14.0538 47.3806 13.9216 47.341ZM10.5488 50.5851C10.494 50.5687 10.4415 50.5417 10.3942 50.5034C10.2008 50.347 10.1713 50.0629 10.3279 49.8695C10.8299 49.2502 11.3761 48.6553 11.9516 48.1018C12.1312 47.929 12.4157 47.9346 12.5888 48.1147C12.7613 48.2939 12.7557 48.5793 12.5764 48.7516C12.0276 49.2794 11.5068 49.8463 11.0282 50.4372C10.9097 50.5834 10.7185 50.6358 10.5488 50.5851ZM8.07727 54.5584C8.05685 54.5524 8.03635 54.5447 8.01658 54.5357C7.7906 54.4308 7.69222 54.163 7.7967 53.937C8.13181 53.2124 8.515 52.5019 8.93533 51.8259C9.06676 51.6144 9.34557 51.5508 9.55599 51.681C9.76745 51.813 9.83217 52.0902 9.70079 52.3016C9.29975 52.9467 8.93443 53.6245 8.61463 54.3156C8.51939 54.5215 8.28855 54.6216 8.07727 54.5584ZM6.64298 59.0123C6.42418 58.947 6.28605 58.7252 6.32988 58.4961C6.45341 57.8493 6.61169 57.2012 6.8002 56.5703C6.83987 56.4375 6.88121 56.3047 6.92385 56.1719C7.00048 55.9346 7.26424 55.8173 7.49112 55.8805C7.72802 55.957 7.8582 56.2105 7.78217 56.4473C7.74126 56.5746 7.70172 56.7013 7.66377 56.8281C7.48399 57.4303 7.33301 58.0483 7.21503 58.665C7.16835 58.91 6.93244 59.0699 6.68794 59.0235C6.67259 59.0205 6.65755 59.0166 6.64298 59.0123Z" fill="#97BAF3"/>
<path d="M37.4884 77.1747C37.4063 77.1502 37.3298 77.1021 37.2709 77.0308C37.1119 76.8395 37.1381 76.5554 37.3298 76.3964C37.9066 75.9176 38.4588 75.3993 38.9712 74.8556C39.1418 74.6751 39.4272 74.6661 39.6081 74.8367C39.789 75.0078 39.7976 75.2927 39.627 75.4741C39.0898 76.044 38.5104 76.5876 37.9057 77.0901C37.7849 77.1898 37.6281 77.2164 37.4884 77.1747ZM33.6182 79.6671C33.5013 79.6323 33.399 79.5502 33.3414 79.432C33.2331 79.2081 33.3263 78.9382 33.5503 78.8298C34.225 78.5028 34.8856 78.1319 35.5135 77.7279C35.7233 77.5934 36.0022 77.654 36.1367 77.8633C36.2712 78.0726 36.2106 78.3511 36.0018 78.4856C35.3429 78.9094 34.6505 79.2983 33.9439 79.6409C33.8382 79.692 33.7226 79.6984 33.6182 79.6671ZM29.2657 81.1597C29.1127 81.1142 28.9889 80.9887 28.9537 80.8215C28.9017 80.5778 29.0573 80.3388 29.3005 80.2868C30.032 80.1317 30.7618 79.9297 31.4692 79.6864C31.7052 79.6052 31.9613 79.7311 32.0421 79.9666C32.1229 80.2022 31.9974 80.4583 31.7619 80.5391C31.0201 80.794 30.2551 81.0059 29.4879 81.1687C29.4118 81.1851 29.3353 81.1808 29.2657 81.1597ZM13.9615 77.8057C13.9124 77.7911 13.865 77.7678 13.8213 77.7352C13.1916 77.2663 12.5846 76.754 12.0174 76.212C11.8373 76.0401 11.8308 75.7547 12.0027 75.5746C12.1744 75.3954 12.4597 75.3885 12.6398 75.56C13.1808 76.0766 13.7594 76.5653 14.3598 77.0123C14.5593 77.161 14.6007 77.4438 14.452 77.6432C14.3358 77.7992 14.1378 77.8581 13.9615 77.8057ZM24.6825 81.5646C24.4912 81.5074 24.3545 81.3269 24.3614 81.1176C24.3696 80.8692 24.5776 80.6745 24.8264 80.6827C25.576 80.7072 26.3329 80.6865 27.0768 80.6208C27.3252 80.6001 27.5436 80.7824 27.565 81.0304C27.587 81.2783 27.4034 81.4971 27.1559 81.519C26.3758 81.5878 25.5824 81.6093 24.7968 81.5831C24.7568 81.5818 24.7186 81.5753 24.6825 81.5646ZM17.9614 80.0857C17.9458 80.081 17.9307 80.0758 17.9154 80.0693C17.1919 79.7659 16.4795 79.4152 15.798 79.0275C15.5818 78.9038 15.5061 78.6291 15.6293 78.413C15.7524 78.1963 16.0286 78.122 16.2439 78.2436C16.8942 78.6141 17.5739 78.9485 18.2642 79.2386C18.4937 79.3344 18.6016 79.5987 18.5054 79.8282C18.4152 80.0427 18.179 80.151 17.9614 80.0857ZM20.1369 80.8494C19.9011 80.7789 19.7652 80.5314 19.8327 80.2941C19.9007 80.0547 20.1501 79.9159 20.3895 79.9843C21.1101 80.1893 21.8494 80.3526 22.5868 80.4686C22.8307 80.509 23.0008 80.7377 22.962 80.9839C22.9231 81.2298 22.6923 81.3974 22.4466 81.3591C21.6733 81.2366 20.8982 81.0665 20.1428 80.8511C20.1409 80.8507 20.1388 80.8498 20.1369 80.8494Z" fill="#97BAF3"/>
<path d="M10.6184 74.6105C10.5351 74.5855 10.4582 74.5361 10.399 74.4639C10.1547 74.1656 9.91835 73.8584 9.69589 73.5511C9.55015 73.3495 9.59511 73.0676 9.79672 72.9215C9.99834 72.7766 10.2799 72.8213 10.4262 73.0225C10.6381 73.3156 10.8639 73.6087 11.0968 73.8936C11.2544 74.0861 11.2257 74.3702 11.0331 74.5275C10.9128 74.6259 10.757 74.6517 10.6184 74.6105Z" fill="#97BAF3"/>
<path d="M12.644 69.14C12.6814 69.2298 12.7717 69.2861 12.8688 69.2801L15.6409 69.1078C16.3989 70.1603 17.3302 71.0994 18.4155 71.8765L18.2511 74.6473C18.2453 74.7444 18.3018 74.8347 18.3918 74.8716L21.4714 76.1425C21.5615 76.1795 21.665 76.1554 21.7295 76.0828L23.5666 74.0022C24.8843 74.2162 26.2068 74.2072 27.4867 73.9953L29.3305 76.072C29.3954 76.1451 29.4989 76.1687 29.5888 76.1313L32.6652 74.8523C32.755 74.8149 32.8113 74.7247 32.8053 74.6275L32.6329 71.8554C33.6855 71.0973 34.6246 70.1659 35.4021 69.0807L38.1725 69.2453C38.2696 69.2509 38.3598 69.1946 38.3972 69.1043L39.6677 66.0249C39.7051 65.9347 39.681 65.8311 39.608 65.7666L37.5274 63.9293C37.7414 62.612 37.7324 61.2891 37.5205 60.0096L39.5972 58.1654C39.6703 58.1009 39.6939 57.9969 39.6565 57.9071L38.3775 54.8311C38.3401 54.7413 38.2498 54.685 38.1527 54.691L35.3806 54.8634C34.6224 53.8108 33.6911 52.8713 32.6059 52.0942L32.7705 49.3234C32.7761 49.2263 32.7198 49.1365 32.6295 49.0991L29.5501 47.8286C29.4598 47.7912 29.3562 47.8153 29.2918 47.8884L27.4549 49.9689C26.1371 49.7545 24.8147 49.7639 23.5348 49.9758L21.6907 47.8987C21.6261 47.826 21.5223 47.8024 21.4325 47.8398L18.3564 49.1188C18.2665 49.1562 18.2102 49.2465 18.2162 49.3436L18.3883 52.1157C17.3358 52.8734 16.3966 53.8048 15.6195 54.8904L12.8488 54.7258C12.7516 54.7202 12.6614 54.7765 12.6244 54.8668L11.3537 57.9462C11.3166 58.036 11.3406 58.1396 11.4136 58.2041L13.4941 60.0414C13.2798 61.3591 13.289 62.6816 13.5008 63.9611L11.424 65.8053C11.3512 65.8702 11.3275 65.9738 11.3648 66.0636L12.644 69.14Z" fill="#4285F4"/>
<path d="M26.2298 59.5832C26.1137 59.5484 25.9938 59.5218 25.8705 59.5037C24.502 59.3056 23.2274 60.2571 23.029 61.6256C22.933 62.2883 23.1004 62.9489 23.5011 63.4852C23.902 64.022 24.4878 64.3702 25.1506 64.4669C25.8133 64.5631 26.4743 64.3955 27.0107 63.995C27.5475 63.594 27.8961 63.0082 27.9923 62.345C28.1729 61.1008 27.401 59.9331 26.2298 59.5832ZM24.5274 65.2499C23.8311 65.0419 23.2218 64.6177 22.7789 64.0246C22.2342 63.2953 22.0063 62.397 22.1371 61.4958C22.4066 59.6361 24.1393 58.3425 25.9998 58.6119C27.8617 58.8853 29.1541 60.6147 28.8842 62.4748C28.7535 63.3761 28.2794 64.1725 27.5501 64.717C26.8203 65.262 25.9221 65.4898 25.0208 65.3587C24.8527 65.3342 24.6877 65.2976 24.5274 65.2499Z" fill="#91B3FA"/>
<path d="M23.1495 70.0888C22.8763 70.0072 22.6051 69.9113 22.336 69.8004C21.8017 69.5799 21.2892 69.3053 20.8118 68.9825C20.7904 68.9679 20.7691 68.9533 20.7477 68.9387C20.5827 68.8248 20.5171 68.6211 20.5714 68.4389C20.5845 68.3946 20.605 68.3516 20.6326 68.3116C20.7737 68.1066 21.0543 68.0564 21.2592 68.1969C21.7022 68.502 22.18 68.7612 22.6794 68.9671H22.6796C22.707 68.9782 22.7347 68.9894 22.762 69.0002C23.9481 69.4764 25.2082 69.6388 26.4451 69.494C27.1165 69.4153 27.7814 69.2456 28.4239 68.9855C28.429 68.9834 28.4342 68.9813 28.4398 68.9791C28.4557 68.9722 28.4716 68.9662 28.4875 68.9593C30.3588 68.181 31.8153 66.7206 32.5881 64.8467C32.6886 64.6043 32.7755 64.3589 32.8494 64.1109C33.3479 62.4429 33.2577 60.6687 32.5803 59.039C31.802 57.1677 30.3416 55.7116 28.4681 54.9388C26.5956 54.1669 24.5317 54.1686 22.6604 54.9461C20.789 55.7245 19.3325 57.1849 18.5594 59.0588C18.4609 59.2969 18.3751 59.5397 18.3017 59.7851C17.984 60.8492 17.9025 61.971 18.0673 63.0704C18.0774 63.1383 18.0721 63.2045 18.0535 63.2659C18.0051 63.428 17.8669 63.556 17.6885 63.5827C17.4423 63.6188 17.2129 63.4503 17.176 63.2036C16.9917 61.9736 17.0827 60.7182 17.4379 59.5281C17.5201 59.253 17.6161 58.9818 17.726 58.7149C18.5911 56.6184 20.2205 54.9848 22.3145 54.1141C24.4084 53.2437 26.7151 53.2386 28.812 54.105C30.908 54.9702 32.5421 56.5991 33.4124 58.6934C34.1705 60.5162 34.2711 62.5009 33.7137 64.3675C33.6307 64.6443 33.5336 64.9193 33.4219 65.1905C31.747 69.249 27.269 71.3197 23.1495 70.0888Z" fill="#91B3FA"/>
<path d="M76.5207 58.5142C76.1825 58.5443 75.8687 58.3148 75.8017 57.9744C75.7295 57.61 75.9663 57.2558 76.3312 57.1836C77.0777 57.0358 77.8406 56.9184 78.5987 56.8351C78.6035 56.8342 78.6082 56.8338 78.6129 56.8333C78.9769 56.8007 79.3014 57.065 79.3414 57.4299C79.3822 57.7995 79.1162 58.1317 78.7466 58.1726C78.0263 58.2521 77.3016 58.3638 76.5921 58.5039C76.5684 58.5087 76.5444 58.5121 76.5207 58.5142ZM84.5973 58.1777C84.553 58.1816 84.5079 58.1816 84.4619 58.1764C83.7428 58.0956 83.0109 58.0449 82.2863 58.0256C81.9145 58.0153 81.6214 57.7062 81.6313 57.3345C81.6416 56.9631 81.9506 56.6683 82.3224 56.6799C83.0848 56.7005 83.855 56.7538 84.6119 56.8385C84.981 56.8802 85.2471 57.2133 85.2054 57.5825C85.1693 57.9057 84.9093 58.1498 84.5973 58.1777ZM70.9369 60.2918C70.6589 60.3168 70.3834 60.1655 70.2626 59.8964C70.1109 59.5569 70.2626 59.1589 70.6017 59.0072C71.2971 58.6956 72.0144 58.4107 72.7339 58.1601C73.0854 58.0393 73.4684 58.2233 73.5909 58.5744C73.7129 58.9251 73.5277 59.3089 73.1765 59.4314C72.4932 59.6691 71.8124 59.9398 71.1518 60.2355C71.0818 60.2665 71.0091 60.2854 70.9369 60.2918ZM90.313 59.483C90.2201 59.4911 90.1243 59.4804 90.0306 59.4473C89.3481 59.2079 88.6463 58.9952 87.9444 58.8151C87.5843 58.7227 87.3672 58.3557 87.4601 57.9959C87.552 57.6358 87.9191 57.4187 88.2792 57.5111C89.0185 57.7011 89.7577 57.925 90.4763 58.1773C90.827 58.3002 91.0114 58.6844 90.8885 59.0351C90.7982 59.2926 90.5674 59.4602 90.313 59.483ZM65.8917 63.2711C65.6678 63.2909 65.4391 63.1985 65.2938 63.0055C65.0704 62.7085 65.1297 62.2865 65.4267 62.063C66.0352 61.6048 66.6709 61.1669 67.3164 60.762C67.6315 60.5648 68.0466 60.6597 68.2443 60.9748C68.4416 61.2894 68.3466 61.705 68.032 61.9022C67.4187 62.2873 66.8144 62.7029 66.2364 63.1383C66.1319 63.217 66.0129 63.2604 65.8917 63.2711ZM61.6299 67.2969C61.4567 67.312 61.2779 67.2613 61.1352 67.1401C60.8516 66.8998 60.8163 66.4752 61.0566 66.1915C61.5478 65.6113 62.0709 65.0436 62.6116 64.505C62.8746 64.2424 63.3009 64.2429 63.5631 64.5063C63.8257 64.7694 63.8248 65.1957 63.5618 65.4583C63.0478 65.9702 62.5505 66.5096 62.0838 67.0614C61.9643 67.2019 61.8001 67.2815 61.6299 67.2969ZM58.3635 72.1664C58.2402 72.1776 58.1121 72.1548 57.9944 72.0933C57.6643 71.9223 57.5358 71.5161 57.7068 71.1861C58.0584 70.5096 58.4431 69.84 58.8505 69.1957C59.0495 68.8824 59.4647 68.7887 59.7788 68.9873C60.093 69.1858 60.1867 69.6014 59.9877 69.9156C59.6009 70.5272 59.2352 71.1633 58.9016 71.8062C58.7916 72.0181 58.5849 72.1471 58.3635 72.1664ZM56.2653 77.6419C56.1905 77.6488 56.1136 77.6427 56.0371 77.623C55.677 77.5297 55.4608 77.1627 55.554 76.8029C55.7449 76.0654 55.9701 75.3266 56.2236 74.608C56.3474 74.2573 56.7321 74.0738 57.0824 74.1972C57.4326 74.3209 57.6166 74.7052 57.4928 75.0554C57.2521 75.7384 57.0381 76.4393 56.8571 77.1399C56.7837 77.4231 56.5408 77.6174 56.2653 77.6419ZM55.4449 83.4453C55.4187 83.4479 55.3916 83.4487 55.3649 83.4479C54.9932 83.4371 54.7005 83.1273 54.7112 82.7559C54.7331 81.9926 54.7882 81.2229 54.8745 80.4677C54.9167 80.0985 55.2485 79.8342 55.6194 79.8755C55.9886 79.9176 56.2537 80.2516 56.2116 80.6203C56.1295 81.3381 56.0775 82.0691 56.0569 82.7946C56.047 83.1389 55.7797 83.4156 55.4449 83.4453ZM55.9228 89.2887C55.5837 89.3192 55.2699 89.0888 55.2033 88.748C55.0572 88.0019 54.9412 87.2382 54.8586 86.4787C54.8187 86.1091 55.0856 85.7769 55.4552 85.7369C55.4595 85.7365 55.4638 85.7361 55.4681 85.7356C55.8325 85.7034 56.1575 85.9681 56.197 86.3335C56.2752 87.0551 56.3852 87.7806 56.5241 88.4893C56.5954 88.8537 56.3577 89.2074 55.9929 89.2788C55.9692 89.2835 55.946 89.287 55.9228 89.2887Z" fill="#97BAF3"/>
<path d="M94.6137 61.4449C94.4817 61.4565 94.3446 61.4298 94.2208 61.3589C93.9195 61.187 93.6097 61.0186 93.2998 60.8578C92.9697 60.6868 92.8407 60.2806 93.0114 59.9506C93.1824 59.6205 93.589 59.4912 93.9187 59.6626C94.2449 59.8315 94.5707 60.009 94.8879 60.19C95.2106 60.3739 95.3232 60.7852 95.1389 61.108C95.0254 61.3069 94.8255 61.426 94.6137 61.4449Z" fill="#91B3FA"/>
<path d="M107.046 77.7669C106.723 77.7957 106.417 77.5864 106.335 77.2615C106.25 76.9254 106.156 76.585 106.057 76.2506C105.95 75.8939 106.153 75.5195 106.51 75.4134C106.868 75.3072 107.241 75.5105 107.347 75.8668C107.451 76.2188 107.55 76.5772 107.64 76.9314C107.731 77.2915 107.513 77.6577 107.152 77.7488C107.117 77.7579 107.081 77.7635 107.046 77.7669Z" fill="#91B3FA"/>
<path d="M107.838 83.4823C107.824 83.4832 107.81 83.484 107.796 83.4844C107.425 83.4948 107.115 83.2021 107.105 82.8307C107.09 82.3064 107.059 81.7761 107.013 81.2547C106.996 81.0656 106.976 80.8774 106.956 80.69C106.915 80.3204 107.181 79.9877 107.55 79.9469C107.924 79.8979 108.252 80.1721 108.294 80.5413C108.316 80.7386 108.335 80.9363 108.353 81.1348C108.402 81.6836 108.435 82.2415 108.45 82.7929C108.46 83.1505 108.19 83.4509 107.838 83.4823ZM107.37 89.2311C107.309 89.2367 107.245 89.2333 107.182 89.2212C106.817 89.1507 106.578 88.7975 106.649 88.4326C106.785 87.7342 106.892 87.0212 106.968 86.3124C107.008 85.9428 107.34 85.6755 107.709 85.715C108.078 85.7546 108.346 86.0868 108.306 86.4564C108.226 87.2025 108.113 87.9534 107.971 88.6883C107.912 88.9896 107.661 89.2049 107.37 89.2311ZM105.65 94.7405C105.54 94.7504 105.427 94.7336 105.32 94.6864C104.98 94.5368 104.825 94.1401 104.974 93.7997C105.261 93.1469 105.523 92.4743 105.753 91.8008C105.873 91.4492 106.256 91.2614 106.607 91.3813C106.959 91.5012 107.147 91.8842 107.026 92.2357C106.784 92.9453 106.508 93.6532 106.207 94.3404C106.104 94.5733 105.886 94.7195 105.65 94.7405ZM102.763 99.7359C102.605 99.7501 102.442 99.7088 102.304 99.6078C102.005 99.3878 101.941 98.9662 102.161 98.667C102.584 98.092 102.987 97.4933 103.359 96.8869C103.553 96.5701 103.967 96.4708 104.284 96.6655C104.601 96.8602 104.7 97.2741 104.506 97.5913C104.114 98.2291 103.69 98.8596 103.245 99.4643C103.126 99.6263 102.948 99.7196 102.763 99.7359ZM98.8565 103.981C98.6493 103.999 98.4366 103.922 98.2891 103.753C98.045 103.473 98.0738 103.048 98.354 102.804C98.8908 102.335 99.4147 101.838 99.9103 101.327C100.169 101.06 100.595 101.054 100.862 101.312C101.129 101.572 101.135 101.997 100.876 102.264C100.355 102.802 99.8037 103.325 99.2385 103.818C99.1277 103.915 98.9931 103.969 98.8565 103.981ZM94.1206 107.272C93.8615 107.295 93.601 107.166 93.4691 106.922C93.2916 106.595 93.4128 106.187 93.7394 106.009C94.3643 105.671 94.9832 105.3 95.5798 104.909C95.8901 104.705 96.3074 104.791 96.5115 105.102C96.7157 105.413 96.6293 105.83 96.3186 106.034C95.6907 106.446 95.0391 106.836 94.3811 107.193C94.2981 107.238 94.2092 107.264 94.1206 107.272ZM73.8472 109.25C73.7621 109.257 73.6744 109.248 73.588 109.221C72.8716 108.999 72.156 108.742 71.4614 108.46C71.1172 108.32 70.9517 107.927 71.0918 107.583C71.2319 107.239 71.6243 107.073 71.9686 107.213C72.6283 107.481 73.3074 107.725 73.9877 107.936C74.3427 108.047 74.5409 108.424 74.4304 108.779C74.347 109.047 74.1111 109.226 73.8472 109.25ZM88.7788 109.443C88.4629 109.471 88.1616 109.272 88.0723 108.955C87.9713 108.597 88.1793 108.226 88.5373 108.124C89.2215 107.931 89.9066 107.707 90.574 107.455C90.9222 107.325 91.3103 107.5 91.4409 107.849C91.572 108.196 91.3958 108.584 91.0481 108.715C90.345 108.98 89.6234 109.217 88.9026 109.42C88.8613 109.432 88.8201 109.439 88.7788 109.443ZM79.5139 110.343C79.4761 110.346 79.4378 110.346 79.3992 110.343C78.6505 110.283 77.8962 110.19 77.1574 110.068C76.7908 110.007 76.5428 109.661 76.6034 109.294C76.6644 108.928 77.0113 108.679 77.3774 108.74C78.0793 108.857 78.7957 108.944 79.507 109.002C79.8775 109.032 80.1539 109.356 80.1238 109.727C80.0971 110.058 79.8345 110.314 79.5139 110.343ZM83.9966 110.322C83.6884 110.35 83.3781 110.372 83.0665 110.389C82.6956 110.41 82.378 110.126 82.3574 109.755C82.3368 109.383 82.6226 109.064 82.9922 109.045C83.7112 109.006 84.4272 108.936 85.1282 108.839C85.4965 108.788 85.8361 109.045 85.8872 109.413C85.9384 109.781 85.6814 110.121 85.3135 110.172C84.8798 110.233 84.4367 110.283 83.9966 110.322Z" fill="#97BAF3"/>
<path d="M68.5482 106.927C68.4149 106.939 68.277 106.911 68.1523 106.839C67.8369 106.657 67.5193 106.465 67.2086 106.268C66.8944 106.069 66.8011 105.653 67.0001 105.339C67.1991 105.025 67.6147 104.932 67.9289 105.131C68.2241 105.318 68.5258 105.501 68.8254 105.674C69.1473 105.859 69.2577 106.271 69.0716 106.593C68.9577 106.79 68.7592 106.908 68.5482 106.927Z" fill="#97BAF3"/>
<path d="M68.7573 99.071C68.851 99.1669 68.9954 99.1931 69.117 99.1355L72.5781 97.5002C74.0862 98.4607 75.7581 99.1879 77.5443 99.6289L78.7481 103.26C78.7902 103.388 78.9089 103.474 79.043 103.476L83.6344 103.531C83.7689 103.532 83.8892 103.449 83.9344 103.322L85.2246 99.7209C87.0211 99.3225 88.7097 98.6357 90.2402 97.7112L93.6613 99.429C93.7812 99.4892 93.926 99.4664 94.0223 99.3727L97.308 96.1648C97.4039 96.0711 97.4296 95.9267 97.3725 95.8055L95.7371 92.344C96.6977 90.8363 97.4249 89.1645 97.8659 87.3783L101.498 86.174C101.625 86.1319 101.711 86.0137 101.713 85.8796L101.768 81.2878C101.769 81.1537 101.686 81.0329 101.559 80.9878L97.9574 79.6975C97.5594 77.901 96.8726 76.2124 95.9482 74.6824L97.666 71.2608C97.7258 71.1409 97.7034 70.9961 97.6097 70.8998L94.4018 67.6145C94.3081 67.5183 94.1637 67.4925 94.0425 67.5496L90.581 69.1854C89.0733 68.2244 87.4014 67.4972 85.6152 67.0562L84.411 63.425C84.3689 63.2973 84.2507 63.2109 84.1166 63.2092L79.5247 63.1546C79.3906 63.1529 79.2699 63.2367 79.2247 63.3631L77.9345 66.9647C76.138 67.3627 74.4494 68.0499 72.9194 68.9739L69.4978 67.2565C69.3779 67.1963 69.2331 67.2187 69.1368 67.3124L65.8515 70.5203C65.7552 70.6144 65.7295 70.7584 65.7866 70.88L67.422 74.3411C66.4614 75.8492 65.7342 77.5211 65.2932 79.3073L61.662 80.5111C61.5343 80.5533 61.4479 80.6719 61.4462 80.806L61.3916 85.3974C61.3899 85.5319 61.4737 85.6522 61.6001 85.6974L65.2017 86.9876C65.5997 88.7841 66.2869 90.4727 67.2109 92.0032L65.4935 95.4243C65.4333 95.5442 65.4557 95.689 65.5494 95.7853L68.7573 99.071Z" fill="#4285F4"/>
<path d="M81.273 79.8161C81.1002 79.8315 80.927 79.8599 80.7551 79.9012C78.8575 80.3559 77.6838 82.2702 78.1389 84.1677C78.5936 86.0652 80.5075 87.2398 82.4055 86.7842C84.303 86.3291 85.4768 84.4148 85.022 82.5177C84.8015 81.598 84.2364 80.8196 83.4305 80.3254C82.7755 79.9239 82.0247 79.749 81.273 79.8161ZM81.9877 87.9408C79.7463 88.1406 77.6318 86.6708 77.0915 84.4191C76.4984 81.9435 78.0289 79.4477 80.5041 78.8538C81.7032 78.5662 82.9423 78.7631 83.9931 79.4073C85.0444 80.052 85.7815 81.0672 86.069 82.2663C86.6625 84.7414 85.1316 87.2377 82.6565 87.8312C82.4334 87.8845 82.2099 87.921 81.9877 87.9408Z" fill="#91B3FA"/>
<path d="M82.6734 94.5729C82.2887 94.6073 81.8998 94.6223 81.5082 94.6176C81.3849 94.6163 81.2615 94.6129 81.1382 94.6073C80.5309 94.5807 79.9266 94.5054 79.3344 94.3834C79.3266 94.3817 79.3185 94.3799 79.3103 94.3782C79.2875 94.3735 79.2647 94.3688 79.2415 94.3636C79.1973 94.3542 79.1526 94.3443 79.1083 94.334C78.9918 94.3077 78.9102 94.2089 78.8998 94.0959C78.8977 94.0684 78.8994 94.04 78.9059 94.0116C78.939 93.8668 79.0834 93.7765 79.2282 93.8092C79.9739 93.9794 80.7432 94.0701 81.5142 94.0791C85.3449 94.1255 88.7402 92.1631 90.6971 89.1726C91.7853 87.5098 92.4287 85.5285 92.454 83.398C92.4588 83.0245 92.4441 82.6532 92.4111 82.2862C92.1906 79.8153 91.1354 77.5151 89.3789 75.7164C87.3619 73.65 84.6603 72.493 81.773 72.4586C75.8092 72.3877 70.9045 77.179 70.8332 83.1397C70.8289 83.5072 70.8431 83.8738 70.8757 84.2374C71.0167 85.8134 71.5006 87.3409 72.2988 88.7089C72.3194 88.7446 72.331 88.7824 72.3344 88.8206C72.3435 88.9212 72.2953 89.0231 72.202 89.0772C72.0731 89.1516 71.9089 89.109 71.8337 88.9801C70.9961 87.5437 70.4872 85.9398 70.3394 84.2855C70.3054 83.9039 70.2904 83.5192 70.2947 83.1333C70.3694 76.8751 75.5234 71.8453 81.7794 71.9201C84.8107 71.9562 87.6464 73.1708 89.7644 75.3399C91.6082 77.2284 92.7158 79.6434 92.9474 82.2372C92.9818 82.6227 92.9968 83.0121 92.9925 83.4045C92.956 86.4358 91.7414 89.2719 89.5727 91.3895C87.6838 93.2337 85.268 94.3413 82.6734 94.5729Z" fill="#91B3FA"/>
<path d="M81.1283 15.3482C81.1283 15.3482 82.4885 16.0096 82.7387 16.7699C82.9394 17.3793 84.4432 17.458 84.5919 18.6575C84.6684 19.2769 85.1266 19.7724 85.7433 19.867C87.2793 20.1025 89.6466 20.9002 90.0252 23.567C90.3145 25.6025 89.277 26.3744 88.1879 26.6417C87.3876 26.8381 86.8564 27.616 87.018 28.4236C87.1732 29.1981 86.942 30.0937 85.5997 30.8016C82.593 32.3884 79.5901 27.0427 79.5901 27.0427L78.9746 17.7086L81.1283 15.3482Z" fill="#033582"/>
<path d="M68.7586 9.80661C68.7586 9.80661 71.563 20.6862 77.7966 24.6205C77.7966 24.6205 75.2579 27.9659 74.0966 28.0682C74.0966 28.0682 67.9824 18.3998 68 10.9799L68.7586 9.80661Z" fill="url(#paint0_linear)"/>
<path d="M93.489 73.876L93.6833 75.4757C93.7202 75.7791 93.9592 76.0194 94.263 76.0542C94.7758 76.1126 95.5988 76.1728 96.4038 76.0877C96.7575 76.0503 96.9866 75.6923 96.8791 75.3536C96.6827 74.736 96.3239 73.809 95.806 73.2636H94.0314C93.7035 73.2636 93.449 73.5507 93.489 73.876Z" fill="#042A65"/>
<path d="M79.5905 55.1369L79.2909 56.8986C79.2909 56.8986 80.2936 67.0588 80.472 71.1224C80.5003 71.7598 80.3353 72.3894 80.0009 72.9322L78.2568 75.7645L82.6892 73.1488L82.7778 72.6082L82.0519 71.6102L83.0026 60.229C83.0584 59.5603 82.9205 58.8898 82.605 58.2976L81.6883 56.575L79.5905 55.1369Z" fill="url(#paint1_linear)"/>
<path d="M77.9651 76.1751H79.3795C79.6443 76.1751 79.894 76.0535 80.0556 75.8437C80.4965 75.2704 81.4103 74.1525 81.8469 74.1233C82.4349 74.0842 82.3597 76.1751 82.3597 76.1751H82.6893L83.1071 73.577C83.2119 72.9233 82.887 72.2756 82.2999 71.9696C82.2999 71.9696 82.1654 72.9637 81.4365 73.4034C80.7076 73.8431 78.4701 75.4182 78.4701 75.4182C78.4701 75.4182 78.1963 75.3791 77.8955 75.4333C77.4489 75.5141 77.5112 76.1751 77.9651 76.1751Z" fill="#042A65"/>
<path d="M85.6611 55.9738C85.6611 55.9738 91.5367 67.1199 92.471 69.6651C93.4049 72.2099 93.732 74.3326 93.7449 74.5337C93.7642 74.8479 94.1549 75.1492 95.2319 75.1492C95.7876 75.1492 96.0601 74.9265 96.1933 74.7108C96.3072 74.5268 96.3128 74.2965 96.217 74.1026C95.877 73.4146 94.7987 71.2162 94.399 70.2195C93.9219 69.029 92.896 63.6339 92.3335 61.7583C91.7709 59.8827 91.1348 57.8481 88.6846 55.9738C88.6846 55.9738 87.0025 54.3264 85.6611 55.9738Z" fill="url(#paint2_linear)"/>
<path d="M81.9499 37.71C80.4341 31.2872 84.2738 27.6547 84.2738 27.6547C81.8511 25.3291 77.4367 24.2705 77.4367 24.2705C77.4367 24.2705 73.2243 27.3504 73.7238 29.7606C74.0169 31.1733 76.685 38.2231 76.685 38.2231C76.685 38.2231 79.152 39.3904 81.9499 37.71Z" fill="#FA81A2"/>
<path d="M85.3092 40.89C84.6925 39.0316 81.9487 37.71 81.9487 37.71C79.1508 39.3905 76.6839 38.2232 76.6839 38.2232C76.6839 38.2232 76.1303 40.3377 76.5124 42.3031C76.894 44.2685 79.2901 56.8987 79.2901 56.8987C83.0649 57.6637 88.8708 56.1293 88.8708 56.1293C86.4662 51.8603 85.9259 42.7484 85.3092 40.89Z" fill="#042A65"/>
<path d="M80.1896 20.0264L81.4218 25.5616C81.54 26.049 81.0956 25.9695 80.6026 25.8766C79.7951 25.7241 78.7546 25.4108 78.4069 24.7828C78.3716 24.7188 78.354 24.6466 78.3441 24.574L77.8146 20.7356C77.7725 20.4313 77.9371 20.1356 78.2182 20.011L79.2398 19.558C79.633 19.3835 80.0886 19.6078 80.1896 20.0264Z" fill="url(#paint3_linear)"/>
<path d="M78.7436 14.756C78.7436 14.756 77.284 15.3719 76.2916 17.4813C75.2992 19.5902 76.0402 20.5637 76.9711 20.6973C77.9021 20.8314 79.2941 20.8108 80.7666 19.4484C82.239 18.086 80.6407 14.0254 78.7436 14.756Z" fill="url(#paint4_linear)"/>
<path d="M79.7772 18.3228C79.7772 18.3228 80.8783 15.237 78.1428 15.2004L77.499 15.6504C77.499 15.6504 76.4955 13.9399 78.1428 13.1233C79.7901 12.3067 81.7181 12.981 82.4195 15.2004C83.1205 17.4203 83.2404 18.906 82.074 19.9676C80.9076 21.0296 80.4266 19.8258 80.4266 19.8258C80.4266 19.8258 81.0619 18.8326 80.8036 18.3009C80.5448 17.7697 79.9483 18.4109 79.9483 18.4109L79.7772 18.3228Z" fill="#042A65"/>
<path d="M80.0835 18.6662C80.0835 18.6662 80.6401 17.0769 81.3827 17.7099C82.1258 18.343 80.7793 19.178 80.2524 19.4484L80.0835 18.6662Z" fill="url(#paint5_linear)"/>
<path d="M68.1983 11.68C68.1209 11.8609 68.7729 12.2129 69.2496 11.4891C69.2999 11.1247 69.6789 9.57831 69.4898 9.25855C68.4833 7.55402 67.2631 7.32839 67.2631 7.32839C66.9927 7.71992 66.6786 8.0414 66.4976 8.52964C66.3605 8.89882 66.3807 9.31055 66.538 9.67457C66.6958 10.0403 66.9132 10.517 67.126 10.8943C67.5291 11.6082 68.1983 11.68 68.1983 11.68Z" fill="url(#paint6_linear)"/>
<path d="M84.9549 29.3645C84.9549 29.3645 73.6828 43.1287 65.2607 27.4562C65.2607 27.4562 65.0991 27.0561 65.2001 26.4772C65.2513 26.1853 65.0583 25.1496 64.9521 24.6201C64.9178 24.4499 65.039 24.2891 65.2117 24.2724C65.3467 24.2595 65.4795 24.3162 65.5637 24.4232L67.1019 26.3822C67.2167 26.7703 67.0319 27.1837 66.6661 27.3569C66.4332 27.4678 66.3597 27.764 66.5161 27.969C72.9208 36.3648 83.6333 27.1519 83.8297 27.2602C84.5251 27.644 85.3288 28.0682 84.9549 29.3645Z" fill="#FFCDCC"/>
<path d="M78.2084 118.673C78.4521 118.673 78.6497 118.516 78.6497 118.324V76.6349C78.6497 76.442 78.4521 76.286 78.2084 76.286C77.9643 76.286 77.7666 76.442 77.7666 76.6349V118.324C77.7666 118.516 77.9643 118.673 78.2084 118.673Z" fill="#2A4C81"/>
<path d="M90.1689 118.673C90.4126 118.673 90.6103 118.516 90.6103 118.324V76.6349C90.6103 76.442 90.4126 76.286 90.1689 76.286C89.9248 76.286 89.7275 76.442 89.7275 76.6349V118.324C89.7275 118.516 89.9248 118.673 90.1689 118.673Z" fill="#2A4C81"/>
<path d="M119.559 118.937C119.616 118.937 119.675 118.928 119.731 118.909C119.955 118.834 120.06 118.629 119.965 118.451L97.3924 76.4982C97.297 76.3211 97.0374 76.2386 96.8135 76.3138C96.5892 76.389 96.4843 76.594 96.5797 76.7711L119.152 118.725C119.223 118.857 119.387 118.937 119.559 118.937Z" fill="#2A4C81"/>
<path d="M105.616 118.937C105.674 118.937 105.732 118.928 105.789 118.909C106.013 118.834 106.117 118.629 106.022 118.451L83.45 76.4982C83.3546 76.3211 83.095 76.2386 82.8711 76.3138C82.6468 76.389 82.5419 76.594 82.6373 76.7711L105.21 118.725C105.281 118.857 105.444 118.937 105.616 118.937Z" fill="#2A4C81"/>
<path d="M77.5227 77.0182H98.1993C98.5431 77.0182 98.8216 76.7981 98.8216 76.5265C98.8216 76.2553 98.5431 76.0353 98.1993 76.0353H77.5227C77.1789 76.0353 76.9004 76.2553 76.9004 76.5265C76.9004 76.7981 77.1789 77.0182 77.5227 77.0182Z" fill="#2A4C81"/>
<path d="M86.4541 83.3984H100.438C100.682 83.3984 100.88 83.2424 100.88 83.0494C100.88 82.8568 100.682 82.7008 100.438 82.7008H86.4541C86.2104 82.7008 86.0127 82.8568 86.0127 83.0494C86.0127 83.2424 86.2104 83.3984 86.4541 83.3984Z" fill="#2A4C81"/>
<path d="M90.7441 91.3328H104.728V90.6352H90.7441V91.3328Z" fill="#2A4C81"/>
<path d="M94.8975 99.2672H108.881V98.5698H94.8975V99.2672Z" fill="#2A4C81"/>
<path d="M99.2549 107.202H113.239C113.483 107.202 113.68 107.046 113.68 106.853C113.68 106.661 113.483 106.504 113.239 106.504H99.2549C99.0112 106.504 98.8135 106.661 98.8135 106.853C98.8135 107.046 99.0112 107.202 99.2549 107.202Z" fill="#2A4C81"/>
<path d="M103.465 115.136H117.449C117.693 115.136 117.891 114.98 117.891 114.788C117.891 114.595 117.693 114.439 117.449 114.439H103.465C103.222 114.439 103.024 114.595 103.024 114.788C103.024 114.98 103.222 115.136 103.465 115.136Z" fill="#2A4C81"/>
<path d="M36.9428 118.281C35.5477 117.066 32.5495 116.093 32.5495 116.093L30.7457 116.133C30.2879 116.648 30.0812 117.646 29.9927 118.272C30.3322 118.475 30.9687 118.653 32.1356 118.709C34.2966 118.812 36.0406 118.496 36.9428 118.281Z" fill="#2C66BF"/>
<path d="M36.9427 118.281C36.0406 118.496 34.2966 118.812 32.1356 118.709C30.9688 118.653 30.3323 118.475 29.9927 118.272C29.9854 118.322 29.979 118.371 29.9734 118.416C29.9412 118.672 30.0997 118.913 30.3473 118.989C31.9951 119.494 35.619 119.332 37.0317 119.244C37.3338 119.225 37.4916 118.871 37.2982 118.638C37.1976 118.517 37.0773 118.398 36.9427 118.281Z" fill="#042A65"/>
<path d="M31.5911 114.575L30.8936 116.01C30.8936 116.286 31.0861 116.524 31.356 116.583C31.6354 116.643 32.0063 116.682 32.3664 116.593C32.5912 116.537 32.7562 116.343 32.7833 116.113L33.6618 114.575H31.5911Z" fill="url(#paint7_linear)"/>
<path d="M1.78109 114.842C1.2561 113.674 1.40631 113.148 0.367008 113.264C0.24207 113.278 0.138319 113.302 0.0506859 113.334C-0.0148563 113.527 -0.0191106 113.74 0.0512882 113.943C0.314016 114.699 0.514466 116.165 1.5221 117.436C1.73385 117.704 2.05774 117.858 2.39864 117.865L3.54462 117.883C2.45787 117.015 2.21663 115.812 1.78109 114.842Z" fill="#042A65"/>
<path d="M3.61781 116.15C2.73834 115.531 2.75871 112.828 2.75871 112.828L1.40321 112.138L0.381089 112.879C0.223013 112.996 0.11144 113.156 0.0512695 113.334C0.138903 113.302 0.242654 113.278 0.367593 113.264C1.4069 113.148 1.25669 113.673 1.78168 114.842C2.21722 115.812 2.45846 117.015 3.54522 117.883L4.33276 117.896C4.68661 117.902 4.89102 117.498 4.67647 117.217C4.40738 116.863 4.03922 116.447 3.61781 116.15Z" fill="#2C66BF"/>
<path d="M2.76595 110.865L1.2501 112.138C1.14666 112.299 1.18181 112.512 1.33215 112.63C1.59445 112.836 2.0489 113.067 2.6056 112.828L4.26904 111.927L2.76595 110.865Z" fill="url(#paint8_linear)"/>
<path d="M1.76095 111.493L3.00475 112.42C3.18737 112.589 3.63739 112.607 3.83918 112.461C5.90147 110.974 25.4616 101.983 29.3374 100.579L26.3788 94.3676C26.3788 94.3676 1.23901 111.012 1.76095 111.493Z" fill="#042A65"/>
<path d="M41.4933 99.4278C39.1862 98.1896 32.7605 97.119 32.7605 97.119L25.2861 95.0955C25.2861 95.0955 23.234 101.217 26.8299 102.322C30.4259 103.427 35.6238 102.903 37.8028 102.615C37.8028 102.615 34.8897 104.707 31.402 114.843C31.402 114.843 32.5757 114.868 33.5307 115.091C33.5307 115.091 41.3145 105.403 42.1303 102.903C42.6684 101.255 43.4222 100.463 41.4933 99.4278Z" fill="#033582"/>
<path d="M45.9664 79.2424C44.35 79.1285 39.4375 80.1961 39.4375 80.1961L41.9599 82.2703C41.9599 82.2703 43.9481 81.7864 45.2732 81.5276C45.2732 81.5276 48.5438 79.4238 45.9664 79.2424Z" fill="url(#paint9_linear)"/>
<path d="M51.7405 80.7102C51.7405 80.7102 49.5744 82.7216 48.2584 83.2679C46.9424 83.8137 46.1731 84.409 45.3578 82.952C44.5425 81.495 44.8562 79.916 45.9445 78.7379C45.9445 78.7379 47.615 76.9049 48.5459 76.8572C49.4773 76.8099 51.7405 80.7102 51.7405 80.7102Z" fill="url(#paint10_linear)"/>
<path d="M47.0921 78.9309L47.1613 79.1269C47.1613 79.1269 48.5353 77.7361 49.076 78.3443C49.6171 78.952 51.1789 81.5643 52.3905 81.8209C53.5587 82.068 54.6185 81.1091 54.692 80.2061C54.6967 80.149 54.6529 80.0991 54.5962 80.0905L54.4513 80.0686C54.3516 80.054 54.3211 79.9255 54.4028 79.8675C54.4805 79.812 54.4582 79.6891 54.3654 79.668C54.0013 79.5872 53.3395 79.2546 52.6161 77.9927C51.5902 76.2017 50.3705 75.208 49.0365 75.6417C48.9518 75.6692 48.874 75.5957 48.8925 75.5089C48.929 75.337 48.8899 75.0967 48.5298 74.8836C47.9027 74.5131 46.8317 75.1311 46.2927 76.6152C46.2674 76.6857 46.1818 76.7153 46.1221 76.6694C45.9128 76.5082 45.4796 76.3105 45.3317 77.2694C45.1804 78.2501 45.4001 78.7216 45.5122 78.8897C45.5423 78.9348 45.599 78.9524 45.6493 78.9309L46.7964 78.4466C46.8557 78.4216 46.9241 78.4517 46.9456 78.5128L47.0921 78.9309Z" fill="#042A65"/>
<path d="M46.8641 79.0649C46.8641 79.0649 48.3485 78.0665 47.6329 77.4948C46.9178 76.9236 45.9362 78.5182 46.0819 79.1285L46.8641 79.0649Z" fill="url(#paint11_linear)"/>
<path d="M60.3838 85.4202C60.3838 85.4202 61.6026 85.8534 61.8274 85.1279C62.0526 84.4029 61.4242 82.4692 61.8226 82.2023C62.2215 81.9354 62.9104 80.6009 62.6921 79.9914L62.1927 80.4655C62.1927 80.4655 62.5331 79.3467 62.1596 78.8701L61.2145 81.3006C61.2145 81.3006 59.9617 84.1923 60.3838 85.4202Z" fill="url(#paint12_linear)"/>
<path d="M38.3586 80.5928C38.3586 80.5928 40.5311 78.1954 45.2803 81.9372C48.5536 84.5155 60.3482 83.9916 60.3482 83.9916C60.3482 83.9916 60.3422 84.6595 60.5734 85.4662C60.5734 85.4662 50.6754 88.1416 43.2457 86.3253C43.2457 86.3253 35.0363 95.6315 34.4041 97.4538C34.4041 97.4538 29.0691 98.2507 25.2861 95.0956C25.2861 95.0956 26.3009 91.9487 29.5857 88.3002C33.8514 83.5631 38.3586 80.5928 38.3586 80.5928Z" fill="#FABB05"/>
<path d="M39.4992 85.3875C39.4596 85.3729 39.4373 85.3299 39.4489 85.2886C39.4609 85.2452 39.5065 85.2199 39.5499 85.2319C39.5778 85.2401 42.3762 86.0257 42.8176 86.1349C42.861 86.146 42.8881 86.1903 42.8773 86.2341C42.8666 86.278 42.8219 86.3046 42.778 86.2939C42.3345 86.1839 39.534 85.3974 39.5056 85.3896C39.5034 85.3888 39.5013 85.3883 39.4992 85.3875Z" fill="#EDA606"/>
<defs>
<linearGradient id="paint0_linear" x1="71.6528" y1="15.4467" x2="77.3874" y2="33.0611" gradientUnits="userSpaceOnUse">
<stop stop-color="#FFCDCC"/>
<stop offset="1" stop-color="#FF928E"/>
</linearGradient>
<linearGradient id="paint1_linear" x1="79.0292" y1="88.1875" x2="83.9524" y2="30.6472" gradientUnits="userSpaceOnUse">
<stop stop-color="#FFCDCC"/>
<stop offset="1" stop-color="#FF928E"/>
</linearGradient>
<linearGradient id="paint2_linear" x1="88.9318" y1="89.0442" x2="93.8564" y2="31.4885" gradientUnits="userSpaceOnUse">
<stop stop-color="#FFCDCC"/>
<stop offset="1" stop-color="#FF928E"/>
</linearGradient>
<linearGradient id="paint3_linear" x1="78.5947" y1="28.9032" x2="80.4226" y2="18.7052" gradientUnits="userSpaceOnUse">
<stop stop-color="#FFCDCC"/>
<stop offset="1" stop-color="#FF928E"/>
</linearGradient>
<linearGradient id="paint4_linear" x1="76.1541" y1="22.747" x2="84.223" y2="8.38683" gradientUnits="userSpaceOnUse">
<stop stop-color="#FFCDCC"/>
<stop offset="1" stop-color="#FF928E"/>
</linearGradient>
<linearGradient id="paint5_linear" x1="77.8719" y1="23.7121" x2="85.9407" y2="9.35237" gradientUnits="userSpaceOnUse">
<stop stop-color="#FEBBBA"/>
<stop offset="1" stop-color="#FF928E"/>
</linearGradient>
<linearGradient id="paint6_linear" x1="69.7133" y1="14.6884" x2="73.674" y2="26.8543" gradientUnits="userSpaceOnUse">
<stop stop-color="#FFCDCC"/>
<stop offset="1" stop-color="#FF928E"/>
</linearGradient>
<linearGradient id="paint7_linear" x1="30.8936" y1="115.61" x2="33.6619" y2="115.61" gradientUnits="userSpaceOnUse">
<stop stop-color="#FFCDCC"/>
<stop offset="1" stop-color="#FF928E"/>
</linearGradient>
<linearGradient id="paint8_linear" x1="1.19092" y1="111.897" x2="4.26905" y2="111.897" gradientUnits="userSpaceOnUse">
<stop stop-color="#FFCDCC"/>
<stop offset="1" stop-color="#FF928E"/>
</linearGradient>
<linearGradient id="paint9_linear" x1="51.496" y1="74.7127" x2="40.913" y2="81.8321" gradientUnits="userSpaceOnUse">
<stop stop-color="#FFCDCC"/>
<stop offset="1" stop-color="#FF928E"/>
</linearGradient>
<linearGradient id="paint10_linear" x1="48.5416" y1="83.9027" x2="47.8682" y2="75.244" gradientUnits="userSpaceOnUse">
<stop stop-color="#FFCDCC"/>
<stop offset="1" stop-color="#FF928E"/>
</linearGradient>
<linearGradient id="paint11_linear" x1="47.3802" y1="83.9932" x2="46.7067" y2="75.3339" gradientUnits="userSpaceOnUse">
<stop stop-color="#FFCDCC"/>
<stop offset="1" stop-color="#FF928E"/>
</linearGradient>
<linearGradient id="paint12_linear" x1="60.0902" y1="85.2474" x2="63.4115" y2="79.6073" gradientUnits="userSpaceOnUse">
<stop stop-color="#FFCDCC"/>
<stop offset="1" stop-color="#FF928E"/>
</linearGradient>
</defs>
</svg>
