<svg width="801" height="803" viewBox="0 0 801 803" fill="none" xmlns="http://www.w3.org/2000/svg">
<path d="M697.991 671.967C677.533 693.052 659.23 705.447 645.216 714.805C508.532 806.069 352.29 779.766 303.985 770.775C226.05 756.268 160.261 746.037 103.737 694.969C-24.7034 578.927 -18.4563 336.859 79.6876 186.906C91.3245 169.127 189.321 23.8676 345.901 3.3983C349.729 2.89975 352.588 2.61318 355.09 2.34958C379.313 -0.217686 529.414 -13.7531 651.809 88.7884C669.327 103.467 697.524 129.945 723.669 170.325C819.268 317.971 819.572 546.644 697.991 671.967" fill="#F0F6FF"/>
<path d="M426.891 26.3119C424.722 25.4809 423.484 23.1286 424.095 20.8335C424.748 18.378 427.269 16.9167 429.725 17.5671C434.756 18.9023 439.796 20.4725 444.704 22.2404C444.736 22.2489 444.767 22.2604 444.796 22.2719C447.128 23.1658 448.329 25.7646 447.481 28.1256C446.621 30.5181 443.985 31.7615 441.593 30.8991C436.928 29.2258 432.14 27.733 427.361 26.4637C427.2 26.4208 427.043 26.3692 426.891 26.3119V26.3119ZM477.52 48.5147C477.236 48.4058 476.961 48.2683 476.695 48.0992C472.52 45.4431 468.174 42.9332 463.781 40.6352C461.529 39.4548 460.658 36.6754 461.833 34.4234C463.013 32.1713 465.795 31.2859 468.045 32.4778C472.669 34.8961 477.242 37.535 481.635 40.3315C483.778 41.6954 484.411 44.5406 483.047 46.6838C481.852 48.5634 479.523 49.2797 477.52 48.5147V48.5147ZM387.245 20.4524C385.462 19.7676 384.225 18.0112 384.293 15.997C384.379 13.4555 386.508 11.467 389.047 11.553C394.256 11.7278 399.519 12.1346 404.691 12.7564C407.213 13.0716 409.015 15.3494 408.711 17.8766C408.407 20.398 406.115 22.2002 403.591 21.8965C398.677 21.3034 393.68 20.9195 388.737 20.7533C388.21 20.7332 387.709 20.6301 387.245 20.4524ZM508.711 73.7087C508.118 73.4795 507.562 73.1243 507.084 72.64C503.614 69.1215 499.941 65.7033 496.17 62.4856C494.236 60.8381 494.004 57.9327 495.654 55.9987C497.302 54.0646 500.207 53.8354 502.144 55.4829C506.115 58.8725 509.983 62.4684 513.639 66.1761C515.424 67.9869 515.404 70.9008 513.593 72.6859C512.267 73.9953 510.347 74.3334 508.711 73.7087ZM347.297 23.5956C345.862 23.0455 344.733 21.7876 344.421 20.1659C343.942 17.6703 345.575 15.2577 348.071 14.7764C353.185 13.7907 358.409 13.0114 363.589 12.4612C366.119 12.1948 368.383 14.0285 368.652 16.5557C368.918 19.0828 367.085 21.3492 364.557 21.6186C359.635 22.14 354.672 22.8764 349.813 23.8134C348.936 23.9853 348.074 23.8907 347.297 23.5956V23.5956ZM309.017 35.5208C307.909 35.0938 306.963 34.2429 306.45 33.071C305.427 30.7415 306.487 28.0282 308.814 27.0081C313.579 24.9194 318.499 23.0025 323.438 21.3177C325.842 20.4954 328.461 21.7791 329.281 24.1859C330.1 26.5927 328.816 29.2086 326.412 30.031C321.716 31.6298 317.04 33.4521 312.513 35.4348C311.358 35.942 310.109 35.9391 309.017 35.5208V35.5208ZM274.316 55.6233C273.526 55.3196 272.809 54.7953 272.268 54.0646C270.755 52.0217 271.188 49.1393 273.231 47.6264C277.422 44.5234 281.798 41.5664 286.236 38.8358C288.399 37.5064 291.233 38.1797 292.568 40.3429C293.9 42.5062 293.224 45.3428 291.058 46.6751C286.843 49.2682 282.689 52.079 278.706 55.0273C277.394 55.9958 275.735 56.1677 274.316 55.6233V55.6233ZM244.973 82.9549C244.495 82.7716 244.039 82.5051 243.627 82.1527C241.696 80.4994 241.472 77.5941 243.125 75.6629C246.512 71.7031 250.117 67.8436 253.836 64.1904C255.649 62.4082 258.56 62.4369 260.343 64.2477C262.125 66.0586 262.099 68.9754 260.288 70.7547C256.755 74.2245 253.334 77.8892 250.117 81.6484C248.816 83.1698 246.738 83.6311 244.973 82.9549V82.9549ZM222.493 116.143C222.324 116.077 222.157 116.003 221.994 115.917C219.745 114.736 218.877 111.951 220.06 109.702C222.487 105.08 225.137 100.516 227.937 96.1379C229.303 93.9947 232.137 93.3701 234.292 94.7368C236.435 96.1064 237.06 98.9516 235.693 101.092C233.034 105.255 230.515 109.59 228.209 113.986C227.111 116.071 224.642 116.965 222.493 116.143V116.143ZM207.868 153.477C205.697 152.646 204.459 150.288 205.075 147.993C206.419 142.97 208 137.933 209.777 133.017C210.642 130.627 213.281 129.389 215.671 130.252C215.699 130.263 215.728 130.274 215.754 130.286C218.089 131.18 219.289 133.784 218.435 136.145C216.748 140.816 215.244 145.601 213.966 150.371C213.31 152.827 210.785 154.285 208.33 153.629C208.172 153.586 208.017 153.535 207.868 153.477Z" fill="#97BAF3"/>
<path d="M529.229 98.6795C528.384 98.3558 527.622 97.7798 527.074 96.9718C525.739 95.0091 524.341 93.0436 522.92 91.1239C521.407 89.0838 521.837 86.1985 523.877 84.6857C525.92 83.1728 528.805 83.5968 530.315 85.6426C531.814 87.6626 533.281 89.7314 534.687 91.7944C536.114 93.8975 535.57 96.7598 533.47 98.1896C532.175 99.0721 530.59 99.201 529.229 98.6795" fill="#91B3FA"/>
<path d="M556.566 236.317C554.492 235.521 553.243 233.317 553.712 231.074C554.2 228.753 554.649 226.381 555.042 224.025C555.463 221.518 557.835 219.828 560.34 220.246C562.858 220.667 564.54 223.04 564.122 225.544C563.706 228.022 563.234 230.521 562.721 232.968C562.199 235.455 559.758 237.048 557.271 236.524C557.027 236.475 556.79 236.403 556.566 236.317" fill="#91B3FA"/>
<path d="M544.257 273.809C544.168 273.775 544.082 273.738 543.993 273.697C541.681 272.646 540.658 269.915 541.71 267.603C543.197 264.337 544.598 260.987 545.879 257.643C546.343 256.431 546.793 255.217 547.228 254.005C548.085 251.612 550.721 250.366 553.114 251.225C555.555 252.045 556.752 254.718 555.893 257.108C555.437 258.388 554.965 259.661 554.475 260.936C553.128 264.454 551.652 267.978 550.091 271.414C549.076 273.64 546.512 274.672 544.257 273.809V273.809ZM524.109 307.722C523.713 307.57 523.335 307.361 522.983 307.095C520.951 305.565 520.547 302.677 522.08 300.651C525.008 296.766 527.811 292.708 530.406 288.58C531.762 286.431 534.61 285.789 536.756 287.138C538.905 288.494 539.552 291.336 538.197 293.488C535.464 297.829 532.512 302.104 529.429 306.192C528.163 307.868 525.974 308.436 524.109 307.722V307.722ZM496.98 336.398C496.281 336.131 495.637 335.687 495.118 335.074C493.476 333.134 493.72 330.232 495.66 328.59C499.382 325.438 503.012 322.094 506.447 318.648C508.244 316.848 511.161 316.845 512.957 318.639C514.756 320.433 514.762 323.347 512.966 325.146C509.347 328.779 505.525 332.3 501.605 335.616C500.276 336.739 498.499 336.979 496.98 336.398ZM464.233 358.411C463.222 358.025 462.345 357.283 461.804 356.248C460.626 353.996 461.497 351.214 463.749 350.036C468.073 347.776 472.348 345.309 476.457 342.701C478.603 341.34 481.445 341.974 482.809 344.122C484.17 346.269 483.534 349.111 481.388 350.475C477.064 353.217 472.566 355.816 468.016 358.194C466.798 358.83 465.425 358.87 464.233 358.411V358.411ZM427.481 372.755C426.151 372.245 425.077 371.127 424.679 369.649C424.02 367.194 425.475 364.669 427.931 364.01C432.638 362.747 437.349 361.268 441.928 359.618C444.32 358.752 446.956 359.993 447.818 362.388C448.681 364.778 447.44 367.417 445.048 368.279C440.228 370.016 435.272 371.569 430.318 372.901C429.343 373.162 428.358 373.09 427.481 372.755ZM388.496 378.74C386.834 378.101 385.622 376.526 385.542 374.635C385.436 372.093 387.41 369.947 389.949 369.841C394.806 369.638 399.719 369.222 404.562 368.609C407.083 368.288 409.387 370.073 409.705 372.594C410.026 375.116 408.241 377.42 405.719 377.74C400.625 378.385 395.447 378.824 390.336 379.038C389.688 379.064 389.066 378.958 388.496 378.74V378.74ZM258.004 329.971C257.46 329.762 256.944 329.444 256.494 329.017C252.764 325.495 249.139 321.771 245.721 317.948C244.027 316.054 244.188 313.146 246.082 311.45C247.979 309.754 250.887 309.917 252.583 311.814C255.827 315.441 259.271 318.98 262.812 322.324C264.663 324.069 264.746 326.983 263.001 328.831C261.68 330.226 259.695 330.619 258.004 329.971ZM349.156 376.027C347.131 375.251 345.876 373.119 346.28 370.907C346.732 368.405 349.131 366.747 351.632 367.202C356.414 368.073 361.302 368.749 366.156 369.211C368.686 369.457 370.543 371.701 370.302 374.231C370.058 376.761 367.812 378.617 365.282 378.377C360.168 377.887 355.022 377.176 349.984 376.259C349.695 376.208 349.42 376.127 349.156 376.027V376.027ZM289.531 353.715C289.29 353.624 289.052 353.509 288.823 353.374C284.407 350.756 280.052 347.919 275.88 344.945C273.809 343.472 273.328 340.595 274.8 338.527C276.279 336.458 279.158 335.971 281.221 337.449C285.184 340.274 289.321 342.968 293.519 345.458C295.705 346.753 296.427 349.578 295.132 351.761C293.969 353.721 291.585 354.503 289.531 353.715V353.715ZM317.134 367.059C315.154 366.3 313.183 365.506 311.218 364.675C308.877 363.686 307.779 360.987 308.768 358.644C309.756 356.303 312.473 355.202 314.799 356.194C319.338 358.111 323.942 359.838 328.541 361.346C330.956 362.142 332.271 364.738 331.481 367.153C330.687 369.569 328.088 370.887 325.673 370.093C322.828 369.162 319.954 368.139 317.134 367.059" fill="#97BAF3"/>
<path d="M232.423 299.771C231.566 299.444 230.801 298.86 230.254 298.046C228.862 295.978 227.489 293.843 226.171 291.697C224.839 289.531 225.515 286.697 227.681 285.365C229.847 284.035 232.681 284.709 234.013 286.878C235.265 288.915 236.569 290.943 237.89 292.906C239.311 295.015 238.749 297.874 236.641 299.295C235.349 300.164 233.773 300.29 232.423 299.771" fill="#91B3FA"/>
<path d="M257.322 252.142C257.612 253.013 258.42 253.609 259.337 253.621L285.516 253.973C291.894 264.405 299.98 273.898 309.627 281.975L306.112 307.903C305.989 308.811 306.456 309.699 307.275 310.112L335.32 324.249C336.14 324.662 337.131 324.507 337.787 323.868L356.537 305.619C368.769 308.57 381.21 309.424 393.387 308.344L409.246 329.177C409.802 329.908 410.759 330.206 411.63 329.919L441.455 320.083C442.329 319.797 442.922 318.986 442.933 318.069L443.289 291.889C453.721 285.514 463.211 277.428 471.288 267.778L497.215 271.294C498.127 271.42 499.012 270.953 499.425 270.13L513.562 242.088C513.974 241.269 513.822 240.277 513.181 239.618L494.932 220.868C497.883 208.636 498.737 196.198 497.657 184.018L518.493 168.162C519.221 167.606 519.519 166.646 519.232 165.775L509.396 135.951C509.109 135.079 508.298 134.486 507.381 134.472L481.202 134.12C474.826 123.687 466.741 114.195 457.09 106.118L460.609 80.1899C460.732 79.2816 460.265 78.3934 459.446 77.9808L431.401 63.8436C430.581 63.431 429.59 63.5828 428.931 64.2247L410.181 82.4735C397.949 79.5222 385.511 78.6684 373.331 79.7486L357.474 58.9154C356.918 58.1847 355.959 57.8867 355.087 58.1761L325.263 68.0097C324.392 68.2962 323.799 69.1071 323.785 70.0239L323.432 96.2038C313 102.579 303.507 110.668 295.43 120.315L269.502 116.799C268.594 116.673 267.706 117.143 267.293 117.962L253.159 146.005C252.746 146.824 252.898 147.816 253.537 148.475L271.786 167.225C268.835 179.456 267.981 191.895 269.061 204.075L248.228 219.931C247.497 220.487 247.199 221.447 247.489 222.318L257.322 252.142" fill="#4285F4"/>
<path d="M392.069 171.459C390.961 171.035 389.812 170.688 388.631 170.422C375.606 167.517 362.643 175.749 359.738 188.774C356.83 201.799 365.059 214.765 378.087 217.67C391.112 220.576 404.075 212.344 406.983 199.318C408.39 193.009 407.258 186.528 403.791 181.069C400.975 176.634 396.889 173.307 392.069 171.459V171.459ZM372.044 223.518C357.675 218.014 349.102 202.628 352.549 187.169C356.342 170.181 373.248 159.445 390.236 163.236C398.467 165.073 405.487 170.004 410.009 177.121C414.53 184.238 416.006 192.691 414.169 200.923C410.378 217.911 393.473 228.647 376.482 224.856C374.952 224.512 373.468 224.065 372.044 223.518" fill="#91B3FA"/>
<path d="M356.334 266.325C353.867 265.38 351.431 264.305 349.039 263.099C348.285 262.721 347.538 262.328 346.798 261.924C343.145 259.936 339.658 257.658 336.389 255.128C336.346 255.093 336.3 255.059 336.257 255.025C336.131 254.927 336.005 254.83 335.879 254.73C335.632 254.538 335.392 254.34 335.148 254.148C334.512 253.632 334.306 252.781 334.584 252.056C334.652 251.881 334.747 251.712 334.873 251.558C335.512 250.767 336.67 250.647 337.46 251.283C341.532 254.569 345.985 257.437 350.695 259.81C374.09 271.606 400.846 269.752 421.851 257.262C433.538 250.317 443.443 240.077 449.999 227.063C451.151 224.782 452.176 222.458 453.079 220.106C459.148 204.264 459.577 186.958 454.194 170.631C448.008 151.875 434.89 136.65 417.255 127.759C380.829 109.407 336.297 124.103 317.948 160.506C316.816 162.752 315.805 165.044 314.911 167.377C311.04 177.482 309.424 188.324 310.218 199.126C310.238 199.404 310.195 199.674 310.1 199.92C309.854 200.565 309.252 201.043 308.516 201.098C307.501 201.169 306.619 200.413 306.544 199.396C305.713 188.052 307.41 176.671 311.473 166.061C312.41 163.614 313.473 161.208 314.659 158.849C333.925 120.627 380.703 105.215 418.911 124.472C437.426 133.801 451.197 149.787 457.689 169.477C463.345 186.62 462.89 204.785 456.52 221.415C455.575 223.888 454.494 226.326 453.288 228.722C443.956 247.237 427.974 261.007 408.284 267.503C391.138 273.156 372.967 272.7 356.334 266.325" fill="#91B3FA"/>
<path d="M782.379 263.563C783.216 264.397 783.442 265.712 782.849 266.801C781.74 268.838 780.557 270.869 779.328 272.838C778.531 274.115 776.847 274.505 775.566 273.709C774.282 272.912 773.898 271.224 774.695 269.947C775.867 268.07 776.996 266.133 778.053 264.19C778.772 262.867 780.428 262.377 781.755 263.096C781.99 263.225 782.199 263.383 782.379 263.563Z" fill="#91B3FA"/>
<path d="M586.772 274.592C586.883 274.703 586.987 274.827 587.081 274.961C589.368 278.222 591.872 281.414 594.525 284.448C594.926 284.909 595.322 285.359 595.726 285.803C596.737 286.924 596.651 288.648 595.531 289.66C594.413 290.674 592.648 290.611 591.674 289.468C591.247 288.992 590.823 288.517 590.405 288.033C587.631 284.861 585.007 281.514 582.611 278.096C581.746 276.861 582.044 275.159 583.279 274.294C584.379 273.523 585.849 273.675 586.772 274.592V274.592ZM617.049 304.27C617.957 305.172 618.129 306.619 617.39 307.722C616.55 308.974 614.854 309.31 613.602 308.47C609.599 305.788 605.711 302.82 602.049 299.648C600.923 298.64 600.786 296.935 601.774 295.794C602.76 294.654 604.485 294.534 605.625 295.519C609.118 298.548 612.825 301.379 616.642 303.935C616.791 304.035 616.928 304.147 617.049 304.27V304.27ZM642.357 317.006C643.082 317.728 643.369 318.831 643.002 319.859C642.498 321.278 640.936 322.02 639.515 321.513C634.962 319.891 630.467 317.968 626.157 315.799C624.811 315.115 624.269 313.479 624.948 312.132C625.624 310.785 627.269 310.241 628.613 310.92C632.724 312.989 637.008 314.822 641.349 316.37C641.741 316.507 642.082 316.731 642.357 317.006ZM670.018 323.169C670.577 323.725 670.892 324.521 670.809 325.369C670.666 326.868 669.331 327.968 667.829 327.822C663.019 327.355 658.191 326.587 653.48 325.538C652.005 325.212 651.079 323.75 651.406 322.281C651.735 320.808 653.194 319.88 654.664 320.206C659.159 321.206 663.766 321.94 668.357 322.387C669.01 322.45 669.589 322.739 670.018 323.169V323.169ZM698.364 322.43C698.763 322.831 699.043 323.355 699.135 323.957C699.359 325.447 698.33 326.839 696.84 327.063C692.052 327.782 687.181 328.212 682.356 328.335C680.849 328.372 679.597 327.177 679.557 325.673C679.517 324.166 680.709 322.914 682.219 322.874C686.815 322.756 691.465 322.349 696.029 321.665C696.917 321.53 697.771 321.842 698.364 322.43V322.43ZM725.67 314.791C725.916 315.037 726.12 315.332 726.263 315.671C726.845 317.06 726.189 318.662 724.799 319.243C720.341 321.109 715.719 322.719 711.06 324.023C709.607 324.43 708.103 323.581 707.696 322.126C707.29 320.676 708.138 319.169 709.59 318.762C714.031 317.519 718.438 315.989 722.687 314.206C723.739 313.768 724.911 314.034 725.67 314.791V314.791ZM750.26 300.677C750.351 300.768 750.44 300.866 750.517 300.972C751.423 302.178 751.182 303.892 749.976 304.797C746.108 307.705 742.025 310.396 737.842 312.797C736.535 313.55 734.862 313.089 734.114 311.791C733.363 310.482 733.813 308.814 735.122 308.063C739.111 305.771 743.005 303.201 746.695 300.43C747.795 299.605 749.314 299.734 750.26 300.677V300.677ZM770.692 281.018C771.671 281.995 771.775 283.574 770.884 284.672C768.368 287.772 765.663 290.774 762.847 293.602C762.253 294.196 761.652 294.786 761.044 295.373C759.956 296.419 758.211 296.287 757.182 295.302C756.136 294.213 756.171 292.485 757.254 291.439C757.838 290.881 758.411 290.316 758.978 289.746C761.663 287.05 764.242 284.184 766.643 281.23C767.594 280.059 769.313 279.881 770.485 280.829C770.557 280.892 770.626 280.952 770.692 281.018Z" fill="#97BAF3"/>
<path d="M658.165 95.5961C658.535 95.9629 658.804 96.4385 658.913 96.9886C659.214 98.4671 658.257 99.9084 656.778 100.206C652.326 101.106 647.893 102.289 643.598 103.722C642.171 104.195 640.621 103.424 640.146 101.994C639.67 100.565 640.441 99.0173 641.873 98.5388C646.375 97.0403 651.028 95.7967 655.695 94.8512C656.626 94.6649 657.54 94.9744 658.165 95.5961ZM685.972 93.3957C686.497 93.9171 686.806 94.6506 686.775 95.4443C686.712 96.9514 685.437 98.1233 683.932 98.0603C679.391 97.8712 674.804 97.9543 670.291 98.3096C668.787 98.427 667.471 97.3038 667.354 95.7996C667.236 94.2982 668.36 92.9831 669.861 92.8656C674.592 92.4931 679.402 92.4042 684.159 92.6019C684.869 92.6335 685.505 92.9315 685.972 93.3957ZM713.484 97.917C714.169 98.5989 714.47 99.6247 714.178 100.616C713.757 102.066 712.241 102.897 710.794 102.476C706.445 101.206 701.972 100.189 697.496 99.4585C696.006 99.215 694.998 97.8081 695.241 96.3211C695.488 94.8311 696.892 93.8225 698.379 94.0661C703.072 94.8368 707.763 95.8999 712.321 97.2293C712.777 97.364 713.169 97.6047 713.484 97.917V97.917ZM785.543 159.721C785.763 159.938 785.95 160.199 786.09 160.497C788.107 164.806 789.875 169.285 791.348 173.803C791.818 175.239 791.033 176.78 789.597 177.247C788.167 177.712 786.626 176.929 786.156 175.497C784.752 171.187 783.064 166.921 781.142 162.812C780.506 161.445 781.093 159.818 782.46 159.182C783.528 158.683 784.755 158.933 785.543 159.721ZM739.106 108.902C739.965 109.759 740.177 111.114 739.538 112.209C738.782 113.513 737.111 113.954 735.808 113.197C731.879 110.917 727.779 108.854 723.619 107.071C722.235 106.47 721.593 104.871 722.189 103.484C722.782 102.1 724.39 101.456 725.776 102.052C730.134 103.92 734.432 106.083 738.55 108.475C738.759 108.599 738.945 108.742 739.106 108.902V108.902ZM770.738 136.076C770.807 136.145 770.873 136.22 770.936 136.297C773.927 139.99 776.721 143.907 779.248 147.93C780.047 149.211 779.663 150.893 778.385 151.695C777.105 152.5 775.42 152.102 774.62 150.835C772.211 146.993 769.543 143.257 766.689 139.73C765.741 138.561 765.921 136.839 767.093 135.89C768.191 135.005 769.761 135.105 770.738 136.076V136.076ZM761.317 125.762C762.371 126.813 762.389 128.524 761.346 129.595C760.297 130.678 758.566 130.704 757.486 129.653C754.228 126.492 750.75 123.501 747.148 120.765C745.962 119.848 745.71 118.14 746.624 116.939C747.538 115.736 749.249 115.504 750.449 116.415C754.228 119.286 757.876 122.418 761.288 125.733C761.297 125.742 761.308 125.753 761.317 125.762Z" fill="#97BAF3"/>
<path d="M794.224 186.364C794.597 186.737 794.866 187.221 794.975 187.777C795.422 190.069 795.803 192.387 796.11 194.665C796.308 196.158 795.259 197.533 793.766 197.737C792.273 197.932 790.898 196.886 790.694 195.39C790.402 193.221 790.038 191.009 789.614 188.82C789.325 187.339 790.293 185.906 791.772 185.617C792.697 185.439 793.603 185.746 794.224 186.364" fill="#91B3FA"/>
<path d="M767.717 209.754C767.775 209.166 767.454 208.608 766.918 208.361L751.629 201.327C750.603 193.536 748.328 185.852 744.764 178.588L753.589 164.274C753.898 163.772 753.855 163.128 753.483 162.672L740.692 147.056C740.317 146.598 739.695 146.429 739.142 146.635L723.369 152.469C716.951 147.546 709.865 143.801 702.427 141.26L698.542 124.885C698.407 124.312 697.92 123.888 697.336 123.828L677.247 121.831C676.66 121.773 676.101 122.094 675.855 122.63L668.821 137.919C661.03 138.945 653.346 141.22 646.085 144.784L631.767 135.959C631.266 135.65 630.621 135.693 630.166 136.065L614.55 148.859C614.092 149.231 613.923 149.853 614.129 150.406L619.963 166.182C615.04 172.597 611.295 179.683 608.754 187.121L592.379 191.006C591.806 191.141 591.382 191.628 591.322 192.213L589.325 212.301C589.267 212.888 589.588 213.447 590.124 213.694L605.413 220.728C606.439 228.518 608.717 236.203 612.278 243.464L603.453 257.781C603.144 258.283 603.187 258.927 603.559 259.383L616.352 274.998C616.725 275.457 617.347 275.626 617.9 275.42L633.676 269.586C640.091 274.508 647.177 278.253 654.615 280.795L658.5 297.17C658.635 297.743 659.122 298.167 659.709 298.227L679.795 300.224C680.382 300.281 680.941 299.961 681.187 299.425L688.221 284.136C696.015 283.11 703.699 280.835 710.96 277.271L725.275 286.096C725.776 286.405 726.421 286.362 726.876 285.99L742.492 273.196C742.95 272.824 743.119 272.202 742.913 271.649L737.079 255.873C742.002 249.458 745.747 242.372 748.288 234.934L764.663 231.048C765.236 230.914 765.66 230.427 765.72 229.839L767.717 209.754" fill="#4285F4"/>
<path d="M667.79 221.785C668.311 222.304 668.876 222.791 669.483 223.241C676.217 228.223 685.749 226.799 690.735 220.066C693.148 216.805 694.15 212.797 693.549 208.785C692.95 204.771 690.821 201.235 687.563 198.814C684.3 196.402 680.291 195.402 676.28 196.001C672.265 196.599 668.724 198.725 666.308 201.989C661.775 208.112 662.543 216.559 667.79 221.785ZM693.133 196.425C696.254 199.533 698.288 203.542 698.953 207.98C699.766 213.436 698.405 218.882 695.122 223.318C688.348 232.47 675.389 234.404 666.234 227.63C657.079 220.828 655.145 207.891 661.922 198.737C665.202 194.301 670.016 191.41 675.472 190.6C680.93 189.783 686.377 191.141 690.812 194.428C691.64 195.041 692.417 195.708 693.133 196.425" fill="#91B3FA"/>
<path d="M714.373 174.551C715.596 175.769 716.768 177.061 717.886 178.425C720.106 181.133 722.052 184.07 723.676 187.161C723.748 187.302 723.82 187.442 723.891 187.58C724.444 188.66 724.212 189.935 723.398 190.754C723.201 190.952 722.969 191.124 722.708 191.256C721.367 191.946 719.725 191.41 719.032 190.072C717.545 187.173 715.737 184.419 713.662 181.886C713.548 181.749 713.433 181.608 713.318 181.474C708.353 175.528 702.092 171.047 695.076 168.271C691.268 166.766 687.231 165.763 683.056 165.311C683.022 165.305 682.987 165.302 682.953 165.299C682.85 165.288 682.746 165.276 682.643 165.268C670.42 164.053 658.458 167.669 648.957 175.451C647.728 176.46 646.559 177.52 645.453 178.631C638.009 186.104 633.399 195.832 632.339 206.473C631.127 218.694 634.742 230.656 642.524 240.154C650.306 249.647 661.323 255.555 673.543 256.773C685.764 257.988 697.729 254.372 707.227 246.59C708.439 245.601 709.591 244.55 710.688 243.452C715.436 238.682 719.089 232.928 721.364 226.59C721.504 226.198 721.722 225.86 721.997 225.585C722.722 224.86 723.825 224.573 724.854 224.943C726.272 225.456 727.014 227.014 726.501 228.435C723.957 235.53 719.871 241.968 714.559 247.303C713.333 248.535 712.043 249.707 710.691 250.813C700.061 259.521 686.678 263.566 673.002 262.208C659.332 260.847 647.003 254.257 638.301 243.616C629.594 232.988 625.545 219.605 626.906 205.932C628.089 194.026 633.247 183.144 641.576 174.783C642.814 173.543 644.12 172.354 645.496 171.228C666.077 154.371 695.918 156.165 714.373 174.551" fill="#91B3FA"/>
<path d="M42.394 423.438C41.1487 423.069 40.2445 421.911 40.2516 420.547C40.2637 417.995 40.3533 415.41 40.5187 412.863C40.6258 411.207 42.0541 409.955 43.7111 410.061C45.3698 410.161 46.6219 411.597 46.5147 413.253C46.3571 415.68 46.2714 418.144 46.2594 420.576C46.2525 422.235 44.9002 423.573 43.2406 423.567C42.9461 423.564 42.6627 423.519 42.394 423.438Z" fill="#97BAF3"/>
<path d="M226.217 310.863C226.051 310.814 225.885 310.748 225.724 310.665C221.81 308.697 217.722 306.909 213.567 305.35C212.94 305.11 212.321 304.883 211.699 304.663C210.137 304.104 209.321 302.388 209.879 300.823C210.435 299.256 212.177 298.399 213.716 299.001C214.378 299.239 215.037 299.477 215.693 299.729C220.034 301.359 224.32 303.236 228.423 305.299C229.908 306.047 230.503 307.852 229.756 309.333C229.094 310.654 227.587 311.273 226.217 310.863V310.863ZM181.413 297.872C180.064 297.471 179.144 296.156 179.287 294.706C179.448 293.053 180.917 291.844 182.568 292.004C187.846 292.52 193.158 293.371 198.361 294.537C199.977 294.929 200.997 296.511 200.633 298.13C200.272 299.746 198.665 300.766 197.046 300.402C192.083 299.287 187.015 298.474 181.986 297.987C181.788 297.967 181.597 297.926 181.413 297.872V297.872ZM150.253 298.712C149.175 298.391 148.323 297.471 148.142 296.285C147.892 294.646 149.02 293.116 150.66 292.864C155.918 292.064 161.276 291.586 166.583 291.445C168.244 291.405 169.62 292.712 169.666 294.368C169.711 296.027 168.402 297.408 166.743 297.451C161.683 297.585 156.577 298.041 151.564 298.803C151.11 298.875 150.665 298.835 150.253 298.712V298.712ZM120.236 307.15C119.404 306.9 118.685 306.293 118.323 305.428C117.683 303.901 118.404 302.138 119.934 301.497C124.841 299.445 129.92 297.674 135.032 296.236C136.631 295.783 138.289 296.717 138.738 298.316C139.186 299.912 138.255 301.574 136.659 302.021C131.782 303.393 126.937 305.081 122.255 307.041C121.589 307.319 120.878 307.342 120.236 307.15ZM93.1511 322.628C92.5551 322.45 92.0104 322.083 91.6079 321.55C90.6148 320.221 90.8853 318.338 92.2142 317.344C96.4794 314.155 100.978 311.201 105.589 308.568C107.031 307.746 108.866 308.253 109.687 309.688C110.511 311.129 110.01 312.963 108.568 313.788C104.173 316.296 99.8798 319.115 95.8138 322.155C95.0212 322.748 94.0322 322.891 93.1511 322.628ZM70.6655 344.255C70.3002 344.146 69.9503 343.965 69.6351 343.71C68.3458 342.667 68.1486 340.773 69.1927 339.484C72.5393 335.355 76.1808 331.39 80.0174 327.699C81.2148 326.547 83.1113 326.585 84.2657 327.785C85.4152 328.98 85.378 330.883 84.1831 332.031C80.5245 335.55 77.0524 339.329 73.8617 343.269C73.0717 344.243 71.797 344.593 70.6655 344.255V344.255ZM54.1886 370.744C54.0525 370.704 53.9158 370.652 53.784 370.592C52.2774 369.893 51.6216 368.108 52.3181 366.601C54.5521 361.77 57.1068 357.034 59.909 352.527C60.7852 351.117 62.6439 350.693 64.0467 351.561C65.4564 352.441 65.8879 354.289 65.012 355.698C62.3385 359.999 59.903 364.518 57.771 369.125C57.136 370.497 55.5971 371.165 54.1886 370.744ZM44.6266 400.436C43.1679 400.001 42.2471 398.522 42.5393 396.995C43.3628 392.683 44.418 388.362 45.6747 384.156C45.9392 383.271 46.2148 382.385 46.4991 381.5C47.01 379.918 48.7684 379.136 50.2809 379.557C51.8603 380.067 52.7281 381.758 52.2213 383.336C51.9485 384.185 51.6849 385.03 51.4319 385.875C50.2334 389.889 49.2268 394.01 48.4403 398.121C48.1291 399.754 46.5564 400.82 44.9263 400.511C44.824 400.491 44.7238 400.465 44.6266 400.436" fill="#97BAF3"/>
<path d="M250.262 521.519C249.715 521.355 249.205 521.035 248.812 520.559C247.752 519.284 247.927 517.39 249.205 516.33C253.05 513.138 256.732 509.682 260.147 506.058C261.285 504.854 263.187 504.794 264.394 505.932C265.6 507.072 265.657 508.972 264.52 510.181C260.938 513.98 257.076 517.605 253.044 520.954C252.239 521.619 251.193 521.797 250.262 521.519ZM224.461 538.134C223.681 537.902 222.999 537.355 222.615 536.567C221.893 535.074 222.515 533.275 224.008 532.553C228.506 530.372 232.91 527.9 237.096 525.206C238.495 524.31 240.354 524.714 241.251 526.109C242.148 527.504 241.744 529.361 240.351 530.258C235.959 533.083 231.343 535.676 226.633 537.96C225.928 538.301 225.157 538.343 224.461 538.134V538.134ZM195.444 548.085C194.424 547.782 193.599 546.945 193.364 545.83C193.017 544.206 194.055 542.613 195.676 542.266C200.553 541.232 205.418 539.885 210.134 538.263C211.707 537.722 213.415 538.561 213.954 540.131C214.492 541.702 213.656 543.409 212.086 543.948C207.14 545.647 202.04 547.06 196.926 548.146C196.418 548.254 195.908 548.226 195.444 548.085V548.085ZM93.4162 525.725C93.0887 525.628 92.7726 525.473 92.4815 525.255C88.2834 522.129 84.2365 518.714 80.4549 515.101C79.2544 513.954 79.2114 512.052 80.3575 510.851C81.5016 509.657 83.4041 509.611 84.6044 510.754C88.2111 514.198 92.0689 517.456 96.0711 520.436C97.4011 521.427 97.6774 523.312 96.686 524.642C95.9112 525.682 94.5912 526.075 93.4162 525.725V525.725ZM164.889 550.784C163.614 550.403 162.703 549.2 162.749 547.805C162.803 546.148 164.19 544.851 165.849 544.905C170.846 545.068 175.892 544.931 180.852 544.492C182.508 544.355 183.963 545.57 184.107 547.223C184.253 548.876 183.029 550.335 181.379 550.481C176.178 550.939 170.889 551.082 165.651 550.908C165.385 550.899 165.13 550.856 164.889 550.784ZM120.082 540.925C119.978 540.894 119.877 540.859 119.775 540.816C114.952 538.793 110.203 536.455 105.659 533.871C104.218 533.046 103.714 531.215 104.535 529.774C105.355 528.329 107.197 527.834 108.632 528.645C112.967 531.114 117.499 533.344 122.101 535.278C123.631 535.917 124.35 537.679 123.708 539.209C123.108 540.639 121.533 541.361 120.082 540.925V540.925ZM134.585 546.017C133.014 545.547 132.107 543.896 132.557 542.315C133.011 540.719 134.673 539.793 136.269 540.249C141.074 541.616 146.002 542.704 150.918 543.478C152.544 543.747 153.678 545.272 153.419 546.913C153.16 548.552 151.621 549.67 149.983 549.415C144.828 548.598 139.66 547.464 134.624 546.028C134.612 546.025 134.598 546.02 134.585 546.017" fill="#97BAF3"/>
<path d="M71.1259 504.424C70.5706 504.258 70.0577 503.929 69.6629 503.447C68.0343 501.459 66.4586 499.41 64.9756 497.362C64.004 496.018 64.3037 494.139 65.6478 493.164C66.9919 492.199 68.8689 492.497 69.8443 493.838C71.2571 495.792 72.762 497.746 74.3147 499.645C75.3657 500.929 75.1745 502.823 73.8906 503.871C73.0886 504.527 72.0494 504.699 71.1259 504.424Z" fill="#97BAF3"/>
<path d="M84.6311 467.953C84.8804 468.552 85.4824 468.928 86.1299 468.887L104.611 467.738C109.664 474.755 115.872 481.016 123.108 486.196L122.012 504.669C121.973 505.316 122.35 505.918 122.95 506.164L143.481 514.637C144.081 514.883 144.772 514.723 145.201 514.239L157.449 500.368C166.234 501.795 175.05 501.735 183.583 500.322L195.875 514.167C196.307 514.654 196.998 514.812 197.597 514.562L218.106 506.035C218.705 505.786 219.08 505.184 219.04 504.537L217.891 486.056C224.908 481.002 231.169 474.793 236.352 467.558L254.822 468.655C255.469 468.693 256.071 468.317 256.32 467.716L264.79 447.186C265.039 446.584 264.879 445.894 264.391 445.464L250.521 433.215C251.948 424.433 251.887 415.614 250.475 407.084L264.32 394.789C264.807 394.359 264.965 393.666 264.715 393.067L256.188 372.561C255.939 371.962 255.337 371.586 254.69 371.627L236.209 372.775C231.155 365.758 224.946 359.495 217.711 354.315L218.808 335.842C218.845 335.195 218.47 334.596 217.868 334.347L197.339 325.877C196.737 325.628 196.047 325.788 195.617 326.275L183.371 340.146C174.586 338.716 165.769 338.779 157.237 340.192L144.943 326.344C144.512 325.86 143.82 325.702 143.221 325.951L122.714 334.479C122.115 334.728 121.739 335.329 121.78 335.977L122.927 354.458C115.91 359.509 109.649 365.718 104.468 372.956L85.9964 371.859C85.3489 371.821 84.7474 372.197 84.5005 372.798L76.029 393.328C75.7818 393.927 75.942 394.617 76.4285 395.047L90.2986 407.296C88.8703 416.081 88.9316 424.897 90.3433 433.427L76.4981 445.722C76.0127 446.155 75.8546 446.845 76.1035 447.444L84.6311 467.953" fill="#4285F4"/>
<path d="M175.204 404.242C174.431 404.01 173.631 403.832 172.809 403.712C163.686 402.391 155.189 408.734 153.866 417.857C153.225 422.275 154.341 426.679 157.013 430.255C159.686 433.834 163.591 436.155 168.01 436.799C172.428 437.441 176.835 436.324 180.411 433.653C183.989 430.98 186.313 427.075 186.955 422.654C188.158 414.359 183.012 406.574 175.204 404.242V404.242ZM163.855 442.02C159.213 440.633 155.151 437.805 152.198 433.851C148.567 428.989 147.048 423 147.92 416.992C149.717 404.594 161.268 395.97 173.671 397.766C186.084 399.588 194.7 411.118 192.9 423.519C192.029 429.527 188.869 434.837 184.006 438.467C179.141 442.1 173.153 443.618 167.144 442.745C166.024 442.581 164.924 442.338 163.855 442.02" fill="#91B3FA"/>
<path d="M154.666 474.279C152.845 473.735 151.037 473.096 149.242 472.357C145.68 470.887 142.264 469.056 139.081 466.904C138.939 466.807 138.796 466.709 138.654 466.612C137.554 465.853 137.117 464.494 137.478 463.28C137.566 462.984 137.703 462.698 137.886 462.432C138.828 461.065 140.698 460.73 142.064 461.667C145.017 463.701 148.203 465.429 151.532 466.801H151.533C151.716 466.876 151.901 466.95 152.083 467.022C159.99 470.196 168.391 471.279 176.637 470.314C181.113 469.789 185.545 468.658 189.829 466.924C189.863 466.91 189.897 466.896 189.935 466.881C190.041 466.835 190.147 466.795 190.253 466.749C202.728 461.56 212.438 451.824 217.59 439.332C218.261 437.716 218.839 436.08 219.332 434.426C222.656 423.306 222.054 411.479 217.538 400.614C212.349 388.138 202.613 378.431 190.124 373.279C177.64 368.133 163.881 368.145 151.405 373.328C138.929 378.517 129.219 388.253 124.066 400.745C123.409 402.333 122.837 403.952 122.348 405.588C120.229 412.682 119.686 420.16 120.785 427.49C120.852 427.942 120.816 428.384 120.692 428.793C120.37 429.874 119.448 430.727 118.259 430.905C116.618 431.146 115.089 430.023 114.842 428.378C113.614 420.178 114.22 411.808 116.589 403.874C117.136 402.041 117.776 400.233 118.51 398.453C124.277 384.476 135.139 373.586 149.099 367.781C163.059 361.978 178.436 361.944 192.416 367.72C206.39 373.488 217.283 384.348 223.086 398.31C228.14 410.461 228.81 423.693 225.094 436.137C224.541 437.982 223.894 439.816 223.149 441.624C211.983 468.681 182.13 482.485 154.666 474.279" fill="#91B3FA"/>
<path d="M510.481 397.115C508.226 397.316 506.135 395.786 505.688 393.517C505.206 391.087 506.785 388.726 509.218 388.244C514.195 387.259 519.28 386.477 524.335 385.921C524.366 385.915 524.398 385.912 524.429 385.909C526.856 385.692 529.019 387.454 529.286 389.886C529.558 392.35 527.785 394.565 525.32 394.837C520.518 395.367 515.687 396.112 510.957 397.046C510.799 397.078 510.639 397.101 510.481 397.115ZM564.325 394.872C564.03 394.898 563.729 394.898 563.423 394.863C558.629 394.325 553.749 393.986 548.919 393.857C546.44 393.789 544.486 391.729 544.552 389.25C544.621 386.775 546.681 384.809 549.159 384.886C554.242 385.024 559.377 385.379 564.422 385.944C566.884 386.222 568.657 388.442 568.379 390.903C568.139 393.058 566.405 394.686 564.325 394.872V394.872ZM473.256 408.966C471.402 409.132 469.566 408.124 468.76 406.33C467.749 404.066 468.76 401.413 471.021 400.402C475.657 398.324 480.439 396.425 485.236 394.754C487.579 393.949 490.132 395.175 490.949 397.516C491.763 399.854 490.528 402.413 488.187 403.23C483.631 404.814 479.093 406.619 474.689 408.591C474.222 408.797 473.737 408.923 473.256 408.966ZM602.43 403.574C601.811 403.628 601.172 403.556 600.547 403.336C595.997 401.74 591.319 400.321 586.64 399.121C584.238 398.505 582.792 396.058 583.41 393.66C584.024 391.259 586.471 389.812 588.872 390.428C593.8 391.694 598.728 393.187 603.519 394.869C605.857 395.688 607.086 398.25 606.267 400.588C605.665 402.304 604.126 403.422 602.43 403.574V403.574ZM439.621 428.828C438.128 428.96 436.604 428.344 435.635 427.057C434.145 425.077 434.541 422.264 436.521 420.774C440.578 417.719 444.816 414.8 449.119 412.101C451.219 410.785 453.987 411.419 455.305 413.519C456.62 415.616 455.987 418.387 453.89 419.702C449.801 422.269 445.773 425.04 441.919 427.943C441.223 428.467 440.429 428.756 439.621 428.828V428.828ZM411.209 455.667C410.054 455.767 408.862 455.429 407.911 454.621C406.02 453.019 405.785 450.188 407.387 448.297C410.662 444.429 414.149 440.644 417.753 437.054C419.507 435.303 422.349 435.306 424.097 437.063C425.848 438.816 425.842 441.658 424.088 443.409C420.662 446.822 417.346 450.418 414.235 454.096C413.438 455.033 412.344 455.564 411.209 455.667V455.667ZM389.433 488.13C388.611 488.204 387.757 488.053 386.972 487.643C384.771 486.503 383.915 483.795 385.055 481.594C387.399 477.084 389.963 472.62 392.679 468.325C394.006 466.237 396.774 465.612 398.868 466.936C400.963 468.259 401.588 471.03 400.261 473.125C397.682 477.202 395.244 481.442 393.02 485.729C392.287 487.141 390.909 488.001 389.433 488.13V488.13ZM375.445 524.633C374.946 524.679 374.434 524.639 373.924 524.507C371.523 523.885 370.081 521.439 370.703 519.04C371.975 514.124 373.477 509.198 375.167 504.407C375.992 502.069 378.557 500.846 380.892 501.668C383.227 502.493 384.453 505.055 383.628 507.39C382.024 511.943 380.597 516.616 379.391 521.287C378.901 523.175 377.282 524.47 375.445 524.633V524.633ZM369.975 563.323C369.801 563.34 369.62 563.346 369.442 563.34C366.964 563.268 365.013 561.202 365.084 558.727C365.23 553.638 365.597 548.507 366.173 543.472C366.454 541.011 368.666 539.249 371.139 539.524C373.6 539.805 375.368 542.031 375.087 544.489C374.54 549.274 374.193 554.148 374.055 558.985C373.989 561.28 372.207 563.125 369.975 563.323ZM373.161 602.279C370.901 602.482 368.809 600.946 368.365 598.674C367.391 593.7 366.617 588.609 366.067 583.546C365.801 581.082 367.58 578.867 370.044 578.6C370.073 578.597 370.101 578.595 370.13 578.592C372.56 578.377 374.726 580.142 374.99 582.577C375.511 587.388 376.244 592.225 377.17 596.949C377.646 599.379 376.061 601.737 373.629 602.213C373.471 602.244 373.316 602.267 373.161 602.279" fill="#97BAF3"/>
<path d="M631.092 416.653C630.212 416.731 629.298 416.553 628.473 416.08C626.464 414.934 624.398 413.811 622.332 412.74C620.132 411.599 619.272 408.892 620.41 406.691C621.55 404.491 624.261 403.629 626.458 404.772C628.633 405.898 630.805 407.081 632.92 408.287C635.071 409.514 635.822 412.255 634.593 414.407C633.836 415.734 632.504 416.527 631.092 416.653" fill="#91B3FA"/>
<path d="M713.98 525.467C711.822 525.659 709.785 524.263 709.235 522.097C708.667 519.857 708.043 517.587 707.381 515.358C706.673 512.98 708.025 510.484 710.401 509.777C712.788 509.069 715.275 510.424 715.983 512.8C716.679 515.146 717.338 517.536 717.934 519.897C718.541 522.298 717.089 524.739 714.685 525.346C714.45 525.407 714.212 525.444 713.98 525.467" fill="#91B3FA"/>
<path d="M719.261 563.569C719.169 563.575 719.075 563.581 718.983 563.584C716.507 563.652 714.441 561.701 714.373 559.226C714.275 555.73 714.066 552.194 713.757 548.719C713.645 547.458 713.516 546.203 713.378 544.954C713.106 542.49 714.88 540.272 717.341 540C719.831 539.673 722.023 541.501 722.298 543.962C722.444 545.277 722.576 546.595 722.693 547.919C723.02 551.578 723.238 555.297 723.341 558.973C723.41 561.357 721.605 563.36 719.261 563.569V563.569ZM716.141 601.895C715.731 601.932 715.31 601.909 714.886 601.829C712.456 601.359 710.863 599.004 711.336 596.571C712.238 591.915 712.952 587.162 713.459 582.437C713.725 579.973 715.943 578.191 718.398 578.454C720.862 578.718 722.648 580.933 722.381 583.397C721.848 588.371 721.095 593.376 720.146 598.276C719.757 600.284 718.083 601.72 716.141 601.895ZM704.671 638.624C703.943 638.69 703.19 638.578 702.473 638.263C700.204 637.266 699.173 634.621 700.167 632.352C702.078 628 703.826 623.516 705.359 619.026C706.158 616.682 708.711 615.43 711.052 616.229C713.399 617.029 714.651 619.582 713.848 621.926C712.235 626.656 710.396 631.375 708.384 635.957C707.702 637.51 706.247 638.484 704.671 638.624ZM685.425 671.927C684.374 672.021 683.285 671.746 682.368 671.073C680.374 669.606 679.944 666.795 681.411 664.801C684.23 660.967 686.918 656.976 689.399 652.933C690.694 650.822 693.454 650.16 695.568 651.458C697.68 652.756 698.342 655.515 697.044 657.629C694.433 661.881 691.605 666.085 688.64 670.116C687.846 671.196 686.66 671.818 685.425 671.927V671.927ZM659.383 700.227C658.002 700.35 656.584 699.831 655.601 698.708C653.973 696.84 654.165 694.006 656.033 692.379C659.612 689.253 663.105 685.941 666.408 682.537C668.13 680.755 670.97 680.712 672.752 682.437C674.531 684.164 674.574 687.004 672.85 688.783C669.371 692.368 665.698 695.852 661.93 699.138C661.191 699.786 660.294 700.147 659.383 700.227V700.227ZM627.811 722.166C626.083 722.321 624.347 721.458 623.467 719.834C622.284 717.656 623.092 714.931 625.269 713.751C629.435 711.493 633.561 709.023 637.538 706.413C639.607 705.052 642.389 705.628 643.75 707.702C645.111 709.774 644.535 712.553 642.464 713.914C638.277 716.662 633.934 719.261 629.547 721.639C628.994 721.94 628.401 722.112 627.811 722.166V722.166ZM492.654 735.352C492.087 735.401 491.502 735.343 490.926 735.163C486.15 733.679 481.379 731.968 476.749 730.086C474.454 729.152 473.351 726.536 474.285 724.24C475.219 721.945 477.835 720.839 480.13 721.774C484.528 723.561 489.055 725.186 493.591 726.596C495.958 727.332 497.278 729.848 496.542 732.214C495.986 734.002 494.413 735.194 492.654 735.352ZM592.198 736.638C590.092 736.828 588.084 735.498 587.488 733.389C586.815 731.002 588.201 728.527 590.588 727.851C595.15 726.564 599.717 725.066 604.167 723.39C606.487 722.521 609.075 723.69 609.946 726.011C610.82 728.329 609.645 730.917 607.327 731.79C602.639 733.553 597.829 735.131 593.024 736.489C592.749 736.567 592.473 736.615 592.198 736.638ZM530.432 742.641C530.18 742.664 529.925 742.664 529.667 742.644C524.676 742.243 519.647 741.624 514.722 740.807C512.278 740.403 510.625 738.094 511.029 735.65C511.436 733.206 513.748 731.547 516.189 731.957C520.868 732.733 525.644 733.318 530.386 733.702C532.856 733.899 534.699 736.062 534.498 738.532C534.32 740.744 532.57 742.449 530.432 742.641V742.641ZM560.317 742.504C558.262 742.687 556.194 742.836 554.116 742.951C551.644 743.085 549.526 741.191 549.389 738.719C549.251 736.243 551.157 734.117 553.621 733.988C558.414 733.724 563.188 733.263 567.861 732.616C570.316 732.277 572.58 733.985 572.921 736.441C573.262 738.896 571.549 741.163 569.096 741.504C566.205 741.905 563.251 742.24 560.317 742.504" fill="#97BAF3"/>
<path d="M457.319 719.866C456.431 719.946 455.511 719.763 454.68 719.284C452.577 718.07 450.46 716.786 448.389 715.474C446.294 714.147 445.672 711.374 446.999 709.282C448.326 707.191 451.096 706.566 453.191 707.893C455.159 709.142 457.17 710.359 459.167 711.514C461.313 712.749 462.05 715.494 460.809 717.64C460.05 718.955 458.726 719.74 457.319 719.866" fill="#97BAF3"/>
<path d="M458.724 667.495C459.348 668.134 460.311 668.308 461.122 667.925L484.196 657.022C494.25 663.426 505.396 668.274 517.304 671.214L525.329 695.422C525.61 696.273 526.401 696.849 527.295 696.861L557.904 697.227C558.801 697.236 559.603 696.68 559.904 695.838L568.506 671.827C580.482 669.171 591.74 664.592 601.943 658.429L624.751 669.882C625.55 670.283 626.516 670.131 627.157 669.506L649.062 648.12C649.701 647.495 649.873 646.533 649.492 645.725L638.59 622.648C644.994 612.597 649.842 601.451 652.781 589.543L676.993 581.514C677.841 581.233 678.417 580.446 678.428 579.552L678.795 548.939C678.804 548.045 678.248 547.24 677.405 546.939L653.392 538.338C650.738 526.361 646.16 515.103 639.997 504.903L651.449 482.093C651.847 481.294 651.698 480.328 651.074 479.686L629.687 457.784C629.063 457.142 628.1 456.97 627.292 457.351L604.215 468.257C594.164 461.85 583.018 457.002 571.11 454.062L563.082 429.854C562.801 429.003 562.013 428.427 561.119 428.415L530.507 428.051C529.613 428.04 528.808 428.599 528.507 429.441L519.905 453.452C507.929 456.105 496.671 460.687 486.471 466.847L463.66 455.397C462.861 454.996 461.895 455.145 461.254 455.77L439.352 477.156C438.71 477.784 438.538 478.743 438.919 479.554L449.821 502.628C443.417 512.682 438.569 523.828 435.63 535.736L411.421 543.762C410.57 544.043 409.994 544.833 409.983 545.727L409.619 576.337C409.607 577.234 410.166 578.036 411.009 578.337L435.019 586.938C437.673 598.915 442.254 610.173 448.414 620.376L436.965 643.183C436.564 643.983 436.713 644.948 437.337 645.59L458.724 667.495" fill="#4285F4"/>
<path d="M542.157 539.129C541.005 539.232 539.851 539.421 538.704 539.696C526.054 542.728 518.229 555.489 521.264 568.14C524.295 580.79 537.054 588.621 549.707 585.583C562.357 582.549 570.182 569.787 567.151 557.14C565.681 551.008 561.913 545.819 556.541 542.524C552.174 539.848 547.169 538.682 542.157 539.129V539.129ZM546.922 593.294C531.98 594.626 517.882 584.827 514.281 569.816C510.327 553.312 520.53 536.673 537.031 532.714C545.025 530.797 553.286 532.109 560.292 536.404C567.3 540.702 572.214 547.47 574.131 555.464C578.088 571.965 567.882 588.606 551.38 592.563C549.893 592.918 548.403 593.162 546.922 593.294Z" fill="#91B3FA"/>
<path d="M551.498 637.508C548.933 637.737 546.34 637.837 543.73 637.806C542.908 637.797 542.085 637.774 541.263 637.737C537.214 637.559 533.186 637.058 529.237 636.244C529.186 636.232 529.131 636.221 529.077 636.21C528.925 636.178 528.773 636.146 528.619 636.112C528.323 636.049 528.025 635.983 527.73 635.914C526.954 635.74 526.409 635.081 526.341 634.327C526.326 634.144 526.338 633.955 526.381 633.765C526.601 632.8 527.564 632.198 528.53 632.416C533.501 633.551 538.63 634.155 543.77 634.215C569.308 634.525 591.943 621.442 604.989 601.506C612.244 590.42 616.533 577.211 616.702 563.008C616.734 560.518 616.636 558.042 616.416 555.595C614.946 539.123 607.912 523.788 596.201 511.797C582.755 498.021 564.744 490.308 545.495 490.078C505.737 489.606 473.038 521.548 472.563 561.286C472.534 563.736 472.629 566.18 472.846 568.604C473.786 579.111 477.012 589.294 482.333 598.414C482.471 598.652 482.548 598.904 482.571 599.159C482.631 599.829 482.31 600.508 481.689 600.869C480.829 601.365 479.734 601.081 479.233 600.222C473.649 590.646 470.256 579.953 469.271 568.925C469.044 566.38 468.944 563.816 468.973 561.243C469.471 519.522 503.831 485.99 545.538 486.488C565.746 486.729 584.651 494.826 598.771 509.287C611.063 521.877 618.447 537.977 619.991 555.269C620.221 557.839 620.321 560.435 620.292 563.051C620.049 583.26 611.952 602.167 597.493 616.285C584.901 628.579 568.795 635.963 551.498 637.508" fill="#91B3FA"/>
<path d="M541.194 109.341C541.194 109.341 550.263 113.75 551.93 118.819C553.268 122.882 563.294 123.406 564.285 131.403C564.795 135.532 567.849 138.836 571.961 139.466C582.201 141.036 597.983 146.354 600.507 164.133C602.436 177.703 595.519 182.849 588.259 184.631C582.923 185.94 579.382 191.127 580.459 196.51C581.494 201.674 579.952 207.645 571.004 212.364C550.959 222.942 530.939 187.304 530.939 187.304L526.836 125.077L541.194 109.341" fill="#033582"/>
<path d="M458.727 72.3966C458.727 72.3966 477.422 144.928 518.98 171.156C518.98 171.156 502.055 193.459 494.313 194.141C494.313 194.141 453.552 129.684 453.669 80.2187L458.727 72.3966Z" fill="url(#paint0_linear)"/>
<path d="M623.599 499.528L624.894 510.192C625.14 512.215 626.733 513.817 628.759 514.049C632.177 514.438 637.664 514.839 643.031 514.272C645.389 514.023 646.916 511.636 646.2 509.378C644.89 505.261 642.498 499.081 639.045 495.444H627.215C625.028 495.444 623.332 497.358 623.599 499.528" fill="#042A65"/>
<path d="M530.939 374.6L528.942 386.345C528.942 386.345 535.627 454.079 536.816 481.17C537.005 485.42 535.905 489.617 533.676 493.236L522.048 512.118L551.598 494.68L552.188 491.076L547.349 484.422L553.687 408.548C554.059 404.089 553.139 399.62 551.036 395.671L544.925 384.187L530.939 374.6" fill="url(#paint1_linear)"/>
<path d="M520.103 514.855H529.533C531.298 514.855 532.962 514.044 534.04 512.645C536.979 508.823 543.071 501.371 545.982 501.176C549.902 500.915 549.4 514.855 549.4 514.855H551.598L554.383 497.534C555.082 493.176 552.916 488.858 549.002 486.818C549.002 486.818 548.105 493.445 543.246 496.376C538.386 499.308 523.47 509.809 523.47 509.809C523.47 509.809 521.645 509.548 519.639 509.909C516.662 510.448 517.077 514.855 520.103 514.855" fill="#042A65"/>
<path d="M571.415 380.179C571.415 380.179 610.585 454.486 616.814 471.454C623.04 488.419 625.22 502.571 625.306 503.912C625.435 506.006 628.04 508.015 635.22 508.015C638.925 508.015 640.741 506.531 641.63 505.092C642.389 503.866 642.426 502.33 641.787 501.038C639.521 496.451 632.332 481.795 629.667 475.15C626.487 467.214 619.648 431.246 615.897 418.742C612.146 406.238 607.906 392.674 591.571 380.179C591.571 380.179 580.357 369.196 571.415 380.179" fill="url(#paint2_linear)"/>
<path d="M546.667 258.42C536.561 215.602 562.16 191.384 562.16 191.384C546.008 175.881 516.579 168.823 516.579 168.823C516.579 168.823 488.496 189.356 491.826 205.424C493.78 214.842 511.568 261.841 511.568 261.841C511.568 261.841 528.014 269.623 546.667 258.42Z" fill="#FA81A2"/>
<path d="M569.07 279.62C564.958 267.231 546.667 258.42 546.667 258.42C528.014 269.623 511.567 261.841 511.567 261.841C511.567 261.841 507.877 275.938 510.424 289.041C512.969 302.144 528.942 386.345 528.942 386.345C554.108 391.445 592.814 381.216 592.814 381.216C576.783 352.755 573.181 292.009 569.07 279.62" fill="#042A65"/>
<path d="M534.936 140.529L543.151 177.431C543.939 180.68 540.976 180.15 537.69 179.531C532.306 178.514 525.369 176.425 523.051 172.239C522.816 171.812 522.699 171.331 522.633 170.846L519.103 145.257C518.822 143.228 519.92 141.257 521.794 140.426L528.604 137.406C531.226 136.243 534.263 137.739 534.936 140.529" fill="url(#paint3_linear)"/>
<path d="M525.298 105.393C525.298 105.393 515.567 109.499 508.952 123.561C502.336 137.621 507.275 144.11 513.482 145.002C519.688 145.896 528.968 145.758 538.785 136.675C548.601 127.593 537.945 100.522 525.298 105.393" fill="url(#paint4_linear)"/>
<path d="M532.186 129.171C532.186 129.171 539.526 108.599 521.289 108.355L516.997 111.355C516.997 111.355 510.307 99.9516 521.289 94.5076C532.271 89.0637 545.125 93.5593 549.801 108.355C554.474 123.154 555.273 133.059 547.497 140.137C539.721 147.217 536.515 139.191 536.515 139.191C536.515 139.191 540.75 132.57 539.028 129.025C537.303 125.484 533.326 129.759 533.326 129.759L532.186 129.171Z" fill="#042A65"/>
<path d="M534.232 131.46C534.232 131.46 537.942 120.865 542.893 125.085C547.847 129.306 538.87 134.873 535.358 136.675L534.232 131.46Z" fill="url(#paint5_linear)"/>
<path d="M454.992 84.8859C454.477 86.0922 458.823 88.4388 462.001 83.6138C462.336 81.184 464.863 70.8749 463.603 68.7432C456.892 57.3797 448.758 55.8754 448.758 55.8754C446.955 58.4857 444.861 60.6289 443.654 63.8838C442.74 66.345 442.875 69.0899 443.924 71.5167C444.975 73.955 446.425 77.1326 447.843 79.6483C450.531 84.4074 454.992 84.8859 454.992 84.8859" fill="url(#paint6_linear)"/>
<path d="M566.701 202.783C566.701 202.783 491.554 294.545 435.406 190.061C435.406 190.061 434.329 187.393 435.002 183.534C435.343 181.588 434.057 174.683 433.349 171.153C433.12 170.019 433.928 168.947 435.08 168.835C435.979 168.749 436.865 169.127 437.426 169.841L447.681 182.901C448.446 185.488 447.214 188.244 444.776 189.399C443.223 190.138 442.733 192.112 443.776 193.479C486.474 249.452 557.89 188.032 559.2 188.754C563.836 191.313 569.194 194.141 566.701 202.783" fill="#FFCDCC"/>
<path d="M521.724 798.173C523.349 798.173 524.667 797.13 524.667 795.846V517.92C524.667 516.634 523.349 515.594 521.724 515.594C520.097 515.594 518.779 516.634 518.779 517.92V795.846C518.779 797.13 520.097 798.173 521.724 798.173Z" fill="#2A4C81"/>
<path d="M601.47 798.173C603.095 798.173 604.413 797.13 604.413 795.846V517.92C604.413 516.634 603.095 515.594 601.47 515.594C599.843 515.594 598.528 516.634 598.528 517.92V795.846C598.528 797.13 599.843 798.173 601.47 798.173Z" fill="#2A4C81"/>
<path d="M797.396 799.935C797.78 799.935 798.17 799.874 798.545 799.748C800.041 799.247 800.74 797.88 800.104 796.697L649.621 517.009C648.985 515.829 647.254 515.279 645.762 515.78C644.266 516.281 643.567 517.648 644.203 518.829L794.685 798.519C795.161 799.402 796.25 799.935 797.396 799.935" fill="#2A4C81"/>
<path d="M704.445 799.935C704.829 799.935 705.218 799.874 705.594 799.748C707.089 799.247 707.786 797.88 707.152 796.697L556.67 517.009C556.034 515.829 554.304 515.279 552.811 515.78C551.315 516.281 550.616 517.648 551.252 518.829L701.734 798.519C702.21 799.402 703.299 799.935 704.445 799.935" fill="#2A4C81"/>
<path d="M517.155 520.475H654.999C657.291 520.475 659.148 519.009 659.148 517.198C659.148 515.39 657.291 513.923 654.999 513.923H517.155C514.863 513.923 513.006 515.39 513.006 517.198C513.006 519.009 514.863 520.475 517.155 520.475Z" fill="#2A4C81"/>
<path d="M576.694 563.01H669.921C671.546 563.01 672.864 561.97 672.864 560.684C672.864 559.4 671.546 558.36 669.921 558.36H576.694C575.069 558.36 573.751 559.4 573.751 560.684C573.751 561.97 575.069 563.01 576.694 563.01Z" fill="#2A4C81"/>
<path d="M605.298 615.906H698.525V611.255H605.298V615.906Z" fill="#2A4C81"/>
<path d="M632.991 668.803H726.217V664.154H632.991V668.803Z" fill="#2A4C81"/>
<path d="M662.033 721.699H755.26C756.885 721.699 758.203 720.659 758.203 719.376C758.203 718.092 756.885 717.05 755.26 717.05H662.033C660.409 717.05 659.091 718.092 659.091 719.376C659.091 720.659 660.409 721.699 662.033 721.699Z" fill="#2A4C81"/>
<path d="M690.11 774.597H783.336C784.961 774.597 786.279 773.557 786.279 772.274C786.279 770.987 784.961 769.947 783.336 769.947H690.11C688.485 769.947 687.167 770.987 687.167 772.274C687.167 773.557 688.485 774.597 690.11 774.597Z" fill="#2A4C81"/>
<path d="M246.624 795.562C237.323 787.465 217.335 780.978 217.335 780.978L205.31 781.242C202.258 784.674 200.88 791.327 200.29 795.499C202.553 796.854 206.797 798.043 214.576 798.413C228.982 799.101 240.61 796.995 246.624 795.562" fill="#2C66BF"/>
<path d="M246.623 795.562C240.609 796.995 228.982 799.101 214.575 798.413C206.796 798.044 202.553 796.855 200.289 795.499C200.241 795.835 200.198 796.158 200.16 796.459C199.946 798.167 201.003 799.777 202.653 800.281C213.639 803.648 237.798 802.565 247.216 801.981C249.23 801.857 250.282 799.494 248.993 797.943C248.322 797.135 247.52 796.342 246.623 795.562" fill="#042A65"/>
<path d="M210.942 770.858L206.292 780.423C206.292 782.263 207.576 783.85 209.375 784.24C211.238 784.641 213.71 784.902 216.111 784.306C217.61 783.933 218.71 782.644 218.891 781.108L224.747 770.858H210.942" fill="url(#paint7_linear)"/>
<path d="M12.2126 772.635C8.71271 764.844 9.71411 761.34 2.78538 762.117C1.95246 762.208 1.26078 762.369 0.676561 762.578C0.239611 763.865 0.211249 765.286 0.680576 766.638C2.4321 771.678 3.76844 781.452 10.486 789.93C11.8977 791.713 14.057 792.744 16.3297 792.784L23.9695 792.91C16.7245 787.12 15.1162 779.099 12.2126 772.635" fill="#042A65"/>
<path d="M24.4534 781.357C18.5902 777.231 18.726 759.209 18.726 759.209L9.68931 754.607L2.87516 759.547C1.82132 760.329 1.0775 761.398 0.676361 762.578C1.26059 762.369 1.95226 762.209 2.78519 762.117C9.71395 761.34 8.71254 764.845 12.2125 772.635C15.1161 779.099 16.7244 787.119 23.9695 792.909L29.2197 792.998C31.5787 793.035 32.9414 790.342 31.5111 788.465C29.7172 786.11 27.2628 783.337 24.4534 781.357" fill="#2C66BF"/>
<path d="M18.7811 746.119L8.67537 754.607C7.98571 755.679 8.22008 757.1 9.22234 757.888C10.971 759.264 14.0007 760.799 17.7121 759.209L28.8017 753.2L18.7811 746.119" fill="url(#paint8_linear)"/>
<path d="M12.0767 750.304L20.3687 756.491C21.5862 757.617 24.5864 757.731 25.9316 756.763C39.6802 746.849 170.081 686.91 195.92 677.55L176.196 636.138C176.196 636.138 8.5971 747.101 12.0767 750.304" fill="#042A65"/>
<path d="M276.961 669.873C261.58 661.618 218.742 654.481 218.742 654.481L168.913 640.991C168.913 640.991 155.232 681.801 179.205 689.168C203.178 696.532 237.831 693.045 252.357 691.119C252.357 691.119 232.937 705.067 209.685 772.638C209.685 772.638 217.51 772.807 223.877 774.295C223.877 774.295 275.769 709.706 281.207 693.045C284.795 682.053 289.82 676.773 276.961 669.873Z" fill="#033582"/>
<path d="M306.782 535.304C296.006 534.544 263.256 541.662 263.256 541.662L280.072 555.49C280.072 555.49 293.327 552.264 302.161 550.539C302.161 550.539 323.965 536.513 306.782 535.304" fill="url(#paint9_linear)"/>
<path d="M345.277 545.089C345.277 545.089 330.836 558.498 322.063 562.14C313.289 565.779 308.16 569.747 302.725 560.034C297.29 550.321 299.381 539.794 306.636 531.94C306.636 531.94 317.773 519.72 323.979 519.402C330.188 519.087 345.277 545.089 345.277 545.089Z" fill="url(#paint10_linear)"/>
<path d="M314.286 533.226L314.748 534.533C314.748 534.533 323.908 525.261 327.512 529.315C331.12 533.367 341.532 550.782 349.609 552.493C357.397 554.14 364.462 547.748 364.952 541.728C364.984 541.347 364.692 541.014 364.313 540.957L363.348 540.811C362.683 540.713 362.48 539.857 363.024 539.47C363.543 539.1 363.394 538.281 362.775 538.14C360.348 537.602 355.935 535.384 351.113 526.971C344.274 515.032 336.142 508.407 327.249 511.298C326.684 511.481 326.166 510.991 326.289 510.413C326.532 509.267 326.272 507.665 323.871 506.244C319.69 503.774 312.55 507.894 308.957 517.788C308.788 518.258 308.218 518.456 307.819 518.149C306.424 517.074 303.536 515.756 302.55 522.149C301.542 528.688 303.006 531.831 303.754 532.951C303.954 533.252 304.332 533.37 304.668 533.226L312.315 529.997C312.71 529.831 313.166 530.031 313.309 530.438L314.286 533.226Z" fill="#042A65"/>
<path d="M312.765 534.121C312.765 534.121 322.661 527.464 317.89 523.653C313.123 519.845 306.579 530.476 307.55 534.545L312.765 534.121" fill="url(#paint11_linear)"/>
<path d="M402.897 576.489C402.897 576.489 411.023 579.377 412.521 574.541C414.023 569.707 409.834 556.816 412.49 555.037C415.149 553.257 419.741 544.36 418.286 540.297L414.957 543.458C414.957 543.458 417.226 535.999 414.736 532.822L408.435 549.025C408.435 549.025 400.083 568.303 402.897 576.489" fill="url(#paint12_linear)"/>
<path d="M256.062 544.306C256.062 544.306 270.546 528.324 302.207 553.269C324.029 570.457 402.66 566.965 402.66 566.965C402.66 566.965 402.62 571.417 404.162 576.795C404.162 576.795 338.175 594.632 288.643 582.523C288.643 582.523 233.914 644.565 229.699 656.713C229.699 656.713 194.133 662.025 168.912 640.992C168.912 640.992 175.677 620.012 197.577 595.689C226.014 564.108 256.062 544.306 256.062 544.306" fill="#FABB05"/>
<path d="M263.666 576.271C263.402 576.173 263.253 575.887 263.331 575.612C263.411 575.322 263.715 575.153 264.004 575.234C264.19 575.288 282.846 580.525 285.789 581.253C286.078 581.328 286.259 581.623 286.187 581.915C286.115 582.207 285.817 582.385 285.525 582.313C282.568 581.58 263.898 576.337 263.709 576.285C263.695 576.279 263.68 576.276 263.666 576.271" fill="#EDA606"/>
<defs>
<linearGradient id="paint0_linear" x1="478.021" y1="109.997" x2="516.252" y2="227.427" gradientUnits="userSpaceOnUse">
<stop stop-color="#FFCDCC"/>
<stop offset="1" stop-color="#FF928E"/>
</linearGradient>
<linearGradient id="paint1_linear" x1="527.197" y1="594.938" x2="560.019" y2="211.335" gradientUnits="userSpaceOnUse">
<stop stop-color="#FFCDCC"/>
<stop offset="1" stop-color="#FF928E"/>
</linearGradient>
<linearGradient id="paint2_linear" x1="593.219" y1="600.648" x2="626.05" y2="216.943" gradientUnits="userSpaceOnUse">
<stop stop-color="#FFCDCC"/>
<stop offset="1" stop-color="#FF928E"/>
</linearGradient>
<linearGradient id="paint3_linear" x1="524.304" y1="199.708" x2="536.49" y2="131.721" gradientUnits="userSpaceOnUse">
<stop stop-color="#FFCDCC"/>
<stop offset="1" stop-color="#FF928E"/>
</linearGradient>
<linearGradient id="paint4_linear" x1="508.035" y1="158.666" x2="561.827" y2="62.9314" gradientUnits="userSpaceOnUse">
<stop stop-color="#FFCDCC"/>
<stop offset="1" stop-color="#FF928E"/>
</linearGradient>
<linearGradient id="paint5_linear" x1="519.488" y1="165.1" x2="573.28" y2="69.3683" gradientUnits="userSpaceOnUse">
<stop stop-color="#FEBBBA"/>
<stop offset="1" stop-color="#FF928E"/>
</linearGradient>
<linearGradient id="paint6_linear" x1="465.093" y1="104.943" x2="491.497" y2="186.049" gradientUnits="userSpaceOnUse">
<stop stop-color="#FFCDCC"/>
<stop offset="1" stop-color="#FF928E"/>
</linearGradient>
<linearGradient id="paint7_linear" x1="206.292" y1="777.758" x2="224.748" y2="777.758" gradientUnits="userSpaceOnUse">
<stop stop-color="#FFCDCC"/>
<stop offset="1" stop-color="#FF928E"/>
</linearGradient>
<linearGradient id="paint8_linear" x1="8.28083" y1="753.002" x2="28.8017" y2="753.002" gradientUnits="userSpaceOnUse">
<stop stop-color="#FFCDCC"/>
<stop offset="1" stop-color="#FF928E"/>
</linearGradient>
<linearGradient id="paint9_linear" x1="343.647" y1="505.106" x2="273.093" y2="552.568" gradientUnits="userSpaceOnUse">
<stop stop-color="#FFCDCC"/>
<stop offset="1" stop-color="#FF928E"/>
</linearGradient>
<linearGradient id="paint10_linear" x1="323.951" y1="566.372" x2="319.461" y2="508.647" gradientUnits="userSpaceOnUse">
<stop stop-color="#FFCDCC"/>
<stop offset="1" stop-color="#FF928E"/>
</linearGradient>
<linearGradient id="paint11_linear" x1="316.206" y1="566.976" x2="311.715" y2="509.247" gradientUnits="userSpaceOnUse">
<stop stop-color="#FFCDCC"/>
<stop offset="1" stop-color="#FF928E"/>
</linearGradient>
<linearGradient id="paint12_linear" x1="400.94" y1="575.337" x2="423.082" y2="537.736" gradientUnits="userSpaceOnUse">
<stop stop-color="#FFCDCC"/>
<stop offset="1" stop-color="#FF928E"/>
</linearGradient>
</defs>
</svg>
